<?xml version="1.0" encoding="UTF-8"?>
<svg width="420px" height="421px" viewBox="0 0 420 421" version="1.1" xmlns="http://www.w3.org/2000/svg" xmlns:xlink="http://www.w3.org/1999/xlink">
    <!-- Generator: Sketch 52.2 (67145) - http://www.bohemiancoding.com/sketch -->
    <title>Moon Blue</title>
    <desc>Created with Sketch.</desc>
    <defs>
        <linearGradient x1="105.155556%" y1="29.925%" x2="105.155556%" y2="29.925%" id="linearGradient-1">
            <stop stop-color="#4A90E2" offset="0%"></stop>
            <stop stop-color="#FFFFFF" offset="100%"></stop>
        </linearGradient>
        <circle id="path-2" cx="180.5" cy="180.55" r="180"></circle>
        <linearGradient x1="60.2211225%" y1="45.6530417%" x2="98.9303429%" y2="29.2107576%" id="linearGradient-4">
            <stop stop-color="#75AFF3" offset="0%"></stop>
            <stop stop-color="#FCAA83" offset="100%"></stop>
        </linearGradient>
    </defs>
    <g id="Main-Website" stroke="none" stroke-width="1" fill="none" fill-rule="evenodd">
        <g id="H.A.-Landing-Page" transform="translate(-841.000000, -2256.000000)">
            <g id="Moon-Blue" transform="translate(841.000000, 2256.721562)">
                <circle id="Oval" fill="#D8D8D8" opacity="0.04" cx="210" cy="210" r="210"></circle>
                <g id="Mask" opacity="0.897298177" transform="translate(29.000000, 29.000000)" fill="url(#linearGradient-1)">
                    <circle id="path-2" cx="180.5" cy="180.55" r="180"></circle>
                </g>
                <g id="Path-Clipped" transform="translate(29.000000, 29.000000)">
                    <mask id="mask-3" fill="white">
                        <use xlink:href="#path-2"></use>
                    </mask>
                    <g id="path-2"></g>
                    <path d="M127.72,391.39 L255,345.08 C262.005096,342.530511 265.617853,334.785691 263.07,327.78 L262.73,326.84 C260.180511,319.834904 252.435691,316.222147 245.43,318.77 L205.96,333.13 C198.954309,335.677853 191.209489,332.065096 188.66,325.06 C186.112147,318.054309 189.724904,310.309489 196.73,307.76 L255,286.56 C262.005096,284.010511 265.617853,276.265691 263.07,269.26 L262.73,268.32 C260.180511,261.314904 252.435691,257.702147 245.43,260.25 L168.38,288.25 C161.374309,290.797853 153.629489,287.185096 151.08,280.18 L150.74,279.24 C148.192147,272.234309 151.804904,264.489489 158.81,261.94 L226.47,237.31 C233.475096,234.760511 237.087853,227.015691 234.54,220.01 L234.2,219.07 C231.650511,212.064904 223.905691,208.452147 216.9,211 L109.7,250 C102.714144,252.554769 94.977946,248.977337 92.4,242 C89.852147,234.994309 93.464904,227.249489 100.47,224.7 L188.8,192.55 C195.805096,190.000511 199.417853,182.255691 196.87,175.25 L196.53,174.31 C193.980511,167.304904 186.235691,163.692147 179.23,166.24 L111.57,190.87 C104.564309,193.417853 96.819489,189.805096 94.27,182.8 L93.93,181.86 C91.382147,174.854309 94.994904,167.109489 102,164.56 L197.85,129.67 C204.855096,127.120511 208.467853,119.375691 205.92,112.37 C203.370511,105.364904 195.625691,101.752147 188.62,104.3 L55.17,152.82 C48.1643092,155.367853 40.4194886,151.755096 37.87,144.75 L37.53,143.81 C34.9821469,136.804309 38.5949042,129.059489 45.6,126.51 L122.65,98.51 C129.655096,95.960511 133.267853,88.215691 130.72,81.21 L130.38,80.27 C127.830511,73.264904 120.085691,69.6521469 113.08,72.2 L92.41,79.72 C85.404309,82.267853 77.659489,78.655096 75.11,71.65 C72.562147,64.6443092 76.174904,56.8994886 83.18,54.35 L141.44,33.14 C148.445096,30.5905114 152.057853,22.8456908 149.51,15.84 L149.17,14.9 C146.620511,7.8949042 138.875691,4.2821469 131.87,6.83 L4.6,53.1 L-218.66,134.36 C-225.665096,136.909489 -229.277853,144.654309 -226.73,151.66 L-112.84,464.58 C-110.290511,471.585096 -102.545691,475.197853 -95.54,472.65 L127.72,391.39 Z" id="Path" fill="url(#linearGradient-4)" mask="url(#mask-3)"></path>
                </g>
            </g>
        </g>
    </g>
</svg>