<?xml version="1.0" encoding="UTF-8"?>
<svg width="262px" height="238px" viewBox="0 0 262 238" version="1.1" xmlns="http://www.w3.org/2000/svg" xmlns:xlink="http://www.w3.org/1999/xlink">
    <!-- Generator: Sketch 52.2 (67145) - http://www.bohemiancoding.com/sketch -->
    <title>Combined Shape</title>
    <desc>Created with Sketch.</desc>
    <g id="HA-Branding" stroke="none" stroke-width="1" fill="none" fill-rule="evenodd">
        <g id="HA-Blue-" transform="translate(-10.000000, -10.000000)" fill="#000000" fill-rule="nonzero">
            <path style="fill: #fff" d="M222.672798,172.363634 L221.930958,172.363634 C201.913374,172.363634 181.919145,172.363634 161.948271,172.363634 L173.377814,151.337051 L213.718215,151.337051 L213.74748,151.337051 C213.731642,151.299741 213.715805,151.26243 213.699967,151.22512 C209.759998,141.943199 203.940163,128.02782 196.240463,109.478984 L207.76131,87.3493114 L272,225.850138 L245.364172,225.820783 C237.83004,208.071606 230.266249,190.252557 222.672798,172.363634 Z M132.317341,211.785521 C131.727045,212.845133 130.960379,212.845133 130.712023,212.845133 L120.748971,212.845133 C115.475896,212.841517 109.392963,212.8379 105.771998,212.8379 L144.519201,143.174755 C145.163488,142.0175 145.14909,140.607095 144.479608,139.464306 C143.810125,138.321516 142.593538,137.61993 141.27617,137.61993 L141.27257,137.61993 L75.2349553,137.706724 L62.1044588,114.937729 L158.290385,114.937729 C158.297583,114.937729 158.304782,114.934113 158.31558,114.934113 C158.326379,114.934113 158.333577,114.937729 158.340776,114.937729 C158.394767,114.937729 158.445157,114.919647 158.499148,114.916031 C158.71511,114.901565 158.931072,114.879866 159.136236,114.829237 C159.294609,114.793072 159.449381,114.742442 159.604154,114.68458 C159.68694,114.652032 159.766126,114.619484 159.845312,114.58332 C160.565186,114.261458 161.202274,113.73346 161.609002,112.984861 L177.464221,83.6303604 L203.638829,83.6303604 L132.317341,211.785521 Z M99.3183303,209.1383 C98.4760781,207.749594 97.3818703,205.944999 96.1904791,203.981282 C92.1843819,197.359612 87.0516826,188.882718 86.4721842,187.953298 C86.277818,187.638669 86.1878339,186.871987 86.5945626,186.14147 C87.5231995,184.470683 105.059323,152.837836 109.331774,145.127623 L134.937681,145.095076 L99.3183303,209.1383 Z M55.6507912,165.542328 L42.9234241,142.896291 L55.7515735,118.814534 L68.6193161,141.124244 C64.6204178,148.664485 58.3791126,160.42509 55.6507912,165.542328 Z M38.5681881,169.06834 C32.0893247,169.06834 25.6464551,169.064723 24.6998211,169.064723 L24.6962218,169.064723 C24.0627329,169.064723 23.2960674,168.619903 22.9469287,168.048509 L18.8040555,161.209854 C15.8525733,156.334917 12.0876338,150.118286 10,146.679069 L36.5129487,146.679069 L49.0963411,169.071956 C46.3500229,169.071956 42.4627049,169.06834 38.5681881,169.06834 Z M81.6166359,11.0632282 C82.2069322,10 82.9699986,10 83.2183548,10 L108.26636,10.0036164 L69.4147764,79.6667613 C69.3823821,79.7246239 69.3643855,79.7861033 69.3355906,79.8475826 C69.2780004,79.9633079 69.2276094,80.0826499 69.1808175,80.2056082 C69.1412243,80.3249502 69.1052311,80.4406759 69.0728363,80.5600175 C69.0440414,80.6721269 69.018846,80.784236 69.0008493,80.896345 C68.9792528,81.0373854 68.9648556,81.1748095 68.9612562,81.3122337 C68.9576568,81.3737126 68.9432591,81.4315757 68.9432591,81.4966713 C68.9432591,81.5436847 68.9540574,81.5870815 68.9576568,81.634095 C68.9612562,81.7715191 68.9756534,81.9053269 68.9972499,82.0391344 C69.0116471,82.1512434 69.0296442,82.2633525 69.0584391,82.3754615 C69.087234,82.4948035 69.1268271,82.6069126 69.1664202,82.7226383 C69.2060134,82.8347474 69.2456061,82.9504727 69.2959975,83.0589655 C69.3463884,83.1674583 69.4039786,83.2687181 69.4651678,83.3735943 C69.526357,83.4748541 69.5839467,83.576114 69.6559342,83.6737571 C69.7243222,83.7714007 69.8035084,83.8618114 69.8862937,83.9558383 C69.96548,84.0426323 70.0446662,84.133043 70.1310509,84.2162207 C70.2174355,84.2957822 70.30742,84.364494 70.4010035,84.4368226 C70.5053852,84.5200003 70.609767,84.5959451 70.7213475,84.6646569 C70.7645397,84.689972 70.796934,84.72252 70.8401265,84.7478346 C70.883319,84.7731497 70.9301106,84.7803827 70.9769025,84.802081 C71.1676689,84.8997246 71.3692336,84.9829024 71.5815964,85.047998 C71.6571833,85.0696963 71.7291707,85.0986277 71.8083565,85.1167098 C72.0783092,85.1818054 72.3554607,85.2215864 72.6470094,85.2215864 C72.6506088,85.2215864 72.6506088,85.2252026 72.6542082,85.2252026 L72.6578076,85.2252026 L72.661407,85.2252026 L74.3063184,85.2215864 C74.3135172,85.2215864 74.320716,85.2252026 74.3279144,85.2252026 L74.3315139,85.2252026 L138.70982,85.1384086 C140.412321,88.103875 143.594163,93.6840147 146.304488,98.4359938 C148.384922,102.08858 150.105421,105.10106 151.458783,107.469817 L55.65799,107.469817 C55.6147975,107.469817 55.5752043,107.484283 55.5356116,107.487899 C54.2326399,107.509598 52.9764604,108.200334 52.3141766,109.440767 L36.4553588,139.211156 L10.2987476,139.211156 C21.7159446,118.691575 80.85357,12.4302359 81.6166359,11.0632282 Z M177.421028,76.1660643 L164.834037,53.773177 L189.219759,53.7804099 C189.871244,53.7804099 190.630711,54.2143802 190.987049,54.800241 C191.37578,55.4403477 193.355433,58.7095932 195.734616,62.6370281 C198.581716,67.3383775 201.986719,72.9582977 203.933977,76.1660643 L177.421028,76.1660643 Z M114.669637,13.7936271 L116.994829,17.6270349 C121.080113,24.3752791 126.8499,33.9009357 127.461793,34.8918355 C127.656159,35.2064642 127.746143,35.9695293 127.335815,36.7036631 L104.598604,77.7175098 L79.0034946,77.7500573 L114.669637,13.7936271 Z M158.272388,57.2774902 L171.006954,79.9343766 L158.024032,103.965503 C156.476303,101.260419 154.55424,97.889914 152.750956,94.7255442 C149.187582,88.4727497 146.588837,83.9196741 145.123895,81.3737126 C147.891809,76.2998722 155.209325,62.875712 158.272388,57.2774902 Z M245.354981,233.654042 L271.270337,233.653499 L262.127446,247.999455 L236.128237,248 L245.354981,233.654042 Z M158.396151,180.872588 L212.930914,180.872588 L205.443249,193.86267 L151.543533,193.86267 L158.396151,180.872588 Z M191.747886,117.904907 L204.62688,146.222878 L194.129173,146.222719 L185.673768,128.999425 L191.747886,117.904907 Z M210.451196,200.81288 L219.669288,187.144497 L238.829603,232.895564 L229.391542,245.384406 L210.451196,200.81288 Z" id="Combined-Shape"></path>
        </g>
    </g>
</svg>
