<?xml version="1.0" encoding="UTF-8"?>
<svg width="95px" height="116px" viewBox="0 0 95 116" version="1.1" xmlns="http://www.w3.org/2000/svg" xmlns:xlink="http://www.w3.org/1999/xlink">
    <!-- Generator: Sketch 52.4 (67378) - http://www.bohemiancoding.com/sketch -->
    <title>Group</title>
    <desc>Created with Sketch.</desc>
    <defs>
        <linearGradient x1="0%" y1="0%" x2="100%" y2="100%" id="linearGradient-1">
            <stop stop-color="#89F28C" offset="0%"></stop>
            <stop stop-color="#96BFF9" offset="100%"></stop>
        </linearGradient>
    </defs>
    <g id="Page-1" stroke="none" stroke-width="1" fill="none" fill-rule="evenodd">
        <g id="Artboard" transform="translate(-213.000000, -83.000000)">
            <g id="Group" transform="translate(213.000000, 84.000000)">
                <g id="HNSimple-(1)" transform="translate(3.000000, 0.000000)">
                    <path d="M68.555,73.23 C72.688,75.697 75.209,80.975 74.973,84.907 L74.944,85.421 L74.481,85.65 C73.309,86.23 70.815,86.535 68.141,86.535 C66.652,86.535 65.109,86.439 63.705,86.246 C63.757,86.424 63.808,86.61 63.857,86.799 L64.08,87.674 L63.199,87.881 C60.855,88.431 57.091,88.74 53.642,88.74 C50.263,88.74 47.183,88.443 46.029,87.791 L45.672,87.588 L45.596,87.184 C45.527,86.831 45.484,86.469 45.455,86.106 C44.162,86.434 42.574,86.551 41.562,86.592 C41.122,86.613 40.687,86.621 40.259,86.621 C38.427,86.621 36.742,86.457 35.588,86.156 C34.58,85.892 33.972,85.531 33.677,85.017 L33.567,84.695 C33.38,83.312 33.461,81.732 33.752,80.523 C32.983,80.359 32.251,80.154 31.56,79.914 C31.474,81.059 31.568,81.951 31.653,82.76 C31.779,83.957 31.899,85.086 31.327,86.428 L31.201,86.721 L30.917,86.869 C29.604,87.543 25.75,87.914 22.206,87.914 C19.421,87.914 16.826,87.685 15.806,87.197 L15.361,86.984 L15.306,86.494 C14.698,81.046 16.45,77.13 18.719,73.65 C18.364,73.304 18.131,72.894 18.026,72.423 C17.712,71.017 18.615,69.449 19.907,67.685 C18.358,63.677 19.471,60.435 20.782,58.337 C19.669,58.38 18.614,58.44 17.612,58.501 C16.233,58.583 14.984,58.659 13.856,58.659 C12.467,58.659 11.261,58.544 10.221,58.194 C8.257,57.53 7.085,56.073 6.57,53.641 C4.321,53.59 2.571,53.324 1.356,52.592 L0.927,52.332 L0.927,51.832 C0.927,50.87 1.66,50.307 2.469,49.975 C4.312,49.264 4.319,47.93 4.17,45.475 C4.12,44.674 4.069,43.846 4.144,42.946 C4.666,39.855 5.651,36.864 8.879,35.287 C8.879,35.287 23.756,10.258 23.714,10.291 C23.478,10.475 23.148,10.848 22.882,11.149 C22.637,11.427 22.442,11.646 22.267,11.793 C22.101,11.931 21.899,11.998 21.699,11.998 C21.444,11.998 21.192,11.889 21.016,11.679 C20.702,11.302 20.754,10.742 21.13,10.428 C21.201,10.369 21.404,10.14 21.551,9.973 C21.627,9.887 21.705,9.798 21.785,9.71 C21.025,9.925 20.091,10.215 19.786,10.635 C19.612,10.874 19.342,11 19.067,11 C18.887,11 18.704,10.945 18.546,10.831 C18.15,10.543 18.062,9.988 18.351,9.592 C18.786,8.99 19.486,8.616 20.115,8.205 C19.868,7.782 20.01,7.238 20.433,6.99 C21.064,6.62 21.864,6.398 22.684,6.268 C22.156,5.69 21.69,5.024 21.336,4.211 C21.141,3.762 21.346,3.238 21.796,3.042 C22.246,2.846 22.769,3.053 22.964,3.502 C23.344,4.374 23.915,5.048 24.582,5.649 C24.564,5.5 24.545,5.351 24.526,5.203 C24.494,4.949 24.461,4.693 24.427,4.436 C24.405,4.27 24.384,4.083 24.362,3.881 C24.281,3.152 24.146,1.932 23.808,1.503 C23.506,1.116 23.573,0.558 23.959,0.255 C24.345,-0.047 24.903,0.019 25.206,0.405 C25.856,1.233 26.006,2.591 26.127,3.684 C26.148,3.871 26.168,4.046 26.189,4.2 C26.21,4.365 26.23,4.528 26.251,4.692 C26.526,3.794 26.61,2.879 26.612,2.128 C26.614,1.639 27.012,1.244 27.504,1.244 C27.994,1.246 28.39,1.645 28.388,2.136 C28.384,3.161 28.25,4.44 27.787,5.69 C28.871,5.208 29.9,4.668 30.796,4.036 C31.196,3.752 31.75,3.848 32.033,4.249 C32.316,4.649 32.221,5.203 31.82,5.486 C31.106,5.991 30.328,6.436 29.516,6.84 C29.607,6.868 29.7,6.895 29.79,6.923 C30.294,7.078 30.771,7.224 31.252,7.346 C31.728,7.466 32.016,7.948 31.897,8.424 C31.795,8.827 31.434,9.096 30.818,9.069 C30.293,8.936 29.772,8.776 29.268,8.621 C28.767,8.468 28.28,8.318 27.797,8.197 C28.617,8.928 29.356,9.784 29.856,10.939 C30.05,11.389 29.843,11.911 29.393,12.106 C29.278,12.156 29.159,12.18 29.041,12.18 C28.697,12.18 28.37,11.979 28.225,11.644 C27.976,11.068 27.635,10.579 27.237,10.14 C27.422,11 27.674,12.016 27.905,12.366 C28.259,12.501 28.5,12.853 28.475,13.251 C28.446,13.721 28.055,14.084 27.534,14.082 C27.24,14.064 26.99,13.951 26.773,13.756 L32.415,37.901 C33.608,36.999 35.251,36.802 37.998,36.651 C49.422,36.014 52.166,37.473 55.699,40.957 L65.515,50.532 C69.235,53.8 69.581,60.802 69.296,68.04 C70.155,68.241 70.847,68.921 71.132,69.927 C71.495,71.209 71.012,72.392 69.991,72.779 C69.575,72.955 69.09,73.103 68.555,73.23 Z" id="Combined-Shape" fill="url(#linearGradient-1)"></path>
                    <path d="M47.348,57.016 L54.485,63.008 C54.485,63.008 57.374,64.494 59.157,63.305 C60.942,62.114 62.557,60.463 62.557,60.463 C62.557,60.463 63.225,58.766 62.996,57.359 L61.58,51.832 C61.58,51.832 60.601,50.262 58.521,50.473 C56.437,50.688 51.937,51.186 51.937,51.186 C51.937,51.186 49.513,51.75 48.068,53.491 C48.068,53.49 45.734,55.445 47.348,57.016 Z" id="Shape" stroke="#000000" stroke-width="0.5" fill="#000000"></path>
                    <path d="M44.246,53.746 L46.779,52.088 C47.695,51.111 46.242,49.606 46.242,49.606 L42.078,45.251 C40.449,43.982 39.955,47.247 39.955,47.247 C39.955,47.247 40.123,48.563 41.527,51.495 C42.93,54.426 44.246,53.746 44.246,53.746 Z" id="Shape" stroke="#000000" stroke-width="0.5" fill="#000000"></path>
                    <path d="M58.818,65.768 C57.625,67.02 59.498,67.297 59.498,67.297 C59.498,67.297 63.789,67.682 65.232,67.723 C66.677,67.766 66.252,65.686 66.252,65.686 L65.912,62.286 C65.445,61.224 63.916,61.852 63.916,61.852 L60.984,63.768 C60.984,63.768 59.463,65.092 58.818,65.768 Z" id="Shape" stroke="#000000" stroke-width="0.5" fill="#000000"></path>
                    <path d="M10.773,43.806 C10.365,43.806 10.035,44.414 10.035,45.164 C10.035,46.334 10.365,46.523 10.773,46.523 C11.18,46.523 11.51,46.523 11.51,45.164 C11.51,44.414 11.18,43.806 10.773,43.806 Z" id="Shape" stroke="#000000" stroke-width="0.5" fill="#000000"></path>
                    <path d="M20,43.806 C19.593,43.806 19.262,44.414 19.262,45.164 C19.262,46.334 19.593,46.523 20,46.523 C20.407,46.523 20.7370023,46.523 20.737,45.164 C20.738,44.414 20.408,43.806 20,43.806 Z" id="Shape" stroke="#000000" stroke-width="0.5" fill="#000000"></path>
                    <path d="M68.555,73.23 C69.09,73.103 69.575,72.955 69.991,72.779 C71.012,72.392 71.495,71.209 71.132,69.927 C70.847,68.921 70.155,68.241 69.296,68.04 C69.581,60.802 69.235,53.8 65.515,50.532 L55.699,40.957 C52.166,37.473 49.422,36.014 37.998,36.651 C35.251,36.802 33.608,36.999 32.415,37.901 L26.773,13.756 C26.99,13.951 27.24,14.064 27.534,14.082 C28.055,14.084 28.446,13.721 28.475,13.251 C28.5,12.853 28.259,12.501 27.905,12.366 C27.674,12.016 27.422,11 27.237,10.14 C27.635,10.579 27.976,11.068 28.225,11.644 C28.37,11.979 28.697,12.18 29.041,12.18 C29.159,12.18 29.278,12.156 29.393,12.106 C29.843,11.911 30.05,11.389 29.856,10.939 C29.356,9.784 28.617,8.928 27.797,8.197 C28.28,8.318 28.767,8.468 29.268,8.621 C29.772,8.776 30.293,8.936 30.818,9.069 C31.434,9.096 31.795,8.827 31.897,8.424 C32.016,7.948 31.728,7.466 31.252,7.346 C30.771,7.224 30.294,7.078 29.79,6.923 C29.7,6.895 29.607,6.868 29.516,6.84 C30.328,6.436 31.106,5.991 31.82,5.486 C32.221,5.203 32.316,4.649 32.033,4.249 C31.75,3.848 31.196,3.752 30.796,4.036 C29.9,4.668 28.871,5.208 27.787,5.69 C28.25,4.44 28.384,3.161 28.388,2.136 C28.39,1.645 27.994,1.246 27.504,1.244 C27.012,1.244 26.614,1.639 26.612,2.128 C26.61,2.879 26.526,3.794 26.251,4.692 C26.23,4.528 26.21,4.365 26.189,4.2 C26.168,4.046 26.148,3.871 26.127,3.684 C26.006,2.591 25.856,1.233 25.206,0.405 C24.903,0.019 24.345,-0.047 23.959,0.255 C23.573,0.558 23.506,1.116 23.808,1.503 C24.146,1.932 24.281,3.152 24.362,3.881 C24.384,4.083 24.405,4.27 24.427,4.436 C24.461,4.693 24.494,4.949 24.526,5.203 C24.545,5.351 24.564,5.5 24.582,5.649 C23.915,5.048 23.344,4.374 22.964,3.502 C22.769,3.053 22.246,2.846 21.796,3.042 C21.346,3.238 21.141,3.762 21.336,4.211 C21.69,5.024 22.156,5.69 22.684,6.268 C21.864,6.398 21.064,6.62 20.433,6.99 C20.01,7.238 19.868,7.782 20.115,8.205 C19.486,8.616 18.786,8.99 18.351,9.592 C18.062,9.988 18.15,10.543 18.546,10.831 C18.704,10.945 18.887,11 19.067,11 C19.342,11 19.612,10.874 19.786,10.635 C20.091,10.215 21.025,9.925 21.785,9.71 C21.705,9.798 21.627,9.887 21.551,9.973 C21.404,10.14 21.201,10.369 21.13,10.428 C20.754,10.742 20.702,11.302 21.016,11.679 C21.192,11.889 21.444,11.998 21.699,11.998 C21.899,11.998 22.101,11.931 22.267,11.793 C22.442,11.646 22.637,11.427 22.882,11.149 C23.148,10.848 23.478,10.475 23.714,10.291 C23.756,10.258 8.879,35.287 8.879,35.287 C5.651,36.864 4.666,39.855 4.144,42.946 C4.069,43.846 4.12,44.674 4.17,45.475 C4.319,47.93 4.312,49.264 2.469,49.975 C1.66,50.307 0.927,50.87 0.927,51.832 L0.927,52.332 L1.356,52.592 C2.571,53.324 4.321,53.59 6.57,53.641 C7.085,56.073 8.257,57.53 10.221,58.194 C11.261,58.544 12.467,58.659 13.856,58.659 C14.984,58.659 16.233,58.583 17.612,58.501 C18.614,58.44 19.669,58.38 20.782,58.337 C19.471,60.435 18.358,63.677 19.907,67.685 C18.615,69.449 17.712,71.017 18.026,72.423 C18.131,72.894 18.364,73.304 18.719,73.65 C16.45,77.13 14.698,81.046 15.306,86.494 L15.361,86.984 L15.806,87.197 C16.826,87.685 19.421,87.914 22.206,87.914 C25.75,87.914 29.604,87.543 30.917,86.869 L31.201,86.721 L31.327,86.428 C31.899,85.086 31.779,83.957 31.653,82.76 C31.568,81.951 31.474,81.059 31.56,79.914 C32.251,80.154 32.983,80.359 33.752,80.523 C33.461,81.732 33.38,83.312 33.567,84.695 L33.677,85.017 C33.972,85.531 34.58,85.892 35.588,86.156 C36.742,86.457 38.427,86.621 40.259,86.621 C40.687,86.621 41.122,86.613 41.562,86.592 C42.574,86.551 44.162,86.434 45.455,86.106 C45.484,86.469 45.527,86.831 45.596,87.184 L45.672,87.588 L46.029,87.791 C47.183,88.443 50.263,88.74 53.642,88.74 C57.091,88.74 60.855,88.431 63.199,87.881 L64.08,87.674 L63.857,86.799 C63.808,86.61 63.757,86.424 63.705,86.246 C65.109,86.439 66.652,86.535 68.141,86.535 C70.815,86.535 73.309,86.23 74.481,85.65 L74.944,85.421 L74.973,84.907 C75.209,80.975 72.688,75.697 68.555,73.23 Z M69.422,70.412 C69.531,70.803 69.436,71.096 69.363,71.119 C66.828,72.189 61.313,72.169 56.737,71.097 C44.342,68.062 42.171,62.837 39.874,57.308 C38.728,54.548 37.542,51.703 35.047,49.189 C34.952,48.406 34.819,47.584 34.642,46.722 C37.167,47.73 38.599,50.722 40.345,54.38 C43.226,60.409 46.808,67.913 57.47,69.784 C59.318,70.112 61.118,70.278 62.941,70.278 C64.759,70.278 66.599,70.112 68.521,69.784 C69.138,69.642 69.355,70.175 69.422,70.412 Z M32.847,39.999 C33.28,39.367 33.743,39.026 34.678,38.801 L34.203,41.409 C34.203,41.409 34.025,42.064 34.547,42.319 C35.069,42.573 39.955,43.465 39.955,43.465 C39.955,43.465 41.357,43.763 41.91,43.126 C42.318,42.653 44.68,39.829 45.873,38.399 C46.811,38.476 47.629,38.588 48.353,38.736 L44.798,42.786 C44.798,42.786 43.566,43.806 44.003,44.476 C44.384,45.058 48.026,48.733 48.026,48.733 C48.026,48.733 49.299,49.842 50.489,49.606 C51.434,49.418 57.632,48.262 60.157,47.79 L64.274,51.81 C63.891,52.251 63.487,52.872 63.532,53.492 C63.618,54.64 64.128,58.168 64.509,58.846 C64.892,59.526 66.202,60.643 66.695,60.785 C66.883,60.84 67.174,60.89 67.459,60.933 C67.596,62.884 67.625,65.253 67.514,68.15 C64.151,68.656 61.039,68.619 57.78,68.037 C48.016,66.326 44.79,59.574 41.948,53.615 C39.884,49.291 38.085,45.529 34.169,44.735 C33.86,43.586 33.477,42.379 33.007,41.119 C32.917,40.837 32.819,40.535 32.711,40.22 C32.756,40.141 32.802,40.069 32.847,39.999 Z M24.618,12.349 L25.937,17.992 C24.942,18.212 23.533,18.266 22.446,17.924 C22.08,17.809 21.786,17.659 21.56,17.479 L24.618,12.349 Z M21.069,18.305 C21.371,18.523 21.736,18.701 22.158,18.836 C22.93,19.08 23.839,19.159 24.701,19.119 C25.214,19.095 25.711,19.027 26.155,18.927 L27.14,23.14 C25.866,23.645 24.187,23.82 22.484,23.604 C20.857,23.399 19.497,22.871 18.758,22.182 L21.069,18.305 Z M18.261,23.014 C19.175,23.779 20.63,24.334 22.364,24.553 C22.879,24.618 23.394,24.65 23.9,24.65 C25.157,24.65 26.356,24.452 27.36,24.08 L28.341,28.277 C26.898,28.92 24.576,29.175 22.169,28.932 C19.51,28.663 17.267,27.862 16.028,26.76 L18.261,23.014 Z M15.531,27.596 C17.435,29.179 20.85,29.97 23.953,29.97 C25.696,29.97 27.338,29.719 28.561,29.22 L29.65,33.878 C27.874,34.598 24.559,34.84 21.175,34.462 C17.402,34.041 14.419,32.948 13.168,31.562 L15.531,27.596 Z M12.662,32.407 C13.712,33.43 16.038,34.85 21.069,35.412 C22.163,35.534 23.245,35.594 24.274,35.596 C26.518,35.599 28.514,35.325 29.868,34.815 L30.862,39.066 C29.406,39.716 27.214,40.07 24.586,40.07 C17.415,40.07 11.115,37.754 10.432,36.152 L12.662,32.407 Z M22.495,67.213 C22.979,66.586 23.469,65.951 23.928,65.315 C23.85,65.69 23.783,66.059 23.726,66.422 C22.87,67.818 21.898,69.158 20.956,70.455 C20.562,70.998 20.166,71.543 19.776,72.096 C19.769,72.073 19.764,72.051 19.761,72.035 C19.538,71.043 21.109,69.008 22.495,67.213 Z M23.686,62.402 C23.077,63.539 22.141,64.767 21.218,65.963 C20.449,62.971 21.427,60.567 22.464,59.01 C22.689,59.256 22.944,59.506 23.219,59.754 C23.177,60.801 23.43,61.646 23.686,62.402 Z M29.815,85.406 C28.743,85.773 26.174,86.058 23.289,86.115 C20.307,86.177 18.049,85.986 17.018,85.738 C16.52,79.584 19.375,75.652 22.393,71.498 C22.777,70.971 23.164,70.436 23.55,69.893 C23.695,72.217 24.419,74.235 25.723,75.922 C26.767,77.276 28.153,78.371 29.847,79.201 C29.66,80.791 29.786,81.972 29.889,82.947 C29.992,83.934 30.065,84.629 29.815,85.406 Z M45.49,82.623 C45.461,83.17 45.429,83.721 45.416,84.269 C44.346,84.613 42.357,84.843 40.277,84.843 L40.211,84.843 C37.271,84.835 35.733,84.425 35.294,84.169 C35.182,83.042 35.272,81.731 35.506,80.829 C36.719,80.993 38.01,81.077 39.376,81.077 C39.663,81.079 39.944,81.093 40.243,81.102 C40.61,81.118 40.993,81.131 41.407,81.131 C42.468,81.131 43.743,81.031 45.567,80.576 C45.564,81.234 45.527,81.922 45.49,82.623 Z M47.27,86.398 C47.124,85.259 47.194,83.972 47.262,82.722 C47.393,80.353 47.526,77.904 46.276,76.064 L45.372,76.677 C45.704,77.165 45.929,78.466 45.522,79.204 C43.036,79.858 41.733,79.808 40.428,79.757 C40.133,79.745 39.826,79.734 39.504,79.73 C33.823,79.73 29.469,78.146 27.246,75.265 C25.321,72.771 24.794,68.904 25.915,64.611 L25.944,64.387 C25.944,63.508 25.69,62.77 25.444,62.057 C25.375,61.856 25.307,61.657 25.245,61.457 C26.261,61.666 26.959,62.324 27.073,62.564 C27.073,62.564 27.515,63.931 28.549,63.767 L28.372,62.613 C28.372,61.754 27.519,61.017 25.884,59.683 C25.372,59.267 24.291,58.533 23.79,58.064 C25.487,58.064 26.872,57.521 27.646,57.226 L27.976,56.66 C24.57,56.445 20.086,56.572 17.507,56.728 C11.623,57.078 9.24,57.029 8.388,53.64 C9.673,53.62 11.085,53.558 12.623,53.492 C14.859,53.394 17.394,53.285 20.06,53.285 C22.233,53.285 25.044,52.726 26.52,50.187 L26.054,50.017 C25.236,51.423 22.653,51.939 20.063,51.939 C17.359,51.939 14.902,51.99 12.647,52.087 C8.718,52.257 5.258,52.649 2.603,51.579 C5.453,50.309 6.073,47.55 5.94,45.366 C5.896,44.64 5.849,43.889 5.899,43.2 C6.445,40.007 7.284,38.323 9.085,37.338 C11.116,40.252 19.012,41.844 24.584,41.844 C26.505,41.844 29.032,41.663 31.072,40.893 C31.146,41.122 31.223,41.372 31.321,41.678 C34.369,49.848 34.467,55.613 33.494,57.442 L34.122,57.776 C34.748,56.602 35.199,54.745 35.225,52.309 C36.961,54.973 36.938,58.786 36.929,60.219 C36.928,60.311 36.928,60.391 36.928,60.461 L38.704,60.461 L38.704,60.231 C38.706,59.938 38.708,59.553 38.698,59.104 C40.964,64.442 43.911,69.786 56.319,72.821 C58.778,73.399 61.448,73.686 63.864,73.686 C64.055,73.686 64.245,73.682 64.434,73.68 C62.623,74.825 59.53,76.065 57.545,76.51 C56.697,76.03 56.137,74.729 55.848,73.301 L54.748,73.363 C55.68,77.994 57.432,79.967 58.978,81.709 C60.144,83.021 61.167,84.174 61.876,86.34 C57.199,87.201 49.48,87.131 47.27,86.398 Z M62.988,84.328 C62.218,82.682 61.252,81.594 60.31,80.531 C59.642,79.781 58.994,79.051 58.402,78.123 C59.707,77.777 61.371,77.184 62.814,76.535 C64.544,75.758 65.812,74.988 66.615,74.232 C70.476,75.877 73.146,80.597 73.211,84.236 C71.354,84.781 66.645,85.016 62.988,84.328 Z" id="Shape" stroke="#000000" stroke-width="0.5" fill="#000000" fill-rule="nonzero"></path>
                </g>
                <path d="M11.172,99.1 L11.172,111 L8.962,111 L8.962,105.9 L2.808,105.9 L2.808,111 L0.598,111 L0.598,99.1 L2.808,99.1 L2.808,104.013 L8.962,104.013 L8.962,99.1 L11.172,99.1 Z M26.0277141,99.1 L26.0277141,111 L24.2087141,111 L17.6467141,102.942 L17.6467141,111 L15.4537141,111 L15.4537141,99.1 L17.2727141,99.1 L23.8347141,107.158 L23.8347141,99.1 L26.0277141,99.1 Z M33.9984282,111.17 C33.0804236,111.17 32.1935991,111.039668 31.3379282,110.779 C30.4822573,110.518332 29.8050974,110.172669 29.3064282,109.742 L30.0714282,108.025 C30.558764,108.410335 31.1565913,108.724832 31.8649282,108.9685 C32.5732651,109.212168 33.2844246,109.334 33.9984282,109.334 C34.8824326,109.334 35.5425927,109.192335 35.9789282,108.909 C36.4152637,108.625665 36.6334282,108.251669 36.6334282,107.787 C36.6334282,107.446998 36.5115961,107.166501 36.2679282,106.9455 C36.0242603,106.724499 35.7154301,106.551667 35.3414282,106.427 C34.9674263,106.302333 34.4574314,106.160667 33.8114282,106.002 C32.904757,105.786666 32.170931,105.571334 31.6099282,105.356 C31.0489254,105.140666 30.5672635,104.803502 30.1649282,104.3445 C29.7625929,103.885498 29.5614282,103.265004 29.5614282,102.483 C29.5614282,101.825663 29.7399264,101.227836 30.0969282,100.6895 C30.45393,100.151164 30.9922579,99.7233349 31.7119282,99.406 C32.4315985,99.0886651 33.3127563,98.93 34.3554282,98.93 C35.0807652,98.93 35.794758,99.0206658 36.4974282,99.202 C37.2000984,99.3833342 37.8064257,99.6439983 38.3164282,99.984 L37.6194282,101.701 C37.0980923,101.394998 36.5540977,101.162667 35.9874282,101.004 C35.4207587,100.845333 34.8710975,100.766 34.3384282,100.766 C33.4657572,100.766 32.8169303,100.913332 32.3919282,101.208 C31.9669261,101.502668 31.7544282,101.893664 31.7544282,102.381 C31.7544282,102.721002 31.8762603,102.998666 32.1199282,103.214 C32.3635961,103.429334 32.6724263,103.599333 33.0464282,103.724 C33.4204301,103.848667 33.930425,103.990333 34.5764282,104.149 C35.4604326,104.353001 36.1857587,104.565499 36.7524282,104.7865 C37.3190977,105.007501 37.8035929,105.344664 38.2059282,105.798 C38.6082635,106.251336 38.8094282,106.863329 38.8094282,107.634 C38.8094282,108.291337 38.63093,108.886331 38.2739282,109.419 C37.9169264,109.951669 37.3757652,110.376665 36.6504282,110.694 C35.9250912,111.011335 35.0411001,111.17 33.9984282,111.17 Z M41.8841423,101.922 L44.0091423,101.922 L44.0091423,111 L41.8841423,111 L41.8841423,101.922 Z M42.9551423,100.426 C42.569807,100.426 42.2468103,100.304168 41.9861423,100.0605 C41.7254743,99.8168321 41.5951423,99.5136685 41.5951423,99.151 C41.5951423,98.7883315 41.7254743,98.4851679 41.9861423,98.2415 C42.2468103,97.9978321 42.569807,97.876 42.9551423,97.876 C43.3404776,97.876 43.6634743,97.9921655 43.9241423,98.2245 C44.1848103,98.4568345 44.3151423,98.7486649 44.3151423,99.1 C44.3151423,99.4740019 44.1876436,99.7884987 43.9326423,100.0435 C43.677641,100.298501 43.351811,100.426 42.9551423,100.426 Z M59.3408564,101.82 C60.4855288,101.82 61.3921864,102.151497 62.0608564,102.8145 C62.7295264,103.477503 63.0638564,104.471993 63.0638564,105.798 L63.0638564,111 L60.9388564,111 L60.9388564,106.07 C60.9388564,105.276663 60.7631915,104.678835 60.4118564,104.2765 C60.0605213,103.874165 59.556193,103.673 58.8988564,103.673 C58.1848528,103.673 57.6125252,103.908164 57.1818564,104.3785 C56.7511876,104.848836 56.5358564,105.520329 56.5358564,106.393 L56.5358564,111 L54.4108564,111 L54.4108564,106.07 C54.4108564,105.276663 54.2351915,104.678835 53.8838564,104.2765 C53.5325213,103.874165 53.028193,103.673 52.3708564,103.673 C51.6455194,103.673 51.0703585,103.905331 50.6453564,104.37 C50.2203543,104.834669 50.0078564,105.508996 50.0078564,106.393 L50.0078564,111 L47.8828564,111 L47.8828564,101.922 L49.9058564,101.922 L49.9058564,103.078 C50.2458581,102.669998 50.6708539,102.358334 51.1808564,102.143 C51.690859,101.927666 52.25752,101.82 52.8808564,101.82 C53.5608598,101.82 54.1643538,101.947499 54.6913564,102.2025 C55.218359,102.457501 55.6348549,102.834331 55.9408564,103.333 C56.3148583,102.856998 56.7965201,102.485835 57.3858564,102.2195 C57.9751927,101.953165 58.6268528,101.82 59.3408564,101.82 Z M71.9015705,101.82 C72.7855749,101.82 73.576067,102.012665 74.2730705,102.398 C74.970074,102.783335 75.5169019,103.32733 75.9135705,104.03 C76.3102392,104.73267 76.5085705,105.542995 76.5085705,106.461 C76.5085705,107.379005 76.3102392,108.192163 75.9135705,108.9005 C75.5169019,109.608837 74.970074,110.155665 74.2730705,110.541 C73.576067,110.926335 72.7855749,111.119 71.9015705,111.119 C70.6775644,111.119 69.7085741,110.711004 68.9945705,109.895 L68.9945705,114.298 L66.8695705,114.298 L66.8695705,101.922 L68.8925705,101.922 L68.8925705,103.112 C69.2439056,102.681331 69.6774013,102.358334 70.1930705,102.143 C70.7087398,101.927666 71.2782341,101.82 71.9015705,101.82 Z M71.6635705,109.3 C72.4455744,109.3 73.0887347,109.039336 73.5930705,108.518 C74.0974064,107.996664 74.3495705,107.311004 74.3495705,106.461 C74.3495705,105.610996 74.0974064,104.925336 73.5930705,104.404 C73.0887347,103.882664 72.4455744,103.622 71.6635705,103.622 C71.153568,103.622 70.6945725,103.738166 70.2865705,103.9705 C69.8785685,104.202834 69.5555717,104.534331 69.3175705,104.965 C69.0795693,105.395669 68.9605705,105.89433 68.9605705,106.461 C68.9605705,107.027669 69.0795693,107.526331 69.3175705,107.957 C69.5555717,108.387669 69.8785685,108.719166 70.2865705,108.9515 C70.6945725,109.183834 71.153568,109.3 71.6635705,109.3 Z M79.6172846,98.386 L81.7422846,98.386 L81.7422846,111 L79.6172846,111 L79.6172846,98.386 Z M94.1499987,106.512 C94.1499987,106.659334 94.1386655,106.868999 94.1159987,107.141 L86.9929987,107.141 C87.117666,107.80967 87.4434961,108.339498 87.9704987,108.7305 C88.4975013,109.121502 89.1519948,109.317 89.9339987,109.317 C90.931337,109.317 91.7529955,108.988337 92.3989987,108.331 L93.5379987,109.64 C93.1299967,110.127336 92.6143352,110.495665 91.9909987,110.745 C91.3676623,110.994335 90.6650026,111.119 89.8829987,111.119 C88.8856604,111.119 88.0073358,110.920669 87.2479987,110.524 C86.4886616,110.127331 85.9021674,109.574837 85.4884987,108.8665 C85.07483,108.158163 84.8679987,107.356338 84.8679987,106.461 C84.8679987,105.576996 85.0691634,104.780837 85.4714987,104.0725 C85.8738341,103.364163 86.4319951,102.811669 87.1459987,102.415 C87.8600023,102.018331 88.6646609,101.82 89.5599987,101.82 C90.4440031,101.82 91.2344952,102.015498 91.9314987,102.4065 C92.6285022,102.797502 93.1724968,103.347163 93.5634987,104.0555 C93.9545007,104.763837 94.1499987,105.582662 94.1499987,106.512 Z M89.5599987,103.52 C88.8799953,103.52 88.3048344,103.721165 87.8344987,104.1235 C87.364163,104.525835 87.0779992,105.06133 86.9759987,105.73 L92.1269987,105.73 C92.0363316,105.072663 91.7586677,104.540002 91.2939987,104.132 C90.8293297,103.723998 90.2513355,103.52 89.5599987,103.52 Z" id="HNSimple" fill="#FFFFFF"></path>
            </g>
        </g>
    </g>
</svg>
