<svg xmlns="http://www.w3.org/2000/svg" height="50px" viewBox="0 0 533 145" width="220px"><g fill="none" fill-rule="evenodd" transform="translate(0 .622922)"><path d="m302.696545 89.0207044v23.1999986h-21.119999v-111.99999332h21.119999v62.87999622l28.959998-30.8799981h27.999998l-34.559997 34.3999979 34.559997 45.5999973h-27.199998l-21.439999-31.3599981z"/><path d="m179.953695 72.2207054c0-8.2133739 1.866648-15.4933007 5.6-21.8399987s8.879967-11.2799817 15.439999-14.7999991c6.560033-3.5200174 13.893292-5.2799997 21.999999-5.2799997s15.439966 1.7599823 21.999998 5.2799997c6.560033 3.5200174 11.706648 8.4533011 15.44 14.7999991 3.733351 6.346698 5.599999 13.6266248 5.599999 21.8399987s-1.866648 15.4933007-5.599999 21.8399987c-3.733352 6.3466979-8.879967 11.2799819-15.44 14.7999989-6.560032 3.520018-13.893291 5.28-21.999998 5.28s-15.439966-1.759982-21.999999-5.28c-6.560032-3.520017-11.706647-8.453301-15.439999-14.7999989-3.733352-6.346698-5.6-13.6266248-5.6-21.8399987z"/><path d="m244.273692 72.2207054c0-6.2933644-2.026647-11.4133129-6.08-15.3599991s-9.119969-5.9199996-15.199999-5.9199996-11.146646 1.9733134-15.199999 5.9199996c-4.053354 3.9466862-6.08 9.0666347-6.08 15.3599991s2.026646 11.4133129 6.08 15.3599991c4.053353 3.9466861 9.119969 5.9199996 15.199999 5.9199996s11.146646-1.9733135 15.199999-5.9199996c4.053353-3.9466862 6.08-9.0666347 6.08-15.3599991z"/><g fill="#fff"><path d="m124.570842 100.700704-32.2035584-65.0147311c-.5883297-1.1877601-.1023954-2.6275654 1.0853647-3.2158952.3311537-.1640294.6957136-.2493699 1.0652653-.2493699h17.1962524c2.181006 0 4.163594 1.266264 5.080767 3.2450458l18.815908 40.5949516 18.350585-40.5488737c.906792-2.0037166 2.902519-3.2911237 5.101871-3.2911237h15.075736c1.325484 0 2.4 1.0745165 2.4 2.3999998 0 .3395489-.072049.6752332-.211388.9848752l-47.390922 105.3131602c-.904304 2.009564-2.903102 3.301958-5.10676 3.301958h-15.072291c-1.325483 0-2.399999-1.074516-2.399999-2.4 0-.338559.07163-.673287.210185-.982196z"/><path d="m242.993692 16.8607087h-39.999998c-2.209139 0-4-1.7908609-4-3.9999998v-7.83999951c0-2.20913887 1.790861-3.99999976 4-3.99999976h39.999998c2.209138 0 3.999999 1.79086089 3.999999 3.99999976v7.83999951c0 2.2091389-1.790861 3.9999998-3.999999 3.9999998z"/><path d="m327.23528 69.8211672h.071478l26.256514 37.8311168c.755757 1.088916.485679 2.584319-.603237 3.340075-.401833.278891-.879288.428344-1.368419.428344h-16.48294c-1.835288 0-3.554096-.89929-4.600531-2.407022l-27.18237-39.1651147h-.111151l29.738534-39.4434939c1.058146-1.403465 2.713836-2.2286985 4.471501-2.2286985h16.393643c.521362 0 1.028545.1697728 1.444843.4836421 1.058375.7979649 1.269479 2.3028259.471514 3.3612011zm-24.538735 19.1995372v19.1999986c0 2.209139-1.790861 4-4 4h-13.119999c-2.209139 0-4-1.790861-4-4v-103.99999356c0-2.20913887 1.790861-3.99999976 4-3.99999976h13.119999c2.209139 0 4 1.79086089 4 3.99999976v58.87999646z"/><path d="m461.656036 32.2207078h12.479999c2.209139 0 4 1.7908609 4 3.9999997v8.1599995c2.986681-4.5866893 6.719977-8.0799875 11.199999-10.4799993 4.480023-2.4000119 9.439973-3.5999998 14.88-3.5999998 8.960044 0 15.893307 2.7733054 20.799998 8.3199995s7.36 13.3866152 7.36 23.5199986v46.079997c0 2.209139-1.790861 4-4 4h-13.599999c-2.209139 0-4-1.790861-4-4v-40.3199974c0-5.6533612-1.253321-9.9466514-3.76-12.8799992s-6.213308-4.3999997-11.119999-4.3999997c-5.546694 0-9.786651 1.9999799-12.719999 5.9999996-2.933348 4.0000198-4.4 9.7866282-4.4 17.359999v34.2399977c0 2.209139-1.790861 4-4 4h-13.119999c-2.209139 0-4-1.790861-4-4v-71.9999955c0-2.2091388 1.790861-3.9999997 4-3.9999997z"/><path d="m4.0989914.22070968h14.3999991c2.2091389 0 3.9999998 1.79086089 3.9999998 3.99999976v103.99999356c0 2.209139-1.7908609 4-3.9999998 4h-14.3999991c-2.20913886 0-3.99999976-1.790861-3.99999976-4v-103.99999356c0-2.20913887 1.7908609-3.99999976 3.99999976-3.99999976z"/><path d="m47.39925 70.6211671h20.5002463c2.1412832 0 4.095114 1.2210579 5.0335515 3.1457473l17.0662122 35.0019666c.5809055 1.191408.0859949 2.628153-1.1054139 3.209059-.3276241.159742-.6873293.242763-1.0518225.242763h-16.6599749c-2.1412833 0-4.0951141-1.221058-5.0335516-3.145747z"/><path d="m22.6749843 1.1867825h23.9999986l39.6233499 65.964178c.6825234 1.1362517.314704 2.6106602-.8215476 3.2931836-.3732341.2241942-.8004254.3426343-1.235818.3426343h-16.5898521c-1.9660744 0-3.7881405-1.0310353-4.8005198-2.7164244z" transform="matrix(1 0 0 -1 0 71.97356)"/><path d="m179.953695 72.2207054c0-8.2133739 1.866648-15.4933007 5.6-21.8399987s8.879967-11.2799817 15.439999-14.7999991c6.560033-3.5200174 13.893292-5.2799997 21.999999-5.2799997s15.439966 1.7599823 21.999998 5.2799997c6.560033 3.5200174 11.706648 8.4533011 15.44 14.7999991 3.733351 6.346698 5.599999 13.6266248 5.599999 21.8399987s-1.866648 15.4933007-5.599999 21.8399987c-3.733352 6.3466979-8.879967 11.2799819-15.44 14.7999989-6.560032 3.520018-13.893291 5.28-21.999998 5.28s-15.439966-1.759982-21.999999-5.28c-6.560032-3.520017-11.706647-8.453301-15.439999-14.7999989-3.733352-6.346698-5.6-13.6266248-5.6-21.8399987zm64.319997 0c0-6.2933644-2.026647-11.4133129-6.08-15.3599991s-9.119969-5.9199996-15.199999-5.9199996-11.146646 1.9733134-15.199999 5.9199996c-4.053354 3.9466862-6.08 9.0666347-6.08 15.3599991s2.026646 11.4133129 6.08 15.3599991c4.053353 3.9466861 9.119969 5.9199996 15.199999 5.9199996s11.146646-1.9733135 15.199999-5.9199996c4.053353-3.9466862 6.08-9.0666347 6.08-15.3599991z"/><path d="m371.447975 43.2950794c3.673482-5.0559497 7.206276-8.4540736 10.598383-10.1943717 6.133363-3.1466822 13.733287-4.7199997 22.799998-4.7199997 11.840059 0 20.63997 2.6933062 26.399999 8.0799995 5.760028 5.3866933 8.639999 13.5732776 8.639999 24.5599986v44.6399969c0 2.650967-2.149033 4.8-4.799999 4.8h-11.52c-2.650966 0-4.8-2.149033-4.8-4.8v-6.0799992c-2.560012 3.9466862-5.973311 7.0399882-10.239999 9.2799992s-9.066639 3.36-14.399999 3.36c-7.893372 0-14.373307-2.346643-19.439999-7.04-5.066692-4.693356-7.599999-10.7199621-7.599999-18.0799985 0-6.9333676 2.319976-12.6666432 6.959999-17.199999 4.640023-4.5333557 10.853294-7.1733291 18.639999-7.9199995l21.919999-1.9199999c2.773347-.3200016 4.159999-1.3866575 4.159999-3.1999998v-1.2799999c0-2.5600127-1.199987-4.5599925-3.599999-5.9999997-2.400012-1.4400071-5.839978-2.1599998-10.32-2.1599998-5.120025 0-9.413315.9066575-12.879999 2.7199998-1.615059.8447999-3.260498 2.349411-4.936317 4.5138335-1.31568 1.6992828-3.738967 2.0552482-5.487751.8061168l-9.183235-6.5594574c-1.797649-1.2840349-2.214016-3.7822332-.929981-5.579882.006266-.0087715.012566-.0175176.018902-.0262382zm27.478382 33.8856257c-3.093349.4266688-5.519991 1.4133255-7.28 2.9599998s-2.64 3.4933214-2.64 5.8399997c0 2.773347 1.013323 4.9333253 3.04 6.4799996s4.799982 2.3199998 8.32 2.3199998c5.226692 0 9.599981-1.6266503 13.119999-4.8799997 3.520017-3.2533494 5.279999-7.2266427 5.279999-11.9199993v-3.1999998z"/></g></g></svg>