<?xml version="1.0" encoding="UTF-8"?>
<svg width="772px" height="700px" viewBox="0 0 772 700" version="1.1" xmlns="http://www.w3.org/2000/svg" xmlns:xlink="http://www.w3.org/1999/xlink">
    <!-- Generator: Sketch 52.2 (67145) - http://www.bohemiancoding.com/sketch -->
    <title>Group</title>
    <desc>Created with Sketch.</desc>
    <g id="Logos" stroke="none" stroke-width="1" fill="none" fill-rule="evenodd">
        <g id="Artboard" transform="translate(-445.000000, -201.000000)">
            <g id="Group" transform="translate(447.000000, 202.000000)">
                <g id="H" stroke-width="2">
                    <path d="M358.874701,591.892052 C357.143864,595 354.895885,595 354.167667,595 L324.954504,595 C309.493057,594.989393 291.656986,594.978785 281.039774,594.978785 L394.652383,390.649735 C396.54153,387.255388 396.499313,383.118527 394.53629,379.76661 C392.573267,376.414694 389.006053,374.356871 385.14333,374.356871 L385.132776,374.356871 L191.500585,374.611446 L153,307.827679 L435.03156,307.827679 C435.052667,307.827679 435.073775,307.817072 435.105437,307.817072 C435.137099,307.817072 435.158206,307.827679 435.179314,307.827679 C435.337623,307.827679 435.485377,307.774642 435.643685,307.764036 C436.276919,307.721606 436.910153,307.657962 437.511724,307.50946 C437.976095,307.403387 438.429912,307.254883 438.88373,307.085166 C439.126468,306.989701 439.358654,306.894234 439.590839,306.788161 C441.701617,305.844108 443.569655,304.295437 444.762245,302.09972 L491.252123,216 L568,216 L358.874701,591.892052 Z" id="Fill-1-path" stroke="#15232C"></path>
                    <path d="M262.258494,585 C259.781785,580.923429 256.564181,575.626009 253.060801,569.861482 C241.280557,550.423457 226.187451,525.539387 224.48339,522.811057 C223.911841,521.887458 223.647236,519.636851 224.843253,517.492405 C227.573983,512.58778 279.140336,419.729007 291.703813,397.095544 L367,397 L262.258494,585 Z" id="Fill-1-path" stroke="#101725"></path>
                    <path d="M133.643367,456 L96,389.604674 L133.941448,319 L172,384.409256 C160.172573,406.516291 141.712845,440.996904 133.643367,456 Z" id="Fill-1-path" stroke="#15232C"></path>
                    <path d="M84.0319462,463.989503 C64.9746823,463.989503 46.0232922,463.979005 43.2388142,463.979005 L43.2282268,463.979005 C41.3648499,463.979005 39.1097404,462.687823 38.0827657,461.029232 L25.8967041,441.178618 C17.2150617,427.028101 6.14067392,408.983043 0,399 L77.9865586,399 L115,464 C106.921838,464 95.4874793,463.989503 84.0319462,463.989503 Z" id="Fill-1-path" stroke="#15232C"></path>
                    <path d="M210.164057,3.11864312 C211.895302,-5.68434189e-14 214.133255,-5.68434189e-14 214.861644,-5.68434189e-14 L288.323473,0.0106076297 L174.377938,204.345377 C174.282931,204.515099 174.230149,204.695429 174.145699,204.87576 C173.976796,205.215203 173.829007,205.565255 173.691774,205.925914 C173.575653,206.275966 173.470091,206.615411 173.375082,206.965461 C173.290631,207.294299 173.216737,207.623136 173.163956,207.951972 C173.100616,208.365669 173.058392,208.768759 173.047835,209.17185 C173.037279,209.352178 172.995053,209.521901 172.995053,209.712839 C172.995053,209.850738 173.026722,209.978029 173.037279,210.115928 C173.047835,210.519018 173.09006,210.911501 173.153399,211.303983 C173.195624,211.632819 173.248406,211.961655 173.332857,212.290492 C173.417308,212.640544 173.533428,212.96938 173.649549,213.308825 C173.765669,213.637661 173.881788,213.977105 174.029578,214.295334 C174.177367,214.613563 174.34627,214.910577 174.525728,215.218198 C174.705186,215.515212 174.874088,215.812225 175.085216,216.098631 C175.285787,216.385037 175.518027,216.650228 175.760823,216.926026 C175.993064,217.180609 176.225305,217.4458 176.478657,217.689776 C176.73201,217.923144 176.99592,218.124688 177.270386,218.336841 C177.576521,218.580817 177.882656,218.803577 178.209904,219.005121 C178.33658,219.079375 178.431587,219.174844 178.558264,219.249097 C178.684941,219.32335 178.822173,219.344566 178.959406,219.408211 C179.518894,219.694618 180.110051,219.938593 180.732878,220.129531 C180.954562,220.193176 181.165689,220.278037 181.397929,220.331075 C182.189657,220.522012 183.002499,220.638697 183.857565,220.638697 C183.868121,220.638697 183.868121,220.649304 183.878678,220.649304 L183.889234,220.649304 L183.899791,220.649304 L188.724055,220.638697 C188.745168,220.638697 188.766281,220.649304 188.787393,220.649304 L188.797949,220.649304 L377.609311,220.394722 C382.602478,229.092978 391.934315,245.46055 399.883268,259.398976 C405.984854,270.112682 411.030802,278.948837 415,285.896834 L134.031465,285.896834 C133.904788,285.896834 133.788668,285.939265 133.672549,285.949872 C129.851139,286.013519 126.166964,288.039575 124.224591,291.677992 L77.7131929,379 L1,379 C34.4848283,318.812309 207.926106,7.12832713 210.164057,3.11864312 Z" id="Fill-1-path" stroke="#15232C"></path>
                    <path d="M492.02062,194 L455,129 L526.722821,129.020995 C528.638958,129.020995 530.872687,130.280684 531.920741,131.981266 C533.064071,133.839309 538.886587,143.328972 545.884195,154.729166 C554.258032,168.375808 564.272761,184.688792 570,194 L492.02062,194 Z" id="Fill-1" stroke="#15232C"></path>
                    <path d="M307.895518,11 L314.733998,22.2683065 C326.748976,42.1047781 343.718147,70.1054567 345.517747,73.0182076 C346.089386,73.9430593 346.354032,76.18609 345.147241,78.344077 L278.276216,198.904326 L203,199 L307.895518,11 Z" id="Fill-1-path" stroke="#15232C"></path>
                    <path d="M435.607704,139 L473,205.483734 L434.87846,276 C430.33389,268.062277 424.690168,258.17196 419.395216,248.886522 C408.932137,230.538497 401.301487,217.178079 397,209.707281 C405.12738,194.818746 426.613683,155.427266 435.607704,139 Z" id="Fill-1-path" stroke="#15232C"></path>
                </g>
                <g id="A" transform="translate(415.000000, 226.000000)" stroke="#FFFFFF">
                    <path d="M183.228004,189 C183.111976,188.726873 182.995945,188.45374 182.879913,188.180602 C171.315705,160.958773 154.233904,120.148034 131.634511,65.7483853 L165.449357,0.846932132 L353.996378,407.037898 L275.817542,406.953245 C253.67949,354.840874 231.45419,302.523126 209.141644,250 L31,250 L64.5252619,189 L182.852173,189 L183.228004,189 Z" id="Combined-Shape"></path>
                    <polygon id="Path" transform="translate(300.352034, 451.023368) scale(-1, 1) rotate(-131.000000) translate(-300.352034, -451.023368) " points="300.160294 483.400956 250.639982 476.236846 300.705249 418.645781 350.064086 425.995638"></polygon>
                    <polygon id="Rectangle-6" points="20.093237 276 180 276 158.044677 314 0 314"></polygon>
                    <polygon id="Rectangle-7" transform="translate(123.944331, 137.674855) rotate(67.000000) translate(-123.944331, -137.674855) " points="78.3351555 124.285531 169.553507 121.939759 157.513935 150.302013 101.320324 153.40995"></polygon>
                    <polygon id="Rectangle-4" transform="translate(214.623828, 376.012762) rotate(-23.000000) translate(-214.623828, -376.012762) " points="194.339732 318.152569 234.907924 291.824518 234.247332 437.309555 194.436503 460.201007"></polygon>
                </g>
            </g>
        </g>
    </g>
</svg>