<?xml version="1.0" encoding="UTF-8"?>
<svg width="420px" height="420px" viewBox="0 0 420 420" version="1.1" xmlns="http://www.w3.org/2000/svg" xmlns:xlink="http://www.w3.org/1999/xlink">
    <!-- Generator: Sketch 52.2 (67145) - http://www.bohemiancoding.com/sketch -->
    <title>Moon purple</title>
    <desc>Created with Sketch.</desc>
    <defs>
        <linearGradient x1="105.155556%" y1="29.925%" x2="105.155556%" y2="29.925%" id="linearGradient-1">
            <stop stop-color="#442445" offset="0%"></stop>
            <stop stop-color="#FFFFFF" offset="100%"></stop>
        </linearGradient>
        <circle id="path-2" cx="180.5" cy="180.55" r="180"></circle>
        <linearGradient x1="60.2211225%" y1="45.6530417%" x2="98.9303429%" y2="29.2107576%" id="linearGradient-4">
            <stop stop-color="#7C331D" offset="0%"></stop>
            <stop stop-color="#FCAA83" offset="100%"></stop>
        </linearGradient>
        <circle id="path-5" cx="180.5" cy="180.55" r="180"></circle>
        <linearGradient x1="0.25781251%" y1="49.7500002%" x2="101.257813%" y2="49.7500002%" id="linearGradient-7">
            <stop stop-color="#9D4329" offset="0%"></stop>
            <stop stop-color="#53A0FD" offset="100%"></stop>
            <stop stop-color="#B4EC51" offset="100%"></stop>
        </linearGradient>
    </defs>
    <g id="Main-Website" stroke="none" stroke-width="1" fill="none" fill-rule="evenodd">
        <g id="H.A.-Landing-Page" transform="translate(-188.000000, -2988.000000)">
            <g id="Moon-purple" transform="translate(188.000000, 2988.000000)">
                <circle id="Oval" fill="#D8D8D8" opacity="0.04" cx="210" cy="210" r="210"></circle>
                <g id="Mask" opacity="0.897298177" transform="translate(29.000000, 29.000000)" fill="url(#linearGradient-1)">
                    <circle id="path-2" cx="180.5" cy="180.55" r="180"></circle>
                </g>
                <g id="Path-Clipped" transform="translate(29.000000, 29.000000)">
                    <mask id="mask-3" fill="white">
                        <use xlink:href="#path-2"></use>
                    </mask>
                    <g id="path-2"></g>
                    <path d="M108.72,397.39 L236,351.08 C243.005096,348.530511 246.617853,340.785691 244.07,333.78 L243.73,332.84 C241.180511,325.834904 233.435691,322.222147 226.43,324.77 L186.96,339.13 C179.954309,341.677853 172.209489,338.065096 169.66,331.06 C167.112147,324.054309 170.724904,316.309489 177.73,313.76 L236,292.56 C243.005096,290.010511 246.617853,282.265691 244.07,275.26 L243.73,274.32 C241.180511,267.314904 233.435691,263.702147 226.43,266.25 L149.38,294.25 C142.374309,296.797853 134.629489,293.185096 132.08,286.18 L131.74,285.24 C129.192147,278.234309 132.804904,270.489489 139.81,267.94 L207.47,243.31 C214.475096,240.760511 218.087853,233.015691 215.54,226.01 L215.2,225.07 C212.650511,218.064904 204.905691,214.452147 197.9,217 L90.7,256 C83.714144,258.554769 75.977946,254.977337 73.4,248 C70.8521469,240.994309 74.464904,233.249489 81.47,230.7 L169.8,198.55 C176.805096,196.000511 180.417853,188.255691 177.87,181.25 L177.53,180.31 C174.980511,173.304904 167.235691,169.692147 160.23,172.24 L92.57,196.87 C85.564309,199.417853 77.819489,195.805096 75.27,188.8 L74.93,187.86 C72.382147,180.854309 75.994904,173.109489 83,170.56 L178.85,135.67 C185.855096,133.120511 189.467853,125.375691 186.92,118.37 C184.370511,111.364904 176.625691,107.752147 169.62,110.3 L36.17,158.82 C29.1643092,161.367853 21.4194886,157.755096 18.87,150.75 L18.53,149.81 C15.9821469,142.804309 19.5949042,135.059489 26.6,132.51 L103.65,104.51 C110.655096,101.960511 114.267853,94.215691 111.72,87.21 L111.38,86.27 C108.830511,79.264904 101.085691,75.652147 94.08,78.2 L73.41,85.72 C66.4043092,88.267853 58.6594886,84.655096 56.11,77.65 C53.5621469,70.6443092 57.1749042,62.8994886 64.18,60.35 L122.44,39.14 C129.445096,36.5905114 133.057853,28.8456908 130.51,21.84 L130.17,20.9 C127.620511,13.8949042 119.875691,10.2821469 112.87,12.83 L-14.4,59.1 L-237.66,140.36 C-244.665096,142.909489 -248.277853,150.654309 -245.73,157.66 L-131.84,470.58 C-129.290511,477.585096 -121.545691,481.197853 -114.54,478.65 L108.72,397.39 Z" id="Path" fill="url(#linearGradient-4)" mask="url(#mask-3)"></path>
                </g>
                <g id="Path-Clipped" transform="translate(29.000000, 29.000000)">
                    <mask id="mask-6" fill="white">
                        <use xlink:href="#path-5"></use>
                    </mask>
                    <g id="path-2"></g>
                    <path d="M529.016471,282.638621 L656.296471,236.328621 C663.301566,233.779133 666.914324,226.034312 664.366471,219.028621 L664.026471,218.088621 C661.476982,211.083526 653.732162,207.470768 646.726471,210.018621 L607.256471,224.378621 C600.25078,226.926474 592.505959,223.313717 589.956471,216.308621 C587.408618,209.30293 591.021375,201.55811 598.026471,199.008621 L656.296471,177.808621 C663.301566,175.259133 666.914324,167.514312 664.366471,160.508621 L664.026471,159.568621 C661.476982,152.563526 653.732162,148.950768 646.726471,151.498621 L569.676471,179.498621 C562.67078,182.046474 554.925959,178.433717 552.376471,171.428621 L552.036471,170.488621 C549.488618,163.48293 553.101375,155.73811 560.106471,153.188621 L627.766471,128.558621 C634.771566,126.009133 638.384324,118.264312 635.836471,111.258621 L635.496471,110.318621 C632.946982,103.313526 625.202162,99.7007679 618.196471,102.248621 L510.996471,141.248621 C504.010615,143.803391 496.274416,140.225958 493.696471,133.248621 C491.148618,126.24293 494.761375,118.49811 501.766471,115.948621 L590.096471,83.7986209 C597.101566,81.2491329 600.714324,73.5043119 598.166471,66.4986212 L597.826471,65.5586212 C595.276982,58.5535254 587.532162,54.9407681 580.526471,57.4886212 L512.866471,82.1186209 C505.86078,84.6664739 498.115959,81.0537169 495.566471,74.0486209 L495.226471,73.1086209 C492.678618,66.1029304 496.291375,58.3581098 503.296471,55.8086212 L599.146471,20.9186212 C606.151566,18.3691325 609.764324,10.624312 607.216471,3.61862123 C604.666982,-3.38647457 596.922162,-6.99923187 589.916471,-4.45137877 L456.466471,44.0686212 C449.46078,46.6164743 441.715959,43.0037169 439.166471,35.9986212 L438.826471,35.0586212 C436.278618,28.0529304 439.891375,20.3081098 446.896471,17.7586212 L523.946471,-10.2413788 C530.951566,-12.7908675 534.564324,-20.535688 532.016471,-27.5413788 L531.676471,-28.4813788 C529.126982,-35.4864746 521.382162,-39.0992319 514.376471,-36.5513788 L493.706471,-29.0313788 C486.70078,-26.4835257 478.955959,-30.096283 476.406471,-37.1013788 C473.858618,-44.1070696 477.471375,-51.8518902 484.476471,-54.4013788 L542.736471,-75.6113788 C549.741566,-78.1608675 553.354324,-85.905688 550.806471,-92.9113788 L550.466471,-93.8513788 C547.916982,-100.856475 540.172162,-104.469232 533.166471,-101.921379 L405.896471,-55.6513788 L182.636471,25.6086212 C175.631375,28.1581098 172.018618,35.9029304 174.566471,42.9086212 L288.456471,355.828621 C291.005959,362.833717 298.75078,366.446474 305.756471,363.898621 L529.016471,282.638621 Z" id="Path" fill="url(#linearGradient-7)" mask="url(#mask-6)" transform="translate(419.466471, 130.988621) scale(-1, 1) rotate(40.000000) translate(-419.466471, -130.988621) "></path>
                </g>
            </g>
        </g>
    </g>
</svg>