<?xml version="1.0" encoding="UTF-8"?>
<svg width="2458px" height="800px" viewBox="0 0 2458 800" version="1.1" xmlns="http://www.w3.org/2000/svg" xmlns:xlink="http://www.w3.org/1999/xlink">
    <!-- Generator: Sketch 50.2 (55047) - http://www.bohemiancoding.com/sketch -->
    <title>provide_logo_black-letters_white-bg</title>
    <desc>Created with Sketch.</desc>
    <defs></defs>
    <g id="provide_logo_black-letters_white-bg" stroke="none" stroke-width="1" fill="none" fill-rule="evenodd">
        <g id="Group-2" transform="translate(420.798002, 412.000000) rotate(30.000000) translate(-420.798002, -412.000000) translate(105.798002, 110.000000)" fill="#000000">
            <polygon id="Rectangle-4" points="174.373055 59.5183535 311.373055 59.5183535 378.08161 174.518354 107.664499 174.518354"></polygon>
            <polygon id="Rectangle-4" transform="translate(440.395207, 146.424820) rotate(60.000000) translate(-440.395207, -146.424820) " points="371.895207 88.9248196 508.895207 88.9248196 575.603762 203.92482 305.186652 203.92482"></polygon>
            <polygon id="Rectangle-4" transform="translate(512.438258, 332.978979) rotate(120.000000) translate(-512.438258, -332.978979) " points="443.938258 275.478979 580.938258 275.478979 647.646813 390.478979 377.229703 390.478979"></polygon>
            <polygon id="Rectangle-4" transform="translate(387.708555, 488.366025) rotate(180.000000) translate(-387.708555, -488.366025) " points="319.208555 430.866025 456.208555 430.866025 522.917111 545.866025 252.5 545.866025"></polygon>
            <polygon id="Rectangle-4" transform="translate(189.544378, 457.338463) rotate(240.000000) translate(-189.544378, -457.338463) " points="121.044378 399.838463 258.044378 399.838463 324.752933 514.838463 54.3358229 514.838463"></polygon>
            <polygon id="Rectangle-4" transform="translate(118.129140, 272.155552) rotate(300.000000) translate(-118.129140, -272.155552) " points="49.6291397 214.655552 186.62914 214.655552 253.337695 329.655552 -17.0794155 329.655552"></polygon>
        </g>
        <path d="M911.2,270.360328 C954.133548,270.360328 985.399902,278.693578 1005,295.360328 C1024.6001,312.027078 1034.4,337.626822 1034.4,372.160328 C1034.4,406.693834 1024.33343,431.960248 1004.2,447.960328 C984.066566,463.960408 953.33354,471.960328 912,471.960328 L874.8,471.960328 L874.8,549.960328 L812.4,549.960328 L812.4,270.360328 L911.2,270.360328 Z M916.8,417.960328 C937.600104,417.960328 951.733296,413.76037 959.2,405.360328 C966.666704,396.960286 970.4,384.693742 970.4,368.560328 C970.4,352.426914 965.533382,340.960362 955.8,334.160328 C946.066618,327.360294 930.933436,323.960328 910.4,323.960328 L874.8,323.960328 L874.8,417.960328 L916.8,417.960328 Z M1192.9,387.560328 C1175.03324,387.560328 1161.70004,393.893598 1152.9,406.560328 C1144.09996,419.227058 1139.7,435.960224 1139.7,456.760328 L1139.7,549.960328 L1079.7,549.960328 L1079.7,334.760328 L1139.7,334.760328 L1139.7,363.160328 C1147.43337,354.360284 1157.09994,346.893692 1168.7,340.760328 C1180.30006,334.626964 1192.09994,331.426996 1204.1,331.160328 L1204.5,387.560328 L1192.9,387.560328 Z M1291.4,442.360328 C1291.4,459.960416 1296.39995,474.293606 1306.4,485.360328 C1316.40005,496.42705 1329.19992,501.960328 1344.8,501.960328 C1360.40008,501.960328 1373.19995,496.42705 1383.2,485.360328 C1393.20005,474.293606 1398.2,459.960416 1398.2,442.360328 C1398.2,424.76024 1393.20005,410.360384 1383.2,399.160328 C1373.19995,387.960272 1360.40008,382.360328 1344.8,382.360328 C1329.19992,382.360328 1316.40005,387.960272 1306.4,399.160328 C1296.39995,410.360384 1291.4,424.76024 1291.4,442.360328 Z M1458.6,442.360328 C1458.6,473.560484 1447.80011,499.826888 1426.2,521.160328 C1404.59989,542.493768 1377.46683,553.160328 1344.8,553.160328 C1312.13317,553.160328 1285.00011,542.493768 1263.4,521.160328 C1241.79989,499.826888 1231,473.560484 1231,442.360328 C1231,411.160172 1241.79989,384.827102 1263.4,363.360328 C1285.00011,341.893554 1312.13317,331.160328 1344.8,331.160328 C1377.46683,331.160328 1404.59989,341.893554 1426.2,363.360328 C1447.80011,384.827102 1458.6,411.160172 1458.6,442.360328 Z M1558.7,549.960328 L1473.5,334.360328 L1535.9,334.360328 L1589.5,469.960328 L1643.1,334.360328 L1705.5,334.360328 L1620.3,549.960328 L1558.7,549.960328 Z M1797.6,549.960328 L1737.6,549.960328 L1737.6,334.760328 L1797.6,334.760328 L1797.6,549.960328 Z M1742.4,307.560328 C1735.7333,300.62696 1732.4,292.227044 1732.4,282.360328 C1732.4,272.493612 1735.79997,264.160362 1742.6,257.360328 C1749.40003,250.560294 1757.73328,247.160328 1767.6,247.160328 C1777.46672,247.160328 1785.79997,250.560294 1792.6,257.360328 C1799.40003,264.160362 1802.8,272.493612 1802.8,282.360328 C1802.8,292.227044 1799.40003,300.560294 1792.6,307.360328 C1785.79997,314.160362 1777.46672,317.560328 1767.6,317.560328 C1757.73328,317.560328 1749.33337,314.227028 1742.4,307.560328 Z M1942.9,553.160328 C1917.56654,553.160328 1894.9001,542.360436 1874.9,520.760328 C1854.8999,499.16022 1844.9,472.360488 1844.9,440.360328 C1844.9,408.360168 1854.63324,382.16043 1874.1,361.760328 C1893.56676,341.360226 1916.36654,331.160328 1942.5,331.160328 C1968.63346,331.160328 1989.96658,340.360236 2006.5,358.760328 L2006.5,253.160328 L2066.5,253.160328 L2066.5,549.960328 L2006.5,549.960328 L2006.5,521.560328 C1989.69992,542.6271 1968.50013,553.160328 1942.9,553.160328 Z M1905.3,442.760328 C1905.3,460.093748 1910.49995,474.293606 1920.9,485.360328 C1931.30005,496.42705 1943.43326,501.960328 1957.3,501.960328 C1971.16674,501.960328 1982.96662,496.42705 1992.7,485.360328 C2002.43338,474.293606 2007.3,460.027082 2007.3,442.560328 C2007.3,425.093574 2002.43338,410.560386 1992.7,398.960328 C1982.96662,387.36027 1971.0334,381.560328 1956.9,381.560328 C1942.7666,381.560328 1930.63338,387.426936 1920.5,399.160328 C1910.36662,410.89372 1905.3,425.426908 1905.3,442.760328 Z M2312.2,518.760328 C2287.93321,541.693776 2259.46683,553.160328 2226.8,553.160328 C2194.13317,553.160328 2167.13344,543.093762 2145.8,522.960328 C2124.46656,502.826894 2113.8,475.827164 2113.8,441.960328 C2113.8,408.093492 2124.66656,381.160428 2146.4,361.160328 C2168.13344,341.160228 2193.79985,331.160328 2223.4,331.160328 C2253.00015,331.160328 2278.13323,340.093572 2298.8,357.960328 C2319.46677,375.827084 2329.8,400.360172 2329.8,431.560328 L2329.8,463.560328 L2173,463.560328 C2174.86668,475.29372 2180.99995,484.893624 2191.4,492.360328 C2201.80005,499.827032 2213.53327,503.560328 2226.6,503.560328 C2247.66677,503.560328 2264.99993,496.493732 2278.6,482.360328 L2312.2,518.760328 Z M2269,420.760328 C2267.66666,407.960264 2262.86671,398.093696 2254.6,391.160328 C2246.33329,384.22696 2236.26673,380.760328 2224.4,380.760328 C2212.53327,380.760328 2201.66672,384.360292 2191.8,391.560328 C2181.93328,398.760364 2176.20001,408.4936 2174.6,420.760328 L2269,420.760328 Z" id="Provide" fill="#000000"></path>
    </g>
</svg>