<?xml version="1.0" encoding="UTF-8"?>
<svg width="2458px" height="800px" viewBox="0 0 2458 800" version="1.1" xmlns="http://www.w3.org/2000/svg" xmlns:xlink="http://www.w3.org/1999/xlink">
    <!-- Generator: Sketch 50.2 (55047) - http://www.bohemiancoding.com/sketch -->
    <title>provide_logo_dark-blue</title>
    <desc>Created with Sketch.</desc>
    <defs>
        <linearGradient x1="62.1451838%" y1="100%" x2="2.77692656%" y2="27.950661%" id="linearGradient-1">
            <stop stop-color="#4ECEFF" offset="0%"></stop>
            <stop stop-color="#02A2E0" offset="100%"></stop>
        </linearGradient>
        <polygon id="path-2" points="0.560820084 0 276 0 212.554479 115.203609 67.0195742 115.203609"></polygon>
    </defs>
    <g id="provide_logo_dark-blue" stroke="none" stroke-width="1" fill="none" fill-rule="evenodd">
        <g id="Logo" transform="translate(181.000000, 122.000000)">
            <g transform="translate(241.184161, 278.970004) rotate(30.000000) translate(-241.184161, -278.970004) translate(-70.315839, -17.463688)" id="blue_trapazoid">
                <g transform="translate(106.000000, 421.000000)" fill="url(#linearGradient-1)">
                    <path d="M343,115 L66,115 L0,0 L408,0 L343,115 Z" id="Combined-Shape"></path>
                </g>
                <g transform="translate(152.796461, 387.419182) rotate(60.000000) translate(-152.796461, -387.419182) translate(-51.203539, 329.919182)" fill="url(#linearGradient-1)">
                    <path d="M343,115 L66,115 L0,0 L408,0 L343,115 Z" id="Combined-Shape"></path>
                </g>
                <g transform="translate(152.796461, 205.419182) rotate(120.000000) translate(-152.796461, -205.419182) translate(-51.203539, 147.919182)" fill="url(#linearGradient-1)">
                    <path d="M343,115 L66,115 L0,0 L408,0 L343,115 Z" id="Combined-Shape"></path>
                </g>
                <g transform="translate(310.000000, 114.207885) rotate(180.000000) translate(-310.000000, -114.207885) translate(106.000000, 56.415771)" fill="url(#linearGradient-1)">
                    <path d="M343,115 L66,115 L0,0 L408,0 L343,115 Z" id="Combined-Shape"></path>
                </g>
                <g transform="translate(470.796461, 205.419182) rotate(240.000000) translate(-470.796461, -205.419182) translate(266.796461, 147.919182)" fill="url(#linearGradient-1)">
                    <path d="M343,115 L66,115 L0,0 L408,0 L343,115 Z" id="Combined-Shape"></path>
                </g>
                <g transform="translate(470.796461, 387.419182) rotate(300.000000) translate(-470.796461, -387.419182) translate(266.796461, 329.919182)" fill="url(#linearGradient-1)">
                    <path d="M343,115 L66,115 L0,0 L408,0 L343,115 Z" id="Combined-Shape"></path>
                </g>
                <g transform="translate(241.000000, 421.000000)">
                    <mask id="mask-3" fill="white">
                        <use xlink:href="#path-2"></use>
                    </mask>
                    <g id="Mask"></g>
                    <g mask="url(#mask-3)" fill="url(#linearGradient-1)" id="Combined-Shape">
                        <g transform="translate(-132.000000, 0.000000)">
                            <path d="M343,115 L66,115 L0,0 L408,0 L343,115 Z"></path>
                        </g>
                    </g>
                </g>
            </g>
        </g>
        <path d="M911.2,261.4 C954.133548,261.4 985.399902,269.73325 1005,286.4 C1024.6001,303.06675 1034.4,328.666494 1034.4,363.2 C1034.4,397.733506 1024.33343,422.99992 1004.2,439 C984.066566,455.00008 953.33354,463 912,463 L874.8,463 L874.8,541 L812.4,541 L812.4,261.4 L911.2,261.4 Z M916.8,409 C937.600104,409 951.733296,404.800042 959.2,396.4 C966.666704,387.999958 970.4,375.733414 970.4,359.6 C970.4,343.466586 965.533382,332.000034 955.8,325.2 C946.066618,318.399966 930.933436,315 910.4,315 L874.8,315 L874.8,409 L916.8,409 Z M1192.9,378.6 C1175.03324,378.6 1161.70004,384.93327 1152.9,397.6 C1144.09996,410.26673 1139.7,426.999896 1139.7,447.8 L1139.7,541 L1079.7,541 L1079.7,325.8 L1139.7,325.8 L1139.7,354.2 C1147.43337,345.399956 1157.09994,337.933364 1168.7,331.8 C1180.30006,325.666636 1192.09994,322.466668 1204.1,322.2 L1204.5,378.6 L1192.9,378.6 Z M1291.4,433.4 C1291.4,451.000088 1296.39995,465.333278 1306.4,476.4 C1316.40005,487.466722 1329.19992,493 1344.8,493 C1360.40008,493 1373.19995,487.466722 1383.2,476.4 C1393.20005,465.333278 1398.2,451.000088 1398.2,433.4 C1398.2,415.799912 1393.20005,401.400056 1383.2,390.2 C1373.19995,378.999944 1360.40008,373.4 1344.8,373.4 C1329.19992,373.4 1316.40005,378.999944 1306.4,390.2 C1296.39995,401.400056 1291.4,415.799912 1291.4,433.4 Z M1458.6,433.4 C1458.6,464.600156 1447.80011,490.86656 1426.2,512.2 C1404.59989,533.53344 1377.46683,544.2 1344.8,544.2 C1312.13317,544.2 1285.00011,533.53344 1263.4,512.2 C1241.79989,490.86656 1231,464.600156 1231,433.4 C1231,402.199844 1241.79989,375.866774 1263.4,354.4 C1285.00011,332.933226 1312.13317,322.2 1344.8,322.2 C1377.46683,322.2 1404.59989,332.933226 1426.2,354.4 C1447.80011,375.866774 1458.6,402.199844 1458.6,433.4 Z M1558.7,541 L1473.5,325.4 L1535.9,325.4 L1589.5,461 L1643.1,325.4 L1705.5,325.4 L1620.3,541 L1558.7,541 Z M1797.6,541 L1737.6,541 L1737.6,325.8 L1797.6,325.8 L1797.6,541 Z M1742.4,298.6 C1735.7333,291.666632 1732.4,283.266716 1732.4,273.4 C1732.4,263.533284 1735.79997,255.200034 1742.6,248.4 C1749.40003,241.599966 1757.73328,238.2 1767.6,238.2 C1777.46672,238.2 1785.79997,241.599966 1792.6,248.4 C1799.40003,255.200034 1802.8,263.533284 1802.8,273.4 C1802.8,283.266716 1799.40003,291.599966 1792.6,298.4 C1785.79997,305.200034 1777.46672,308.6 1767.6,308.6 C1757.73328,308.6 1749.33337,305.2667 1742.4,298.6 Z M1942.9,544.2 C1917.56654,544.2 1894.9001,533.400108 1874.9,511.8 C1854.8999,490.199892 1844.9,463.40016 1844.9,431.4 C1844.9,399.39984 1854.63324,373.200102 1874.1,352.8 C1893.56676,332.399898 1916.36654,322.2 1942.5,322.2 C1968.63346,322.2 1989.96658,331.399908 2006.5,349.8 L2006.5,244.2 L2066.5,244.2 L2066.5,541 L2006.5,541 L2006.5,512.6 C1989.69992,533.666772 1968.50013,544.2 1942.9,544.2 Z M1905.3,433.8 C1905.3,451.13342 1910.49995,465.333278 1920.9,476.4 C1931.30005,487.466722 1943.43326,493 1957.3,493 C1971.16674,493 1982.96662,487.466722 1992.7,476.4 C2002.43338,465.333278 2007.3,451.066754 2007.3,433.6 C2007.3,416.133246 2002.43338,401.600058 1992.7,390 C1982.96662,378.399942 1971.0334,372.6 1956.9,372.6 C1942.7666,372.6 1930.63338,378.466608 1920.5,390.2 C1910.36662,401.933392 1905.3,416.46658 1905.3,433.8 Z M2312.2,509.8 C2287.93321,532.733448 2259.46683,544.2 2226.8,544.2 C2194.13317,544.2 2167.13344,534.133434 2145.8,514 C2124.46656,493.866566 2113.8,466.866836 2113.8,433 C2113.8,399.133164 2124.66656,372.2001 2146.4,352.2 C2168.13344,332.1999 2193.79985,322.2 2223.4,322.2 C2253.00015,322.2 2278.13323,331.133244 2298.8,349 C2319.46677,366.866756 2329.8,391.399844 2329.8,422.6 L2329.8,454.6 L2173,454.6 C2174.86668,466.333392 2180.99995,475.933296 2191.4,483.4 C2201.80005,490.866704 2213.53327,494.6 2226.6,494.6 C2247.66677,494.6 2264.99993,487.533404 2278.6,473.4 L2312.2,509.8 Z M2269,411.8 C2267.66666,398.999936 2262.86671,389.133368 2254.6,382.2 C2246.33329,375.266632 2236.26673,371.8 2224.4,371.8 C2212.53327,371.8 2201.66672,375.399964 2191.8,382.6 C2181.93328,389.800036 2176.20001,399.533272 2174.6,411.8 L2269,411.8 Z" id="Provide" fill="#E3EAFA"></path>
    </g>
</svg>