<?xml version="1.0" encoding="UTF-8"?>
<svg width="522px" height="390px" viewBox="0 0 522 390" version="1.1" xmlns="http://www.w3.org/2000/svg" xmlns:xlink="http://www.w3.org/1999/xlink">
    <!-- Generator: Sketch 52.2 (67145) - http://www.bohemiancoding.com/sketch -->
    <title>Group 2</title>
    <desc>Created with Sketch.</desc>
    <defs>
        <linearGradient x1="50%" y1="0%" x2="50%" y2="79.425578%" id="linearGradient-1">
            <stop stop-color="#E3D6D9" offset="0%"></stop>
            <stop stop-color="#C3ACB2" offset="100%"></stop>
        </linearGradient>
        <circle id="path-2" cx="192" cy="190" r="161"></circle>
        <linearGradient x1="50%" y1="0%" x2="50%" y2="100%" id="linearGradient-4">
            <stop stop-color="#639A8B" offset="0%"></stop>
            <stop stop-color="#E4EEDC" offset="100%"></stop>
        </linearGradient>
    </defs>
    <g id="Handshakealliance.org" stroke="none" stroke-width="1" fill="none" fill-rule="evenodd">
        <g id="Desktop-HD-Copy-4" transform="translate(-45.000000, -137.000000)">
            <g id="Group-2" transform="translate(28.000000, 137.000000)">
                <g id="Rectangle-+-Rectangle-+-Rectangle-Mask" transform="translate(85.000000, 0.000000)">
                    <circle id="Oval" fill="#D8D8D8" fill-rule="nonzero" opacity="0.04" cx="195" cy="195" r="195"></circle>
                    <mask id="mask-3" fill="white">
                        <use xlink:href="#path-2"></use>
                    </mask>
                    <use id="Mask" fill="url(#linearGradient-1)" fill-rule="nonzero" xlink:href="#path-2"></use>
                    <path d="M-27.0445119,244.106866 C-27.6098129,244.599817 -28.2416288,245.01082 -28.9213992,245.327802 C-32.9257168,247.195046 -37.6855579,245.462606 -39.5528019,241.458288 L-50.5576507,217.858324 C-52.2633578,214.200423 -50.9772015,209.844826 -47.5580874,207.70022 C-17.7358062,188.994545 24.450223,166.923218 79,141.486239 C116.660778,123.92473 167.893955,91.6808301 233,63.6089403 C254.600174,54.2955548 292.203598,41.1841961 345.810271,24.2748643 C349.639319,23.067055 353.770494,24.8845142 355.467316,28.5233607 L366.566093,52.3247694 C366.886377,53.0116217 367.107439,53.7405003 367.222649,54.4895496 C367.89432,58.8564769 364.898722,62.9410676 360.531794,63.6127351 C327.219129,68.7365067 304.041865,74.1989283 291,80 C252.048388,97.325827 221.936413,128.433325 203,136 C158.594201,153.743817 120.959933,159.647117 92,173.151355 C38.0151505,198.324904 -1.66635348,221.976741 -27.0445119,244.106866 Z M75.477847,427.540881 C71.4735273,429.408126 66.7136836,427.675685 64.8464386,423.671365 L31.3175618,351.768456 C30.8750247,350.819432 30.6231041,349.792762 30.5760911,348.746686 C30.377724,344.332863 33.795026,340.593944 38.2088489,340.395577 C57.9816141,339.506945 92.9119978,327.384419 143,304.028 C177.579916,287.90312 223.915379,280.585418 277,251.86059 C304.957115,236.732605 353.730149,204.357937 423.3191,154.736586 C423.716942,154.452899 424.139939,154.206258 424.582786,153.999755 C428.587106,152.13251 433.346949,153.864951 435.214194,157.86927 L470.872333,234.338381 C472.739578,238.342701 471.007137,243.102545 467.002817,244.96979 L75.477847,427.540881 Z M5.60208618,317.445449 C1.6664905,318.999909 -2.79895099,317.220761 -4.58724347,313.385755 L-17.5527533,285.581119 C-19.0451118,282.380746 -18.2626422,278.580462 -15.6273744,276.229954 C5.3287494,257.538347 44.5378742,234.795029 102,208 C162.605473,179.739204 254.955789,141.636621 379.050948,93.6922525 C382.976538,92.1755945 387.405983,93.9596281 389.184523,97.7737203 L401.683301,124.57743 C403.372816,128.200606 402.12834,132.514815 398.76868,134.681507 C355.963801,162.286976 308.192024,188.385935 255.453349,212.978383 C201.41395,238.177369 118.130195,272.999724 5.60208618,317.445449 Z" id="Combined-Shape" fill="url(#linearGradient-4)" fill-rule="nonzero" mask="url(#mask-3)"></path>
                </g>
                <path d="M136.34262,176.516694 C51.3860552,186.9114 -5.71933109,206.257116 -5.71933109,228.405847 C-5.71933109,261.542932 122.103373,288.405847 279.780669,288.405847 C437.457965,288.405847 565.280669,261.542932 565.280669,228.405847 C565.280669,209.35732 523.042782,192.382037 457.176135,181.390849" id="Path" stroke="#C37555" stroke-width="9" fill-rule="nonzero" transform="translate(279.780669, 232.461270) rotate(-27.000000) translate(-279.780669, -232.461270) "></path>
            </g>
        </g>
    </g>
</svg>