<svg id="e92b6620-b134-4e09-9448-a9177df0ea92" data-name="Layer 1" xmlns="http://www.w3.org/2000/svg" width="100%" height="300px" viewBox="0 0 1077.38187 642.2838"><title>feeling_of_joy</title><ellipse cx="455" cy="571.2838" rx="455" ry="23" fill="#3f3d56"/><ellipse cx="899.33839" cy="610.42241" rx="178.04348" ry="9" fill="#3f3d56"/><ellipse cx="396.05573" cy="633.2838" rx="178.04348" ry="9" fill="#3f3d56"/><circle cx="393.38066" cy="612.49115" r="21.92017" fill="#6c63ff"/><circle cx="641.5315" cy="538.57706" r="31.2479" fill="#6c63ff"/><circle cx="925.70604" cy="594.23669" r="21.92017" fill="#6c63ff"/><circle cx="475.18998" cy="51.5061" r="14.76696" fill="#2f2e41"/><path d="M520.17767,176.47816a14.76752,14.76752,0,0,1,13.21254-14.68394,14.767,14.767,0,1,0,0,29.36788A14.76752,14.76752,0,0,1,520.17767,176.47816Z" transform="translate(-61.30906 -128.8581)" fill="#2f2e41"/><path d="M564.74538,198.53124c-10.32289-17.44249-30.7459-18.25539-30.7459-18.25539s-19.90106-2.54493-32.66747,24.0202c-11.89931,24.76088-28.32187,48.668-2.6439,54.46436l4.63819-14.43612,2.8724,15.51087a100.47184,100.47184,0,0,0,10.98665.18777c27.499-.88783,53.68771.25975,52.84448-9.60806C568.90889,237.297,574.67807,215.3144,564.74538,198.53124Z" transform="translate(-61.30906 -128.8581)" fill="#2f2e41"/><path d="M516.77031,231.74406s8.4339,31.86139,0,35.60979-14.05649,6.55969-14.05649,6.55969l9.371,36.54689,18.742,20.61619L554.25429,306.712l9.371-29.05009V265.47965s-18.742-2.8113-17.80489-14.9936a73.74529,73.74529,0,0,0-1.8742-22.49038Z" transform="translate(-61.30906 -128.8581)" fill="#a0616a"/><path d="M492.40572,277.66194s-11.24519,0-11.24519,6.5597,2.8113,64.65987,2.8113,64.65987l-30.2452,76.339s-14.99359,30.92428-3.74839,31.86138,12.18229-29.98719,12.18229-29.98719L504.588,362.938Z" transform="translate(-61.30906 -128.8581)" fill="#a0616a"/><path d="M572.05919,269.22805s11.24519,0,11.24519,6.55969-2.8113,64.65987-2.8113,64.65987l11.2452,84.339s14.99359,30.92428,3.74839,31.86138-12.18229-29.98718-12.18229-29.98718L559.87689,354.5041Z" transform="translate(-61.30906 -128.8581)" fill="#a0616a"/><path d="M504.588,371.3719S491.46863,381.68,486.78313,424.78657s-74.968,231.46359-42.16948,245.52008,74.03086,27.17589,78.71636,8.4339,13.11939-225.841,13.11939-225.841-17.80489,223.02969,4.6855,225.841,59.03727,7.49679,63.72277-7.4968-11.51083-284.87826-32.46275-296.12346S504.588,371.3719,504.588,371.3719Z" transform="translate(-61.30906 -128.8581)" fill="#2f2e41"/><polygon points="389.864 538.637 378.619 559.253 380.493 577.058 403.921 567.687 407.669 544.26 389.864 538.637" fill="#2f2e41"/><polygon points="498.568 535.826 509.813 556.442 507.939 574.247 484.511 564.876 480.763 541.449 498.568 535.826" fill="#2f2e41"/><circle cx="472.79759" cy="92.10932" r="26.23879" fill="#a0616a"/><path d="M534.5752,311.39752l-29.05008-41.23238-18.742,6.5597s-.9371,12.1823,2.8113,23.42749,1.8742,23.42749,6.55969,34.67268-5.62259,24.36459-1.8742,28.113,5.6226,11.24519,2.8113,14.05649,37.484-7.49679,48.72918-1.8742,29.05008,5.6226,29.05008.9371-4.68549-12.18229-1.87419-17.80489-5.6226-20.61619-5.6226-20.61619L579.556,270.16514s-9.371-7.49679-11.24519-7.49679-7.96535,2.0828-7.96535,2.0828Z" transform="translate(-61.30906 -128.8581)" fill="#2f2e41"/><polygon points="498.872 67.992 478.695 57.423 450.832 61.746 445.067 87.208 459.418 86.656 463.427 77.302 463.427 86.502 470.048 86.247 473.891 71.355 476.293 87.208 499.833 86.727 498.872 67.992" fill="#2f2e41"/><rect x="775.39107" y="384.67872" width="98" height="98" transform="matrix(0.1103, 0.9939, -0.9939, 0.1103, 1103.18479, -562.37483)" fill="#f2f2f2"/><path d="M768.5708,499.55814a22,22,0,1,1,30.75738,4.68865A22.02489,22.02489,0,0,1,768.5708,499.55814Zm33.83484-24.88379a20,20,0,1,0-4.2624,27.96125A20.02228,20.02228,0,0,0,802.40564,474.67435Z" transform="translate(-61.30906 -128.8581)" fill="#3f3d56"/><rect x="360" y="142.16988" width="10" height="346" transform="translate(-176.60868 143.07604) rotate(-35.66612)" fill="#3f3d56"/><rect x="208.43492" y="182.73717" width="235" height="156" transform="translate(-152.1986 110.08869) rotate(-35.66612)" fill="#3f3d56"/><ellipse cx="353.92184" cy="299.73374" rx="38" ry="10" transform="translate(-169.68642 133.72142) rotate(-35.66612)" opacity="0.1"/><circle cx="264.62585" cy="131.87908" r="48" fill="#6c63ff"/><path d="M356.13838,251.36963c3.22016,4.48692-2.04186,23.62119-15.50261,33.28166s-30.02294,6.18891-33.2431,1.702,8.12112-8.2901,21.58188-17.95057S352.91823,246.88271,356.13838,251.36963Z" transform="translate(-61.30906 -128.8581)" fill="#f2f2f2"/><circle cx="236.84039" cy="130.89513" r="10" fill="#f2f2f2"/><circle cx="270.96239" cy="106.40657" r="10" fill="#f2f2f2"/><circle cx="236.84039" cy="130.89513" r="4" fill="#3f3d56"/><circle cx="270.96239" cy="106.40657" r="4" fill="#3f3d56"/><path d="M136.634,654.738c12.42842,23.049,38.806,32.9435,38.806,32.9435s6.22712-27.47542-6.2013-50.52447-38.806-32.94351-38.806-32.94351S124.20559,631.68891,136.634,654.738Z" transform="translate(-61.30906 -128.8581)" fill="#2f2e41"/><path d="M145.17653,647.155c22.43841,13.49969,31.08016,40.3138,31.08016,40.3138s-27.73812,4.92678-50.17653-8.57291S95,638.58208,95,638.58208,122.73811,633.65529,145.17653,647.155Z" transform="translate(-61.30906 -128.8581)" fill="#6c63ff"/></svg>