<?xml version="1.0" encoding="UTF-8"?>
<svg width="300px" height="125px" viewBox="0 0 300 125" version="1.1" xmlns="http://www.w3.org/2000/svg" xmlns:xlink="http://www.w3.org/1999/xlink">
    <!-- Generator: Sketch 52.4 (67378) - http://www.bohemiancoding.com/sketch -->
    <title>Group</title>
    <desc>Created with Sketch.</desc>
    <g id="Page-1" stroke="none" stroke-width="1" fill="none" fill-rule="evenodd">
        <g id="Artboard" transform="translate(-126.000000, -112.000000)">
            <g id="Group" transform="translate(126.000000, 112.000000)">
                <g id="urkel">
                    <polygon id="Path-142" fill="#5D3826" points="6 18.9174722 6 3.24434389 8 3.24434389 8 1 39.7142857 1 39.7142857 3.24434389 42.2857143 3.24434389 42.2857143 18.9174722 44.2857143 18.9174722 44.2857143 30.4570136 42.2857143 30.4570136 42.2857143 44.4841629 36.2857143 44.4841629 36.2857143 48.7655507 42.2857143 48.7655507 42.2857143 51.7782805 46 51.7782805 46 81.5158371 48 81.5158371 48 87.6877828 38 87.6877828 38 107.325792 39.7142857 107.325792 39.7142857 111.253394 38 111.253394 38 119.108597 42.2857143 119.108597 42.2857143 125 26 125 26 119.108597 26 111.253394 26 107.325792 26 99.6073796 22 99.6073796 22 107.325792 22 111.253394 22 119.108597 22 125 6 125 6 119.108597 10 119.108597 10 111.253394 8 111.253394 8 107.325792 10 107.325792 10 87.6877828 1.33226763e-15 87.6877828 0 81.5158371 1.71428571 81.5158371 1.71428571 51.7782805 6 51.7782805 6 48.7655507 11.7142857 48.7655507 11.7142857 44.4841629 6 44.4841629 6 30.4570136 4 30.4570136 4 18.9174722"></polygon>
                    <rect id="Rectangle" fill="#161D24" x="10" y="78" width="28" height="22"></rect>
                    <rect id="Rectangle" fill="#161D24" x="10" y="99" width="12" height="8"></rect>
                    <rect id="Rectangle" fill="#161D24" x="26" y="99" width="12" height="8"></rect>
                    <rect id="Rectangle" fill="#100E14" x="10" y="76" width="28" height="2"></rect>
                    <rect id="Rectangle" fill="#890117" x="10" y="55" width="28" height="20"></rect>
                    <rect id="Rectangle" fill="#CC1115" x="6" y="48" width="36" height="4"></rect>
                    <rect id="Rectangle" fill="#000000" x="6" y="119" width="16" height="6"></rect>
                    <rect id="Rectangle" fill="#000000" x="26" y="119" width="17" height="6"></rect>
                    <rect id="Rectangle" fill="#0C000A" x="12" y="48" width="4" height="27"></rect>
                    <rect id="Rectangle" fill="#0C000A" x="33" y="48" width="4" height="27"></rect>
                    <rect id="Rectangle" fill="#000108" x="5" y="2" width="5" height="7"></rect>
                    <rect id="Rectangle" fill="#000108" x="38" y="2" width="5" height="7"></rect>
                    <rect id="Rectangle" fill="#331F15" x="18" y="37" width="12" height="2"></rect>
                    <rect id="Rectangle" fill="#000000" x="8" y="0" width="33" height="7"></rect>
                    <g id="Glasses" transform="translate(6.000000, 17.000000)">
                        <polygon id="Path-143" fill="#2685BF" points="0 1.0658141e-14 0 1.96203387 1.98425197 1.96203387 1.98425197 12.2857143 3.96850394 12.2857143 3.96850394 14 14.4566929 14 14.4566929 12.2857143 16.4409449 12.2857143 16.4409449 10.2857143 19.8425197 10.2857143 19.8425197 12.2857143 21.5433071 12.2857143 21.5433071 14 32.3149606 14 32.3149606 12.2857143 34.5826772 12.2857143 34.5826772 1.96203387 36 1.96203387 36 1.0658141e-14 19.8425197 1.0658141e-14 19.8425197 1.96203387 17.007874 1.96203387 17.007874 1.0658141e-14"></polygon>
                        <polygon id="Path-144" fill="#FCFAF3" points="5.1023622 1.71428571 5.1023622 11.4665376 15.023622 11.4665376 15.023622 9.75225186 17.007874 9.75225186 17.007874 1.71428571"></polygon>
                        <polygon id="Path-144" fill="#FCFAF3" transform="translate(25.795276, 6.590412) scale(-1, 1) translate(-25.795276, -6.590412) " points="19.8425197 1.71428571 19.8425197 11.4665376 29.7637795 11.4665376 29.7637795 9.75225186 31.7480315 9.75225186 31.7480315 1.71428571"></polygon>
                        <rect id="Rectangle" fill="#000209" x="21.8267717" y="1.71428571" width="3.96850394" height="8"></rect>
                        <rect id="Rectangle" fill="#000209" x="11.6220472" y="1.71428571" width="3.96850394" height="8"></rect>
                    </g>
                    <rect id="Rectangle" fill="#331F15" x="16" y="35" width="2" height="2"></rect>
                    <rect id="Rectangle" fill="#331F15" x="30" y="35" width="2" height="2"></rect>
                    <rect id="Rectangle" fill="#128CD4" x="37" y="52" width="9" height="4"></rect>
                    <rect id="Rectangle" fill="#128CD4" x="2" y="52" width="9" height="4"></rect>
                    <rect id="Rectangle" fill="#CC1115" x="15" y="48" width="18" height="27"></rect>
                    <rect id="Rectangle" fill="#128CD4" x="15" y="58" width="18" height="4"></rect>
                    <rect id="Rectangle" fill="#128CD4" x="15" y="68" width="18" height="4"></rect>
                    <rect id="Rectangle" fill="#FFE7F9" x="24" y="50" width="2" height="2"></rect>
                    <rect id="Rectangle" fill="#FFE7F9" x="24" y="53" width="2" height="2"></rect>
                    <rect id="Rectangle" fill="#F8F8FF" x="12" y="60" width="4" height="2"></rect>
                    <rect id="Rectangle" fill="#7C8584" x="12" y="76" width="4" height="2"></rect>
                    <rect id="Rectangle" fill="#7C8584" x="33" y="76" width="4" height="2"></rect>
                    <rect id="Rectangle" fill="#2D3549" x="8" y="107" width="14" height="4"></rect>
                    <rect id="Rectangle" fill="#2D3549" x="27" y="107" width="14" height="4"></rect>
                    <rect id="Rectangle" fill="#F8F8FF" x="33" y="60" width="4" height="2"></rect>
                    <rect id="Rectangle" fill="#CF0F0C" x="2" y="56" width="8" height="4"></rect>
                    <rect id="Rectangle" fill="#CF0F0C" x="38" y="56" width="8" height="4"></rect>
                    <rect id="Rectangle" fill="#1287D4" x="2" y="61" width="8" height="2"></rect>
                    <rect id="Rectangle" fill="#1287D4" x="38" y="61" width="8" height="2"></rect>
                    <rect id="Rectangle" stroke="#E7E7E7" fill="#FFFFFF" x="10" y="111" width="12" height="7"></rect>
                    <rect id="Rectangle" stroke="#E7E7E7" fill="#FFFFFF" x="26" y="111" width="12" height="7"></rect>
                </g>
                <path d="M86.84,102.88 C80.1733,102.88 75.2133496,101.426681 71.96,98.52 C68.7066504,95.6133188 67.08,91.0133648 67.08,84.72 L67.08,46.96 L74.76,46.96 L74.76,84.88 C74.76,92.346704 78.7332936,96.08 86.68,96.08 C90.8400208,96.08 93.9466564,95.1733424 96,93.36 C98.0533436,91.5466576 99.08,88.7200192 99.08,84.88 L99.08,46.96 L106.68,46.96 L106.68,84.72 C106.68,91.0133648 105.040016,95.6133188 101.76,98.52 C98.4799836,101.426681 93.5067,102.88 86.84,102.88 Z M121.82,46.96 L142.46,46.96 C148.54003,46.96 153.086652,48.3733192 156.1,51.2 C159.113348,54.0266808 160.62,58.3199712 160.62,64.08 C160.62,72.1867072 157.446698,77.5199872 151.1,80.08 L160.86,102 L152.46,102 L143.58,81.68 L129.5,81.68 L129.5,102 L121.82,102 L121.82,46.96 Z M142.54,75.04 C145.900017,75.04 148.446658,74.1200092 150.18,72.28 C151.913342,70.4399908 152.78,67.7600176 152.78,64.24 C152.78,60.773316 151.913342,58.1333424 150.18,56.32 C148.446658,54.5066576 145.87335,53.6 142.46,53.6 L129.5,53.6 L129.5,75.04 L142.54,75.04 Z M190,78.32 L181.36,78.88 L181.36,102 L173.68,102 L173.68,46.96 L181.36,46.96 L181.36,72.16 L190,71.6 L202.48,46.96 L211.2,46.96 L196.64,74.64 L211.92,102 L202.96,102 L190,78.32 Z M229.94,53.68 L229.94,70.8 L251.54,70.8 L251.54,77.44 L229.94,77.44 L229.94,95.28 L256.34,95.28 L256.34,102 L222.26,102 L222.26,46.96 L256.34,46.96 L256.34,53.68 L229.94,53.68 Z M299.56,95.2 L299.56,102 L269,102 L269,46.96 L276.68,46.96 L276.68,95.2 L299.56,95.2 Z" id="URKEL" fill="#FFFFFF"></path>
            </g>
        </g>
    </g>
</svg>
