<?xml version="1.0" encoding="UTF-8"?>
<svg width="150px" height="100%" viewBox="0 0 1004 604" version="1.1" xmlns="http://www.w3.org/2000/svg" xmlns:xlink="http://www.w3.org/1999/xlink">
    <g id="Page-1" stroke="none" stroke-width="1" fill="none" fill-rule="evenodd">
        <g id="Urkel-Labs">
            <g id="Beaker" transform="translate(316.000000, 0.000000)">
                <path d="M142.980586,155.898435 C149.981821,146.487216 166.613857,144.303605 184.712386,155.898435 C212.79393,173.888888 220.408312,146.487216 229.06407,155.898435 C234.834576,162.172582 270.506451,224.338268 336.079695,342.395493 C347.14433,361.206528 342.250398,386.322124 325.14879,398.492748 C319.18038,402.74026 312.223172,405 305.114495,405 L63.6287198,405 C43.3992364,405 27,388.376464 27,367.870294 C27,361.460744 30.032149,352.329305 33.1465502,346.751161 C36.2609515,341.173018 122.819303,182.999691 142.980586,155.898435 Z" id="Triangle" fill="#EC8C44"></path>
                <path d="M94.8983792,0 L93.0188637,2.13304695 L93.0188637,4.41825856 L93.9586215,7.38615486 L98.627228,8.80910007 L103.041345,9.81804772 L106.680334,11.0655238 L109.967428,13.0998693 C115.168607,17.0433099 118.449794,20.3397539 119.810989,22.9892014 C121.232941,25.7569072 122.127845,29.3394025 122.495702,33.7366873 L122.495702,138.852309 L10.5835924,330.049261 C5.38908742,342.294175 2.45205879,350.377637 1.7725065,354.299647 C0.753178072,360.182662 0,363.901785 0,368.034906 C0,372.168028 0.571459131,384.236093 2.79183493,390.182404 C5.01221073,396.128715 9.04166527,405.78674 13.8953809,410.764388 C17.1311913,414.08282 20.5815425,417.126798 24.2464347,419.896324 C29.7665394,423.235264 33.8500267,425.517963 36.4968966,426.744419 C40.4672014,428.584103 43.7968247,430.040635 50.0739946,431.842621 C56.3511645,433.644607 65.062787,433.606223 72.137722,433.868741 C76.8543453,434.043753 101.378363,434.043753 145.709775,433.868741 L294.334856,433.868741 L312.032483,433.868741 L314.093777,433.868741 L317.360292,433.606223 L321.3793,432.904346 L327.923992,430.930318 L333.786159,428.584103 L341.054533,425.222087 L348.424429,420.981354 L354.656326,415.274494 L362.532456,405.48729 L367.140698,396.819388 L369.583382,390.182404 L370.975184,384.912846 L372,379.687155 L372,374.564964 L372,368.034906 L372,363.901785 L371.467646,359.80788 L370.975184,356.020752 L369.583382,351.022623 L367.140698,343.884593 L365.742723,339.297034 L363.760314,334.493566 L353.724114,315.479837 L301.710925,225.235912 L253.676274,142.29452 L250.25679,137.428678 L250.25679,31.2054076 L251.326879,28.3423816 L253.676274,22.9892014 L255.856923,19.8705113 L257.851679,17.4852274 L261.598363,14.0368472 L264.810002,11.9922203 L269.307805,9.81804772 L273.690369,8.80910007 L278.127123,7.38615486 L279.422891,6.30729371 L280.451137,4.41825856 L280.451137,2.13304695 L279.422891,1.05829836 L277.215489,0 L273.690369,0 L267.265033,0 L257.851679,2.13304695 C253.806,4.48967104 250.756428,6.71502208 248.702963,8.80910007 C246.649497,10.9031781 244.35274,13.7952205 241.81269,17.4852274 L238.900127,24.0283078 L237.851303,26.1599839 L237.851303,28.3423816 L237.851303,85.3074841 L237.851303,142.29452 L250.25679,162.256193 L282.775837,219.089694 L326.02527,295.026028 L348.424429,334.493566 C349.619864,336.55188 351.029729,339.682222 352.654024,343.884593 C355.090467,350.188148 358.049743,361.504849 358.049743,368.034906 C358.049743,374.564964 357.173779,376.73708 355.915052,382.852454 C354.656326,388.967829 354.31815,389.568947 350.03505,396.819388 C345.75195,404.069828 339.984654,408.63167 335.187564,412.210638 C329.211615,416.669118 321.72159,419.538075 317.360292,419.896324 C308.38972,420.633192 280.040134,422.420099 242.967152,421.683231 C134.494033,421.720385 78.2930929,421.720385 74.3643304,421.683231 C68.4711866,421.627499 57.9864801,420.981354 54.1080932,419.896324 C50.2297063,418.811294 42.7761244,415.865331 38.0471538,413.31486 C33.3181833,410.764388 28.0040936,405.48729 25.765824,403.407706 C23.5275544,401.328123 20.8276849,398.750112 17.9335952,393.116715 C15.0395054,387.483317 14.7921061,386.884408 13.8953809,381.548773 C12.9986556,376.213138 12.6498917,373.482721 12.8541019,368.034906 C12.990242,364.40303 13.6409842,360.807055 14.8063285,357.24698 L16.9060353,350.045205 L18.8507164,345.01349 L22.2070919,337.367558 L27.3634121,328.291828 L55.4765724,278.580593 L109.008464,185.998678 L135.345688,142.29452 L135.345688,29.6021953 L134.321558,26.1599839 L132.81726,22.9892014 L130.481584,17.4852274 L124.029946,9.81804772 L116.520868,4.41825856 L109.967428,1.05829836 L103.041345,0 L94.8983792,0 Z" id="Path" fill="#D5D5D5"></path>
                <path d="M187.317,88.281751 C194.677339,88.2851774 200.641295,82.3206376 200.637868,74.9595785 C200.634442,67.5985194 194.664931,61.6284244 187.304592,61.6249981 C179.944253,61.6215717 173.980297,67.5861115 173.983724,74.9471706 C173.98811,84.371756 177.893337,88.2773641 187.317,88.281751 Z" id="Oval-Copy" fill="#EC8C44" transform="translate(187.310796, 74.953375) rotate(-48.000000) translate(-187.310796, -74.953375) "></path>
                <path d="M167.885342,123.209635 C172.726223,123.211151 176.649302,119.285341 176.647786,114.441091 C176.646269,109.596842 172.72073,105.668572 167.87985,105.667055 C163.038969,105.665539 159.115889,109.591349 159.117406,114.435599 C159.119348,120.637837 161.687417,123.207693 167.885342,123.209635 Z" id="Oval-Copy-2" fill="#EC8C44" transform="translate(167.882596, 114.438345) rotate(111.000000) translate(-167.882596, -114.438345) "></path>
                <path d="M174.20143,39.7750628 C179.04231,39.7765794 182.96539,35.8507688 182.963873,31.0065193 C182.962357,26.1622698 179.036818,22.2340001 174.195937,22.2324835 C169.355057,22.2309668 165.431977,26.1567775 165.433494,31.001027 C165.435435,37.2032654 168.003504,39.773121 174.20143,39.7750628 Z" id="Oval-Copy-5" fill="#EC8C44" transform="translate(174.198683, 31.003773) rotate(111.000000) translate(-174.198683, -31.003773) "></path>
                <rect id="Rectangle-Copy" fill="#D5D5D5" x="207" y="90" width="36" height="9" rx="4.5"></rect>
                <rect id="Rectangle-Copy-3" fill="#D5D5D5" x="207" y="53" width="36" height="9" rx="4.5"></rect>
                <rect id="Rectangle-Copy-2" fill="#D5D5D5" x="207" y="129" width="36" height="9" rx="4.5"></rect>
                <rect id="Rectangle-Copy-4" fill="#D5D5D5" x="224" y="168" width="36" height="9" rx="4.5"></rect>
            </g>
            <path d="M28.7,511.170312 C26.1333205,511.170312 24.85,512.220302 24.85,514.320312 L24.85,566.820312 C24.85,574.170349 27.2124764,579.216132 31.9375,581.957812 C36.6625236,584.699493 43.5749545,586.070312 52.675,586.070312 C61.7750455,586.070312 68.6874764,584.699493 73.4125,581.957812 C78.1375236,579.216132 80.5,574.170349 80.5,566.820312 L80.5,514.320312 C80.5,512.220302 78.7500175,511.170312 75.25,511.170312 L75.25,508.020312 L103.25,508.020312 L103.25,511.170312 C100.449986,511.170312 99.05,512.220302 99.05,514.320312 L99.05,565.945312 C99.05,572.82868 98.0583433,578.516123 96.075,583.007812 C94.0916567,587.499502 91.1166865,591.086966 87.15,593.770312 C83.1833135,596.453659 78.2541961,598.261974 72.3625,599.195312 C66.4708039,600.12865 59.6750385,600.595312 51.975,600.595312 C44.2749615,600.595312 37.4791961,600.12865 31.5875,599.195312 C25.6958039,598.261974 20.7666865,596.453659 16.8,593.770312 C12.8333135,591.086966 9.85834325,587.499502 7.875,583.007812 C5.89165675,578.516123 4.9,572.82868 4.9,565.945312 L4.9,514.320312 C4.9,512.220302 3.266683,511.170312 0,511.170312 L0,508.020312 L28.7,508.020312 L28.7,511.170312 Z M180.775,556.320312 C192.208391,556.320312 197.925,552.703682 197.925,545.470312 C197.925,542.553631 196.55418,540.249488 193.8125,538.557812 C191.07082,536.866137 186.72503,536.020312 180.775,536.020312 L153.125,536.020312 L153.125,556.320312 L180.775,556.320312 Z M181.125,523.070312 C191.508385,523.070312 199.616637,524.791129 205.45,528.232812 C211.283362,531.674496 214.2,537.536938 214.2,545.820312 C214.2,548.970328 213.616672,551.7703 212.45,554.220312 C211.283327,556.670325 209.73751,558.79947 207.8125,560.607812 C205.88749,562.416155 203.758345,563.874474 201.425,564.982812 C199.091655,566.091151 196.700012,566.936976 194.25,567.520312 L211.4,592.545312 C212.333338,593.828652 213.354161,594.791143 214.4625,595.432812 C215.570839,596.074482 216.76666,596.570311 218.05,596.920312 L218.05,600.070312 L191.275,600.070312 L191.275,596.920312 C192.791674,596.920312 193.55,596.395318 193.55,595.345312 C193.55,594.17864 192.675009,592.370325 190.925,589.920312 L177.1,569.270312 L152.775,569.270312 L152.775,594.295312 C152.775,595.22865 153.154163,595.899477 153.9125,596.307812 C154.670837,596.716148 155.399996,596.920312 156.1,596.920312 L156.1,600.070312 L132.825,600.070312 L132.825,596.920312 C134.92501,596.920312 135.975,596.045321 135.975,594.295312 L135.975,528.845312 C135.975,527.095304 134.92501,526.220312 132.825,526.220312 L132.825,523.070312 L181.125,523.070312 Z M263.025,594.295312 C263.025,596.045321 264.133322,596.920312 266.35,596.920312 L266.35,600.070312 L243.425,600.070312 L243.425,596.920312 C245.291676,596.920312 246.225,596.045321 246.225,594.295312 L246.225,528.845312 C246.225,527.095304 245.291676,526.220312 243.425,526.220312 L243.425,523.070312 L266.35,523.070312 L266.35,526.220312 C264.133322,526.220312 263.025,527.095304 263.025,528.845312 L263.025,557.370312 C266.991687,554.103629 271.074979,550.807829 275.275,547.482812 C279.475021,544.157796 283.26665,541.095326 286.65,538.295312 C290.03335,535.495298 292.833322,533.132822 295.05,531.207812 C297.266678,529.282803 298.375,528.086981 298.375,527.620312 C298.375,527.036976 298.05417,526.570314 297.4125,526.220312 C296.77083,525.870311 296.158336,525.695312 295.575,525.695312 L295.575,523.070312 L324.45,523.070312 L324.45,526.220312 C323.049993,526.686981 320.950014,528.028635 318.15,530.245312 L288.925,553.870312 L316.575,588.170312 C317.975007,589.920321 319.491659,591.69947 321.125,593.507812 C322.758342,595.316155 324.391659,596.453643 326.025,596.920312 L326.025,600.070312 L300.125,600.070312 L300.125,596.920312 C301.40834,596.920312 302.05,596.570316 302.05,595.870312 C302.05,595.403643 301.787503,594.761983 301.2625,593.945312 C300.737497,593.128642 299.716674,591.845321 298.2,590.095312 L276.675,563.845312 L263.025,574.695312 L263.025,594.295312 Z M414.05,539.345312 C414.05,537.128635 412.241685,536.020312 408.625,536.020312 L365.925,536.020312 L365.925,553.520312 L392.875,553.520312 C394.858343,553.520312 396.316662,553.374481 397.25,553.082812 C398.183338,552.791144 398.65,552.003652 398.65,550.720312 L401.8,550.720312 L401.8,569.270312 L398.3,569.270312 C398.650002,567.986973 398.18334,567.199481 396.9,566.907812 C395.61666,566.616144 393.808345,566.470312 391.475,566.470312 L365.925,566.470312 L365.925,587.120312 L410.725,587.120312 C412.125007,587.120312 413.291662,586.799482 414.225,586.157812 C415.158338,585.516143 415.625,584.670318 415.625,583.620312 L418.775,583.620312 L418.775,601.995312 L415.625,601.995312 C415.625,600.945307 415.158338,600.36198 414.225,600.245312 C413.291662,600.128645 412.125007,600.070312 410.725,600.070312 L346.5,600.070312 L346.5,596.920312 C347.083336,596.920312 347.666664,596.716148 348.25,596.307812 C348.833336,595.899477 349.125,595.22865 349.125,594.295312 L349.125,528.845312 C349.125,527.911974 348.833336,527.241148 348.25,526.832812 C347.666664,526.424477 347.083336,526.220312 346.5,526.220312 L346.5,523.070312 L408.625,523.070312 C412.241685,523.070312 414.05,522.020323 414.05,519.920312 L417.2,519.920312 L417.2,539.345312 L414.05,539.345312 Z M472.5,523.070312 L472.5,526.220312 C469.816653,526.220312 468.475,527.095304 468.475,528.845312 L468.475,587.120312 L515.725,587.120312 C517.125007,587.120312 518.291662,586.799482 519.225,586.157812 C520.158338,585.516143 520.625,584.611985 520.625,583.445312 L523.775,583.445312 L523.775,601.820312 L520.625,601.820312 C520.625,600.886974 520.158338,600.36198 519.225,600.245312 C518.291662,600.128645 517.125007,600.070312 515.725,600.070312 L447.125,600.070312 L447.125,596.920312 C450.158348,596.920312 451.675,596.045321 451.675,594.295312 L451.675,528.845312 C451.675,527.095304 450.158348,526.220312 447.125,526.220312 L447.125,523.070312 L472.5,523.070312 Z M693.7,603.395312 C693.7,601.645304 693.145839,600.653647 692.0375,600.420312 C690.929161,600.186978 689.500009,600.070312 687.75,600.070312 L604.45,600.070312 L604.45,596.920312 C607.950018,596.920312 609.7,595.870323 609.7,593.770312 L609.7,514.320312 C609.7,512.220302 607.950018,511.170312 604.45,511.170312 L604.45,508.020312 L634.55,508.020312 L634.55,511.170312 C631.283317,511.170312 629.65,512.220302 629.65,514.320312 L629.65,583.970312 L687.75,583.970312 C689.500009,583.970312 690.929161,583.561983 692.0375,582.745312 C693.145839,581.928642 693.7,580.820319 693.7,579.420312 L696.85,579.420312 L696.85,603.395312 L693.7,603.395312 Z M765.625,567.870312 L751.45,538.470312 L739.025,567.870312 L765.625,567.870312 Z M707.175,596.920312 C708.575007,596.686978 709.712496,596.016151 710.5875,594.907812 C711.462504,593.799474 712.133331,592.77865 712.6,591.845312 L738.675,534.970312 C739.375004,533.336971 739.929165,532.024484 740.3375,531.032812 C740.745835,530.041141 740.95,529.07865 740.95,528.145312 C740.95,527.445309 740.804168,527.007813 740.5125,526.832812 C740.220832,526.657812 739.900002,526.453647 739.55,526.220312 L739.55,523.070312 L765.975,523.070312 L765.975,526.220312 C765.624998,526.453647 765.245835,526.628645 764.8375,526.745312 C764.429165,526.86198 764.225,527.328642 764.225,528.145312 C764.225,528.845316 764.487497,529.691141 765.0125,530.682812 C765.537503,531.674484 766.091664,532.811973 766.675,534.095312 L795.025,593.595312 C795.608336,594.645318 796.249997,595.403643 796.95,595.870312 C797.650004,596.336981 798.408329,596.686978 799.225,596.920312 L799.225,600.070312 L774.375,600.070312 L774.375,597.445312 C774.958336,597.445312 775.57083,597.270314 776.2125,596.920312 C776.85417,596.570311 777.175,595.92865 777.175,594.995312 C777.175,594.295309 777.058335,593.653649 776.825,593.070312 C776.591666,592.486976 776.300002,591.72865 775.95,590.795312 L771.225,580.820312 L733.775,580.820312 L728.875,590.270312 C728.408331,591.20365 728.029168,592.049475 727.7375,592.807812 C727.445832,593.56615 727.3,594.236976 727.3,594.820312 C727.3,595.75365 727.591664,596.336978 728.175,596.570312 C728.758336,596.803647 729.574995,596.920312 730.625,596.920312 L730.625,600.070312 L707.175,600.070312 L707.175,596.920312 Z M870.45,553.520312 C873.250014,553.520312 875.874988,552.936985 878.325,551.770312 C880.775012,550.60364 882,548.211997 882,544.595312 C882,542.728636 881.650004,541.241151 880.95,540.132812 C880.249997,539.024474 879.375005,538.149482 878.325,537.507812 C877.274995,536.866143 876.050007,536.457813 874.65,536.282812 C873.249993,536.107812 871.850007,536.020312 870.45,536.020312 L839.3,536.020312 L839.3,553.520312 L870.45,553.520312 Z M870.1,587.120312 C875.466694,587.120312 879.141657,586.245321 881.125,584.495312 C883.108343,582.745304 884.1,580.295328 884.1,577.145312 C884.1,573.528628 882.81668,570.845321 880.25,569.095312 C877.683321,567.345304 873.366697,566.470312 867.3,566.470312 L839.3,566.470312 L839.3,587.120312 L870.1,587.120312 Z M822.5,528.845312 C822.5,527.911974 822.062504,527.241148 821.1875,526.832812 C820.312496,526.424477 819.408338,526.220312 818.475,526.220312 L818.475,523.070312 L872.9,523.070312 C877.333356,523.070312 881.154151,523.595307 884.3625,524.645312 C887.570849,525.695318 890.254156,527.12447 892.4125,528.932812 C894.570844,530.741155 896.174995,532.811967 897.225,535.145312 C898.275005,537.478657 898.8,539.928633 898.8,542.495312 C898.8,544.595323 898.450004,546.54947 897.75,548.357812 C897.049997,550.166155 896.145839,551.799472 895.0375,553.257812 C893.929161,554.716153 892.704173,556.02864 891.3625,557.195312 C890.020827,558.361985 888.650007,559.295309 887.25,559.995312 L887.25,560.170312 C888.883342,560.870316 890.516659,561.80364 892.15,562.970312 C893.783342,564.136985 895.24166,565.536971 896.525,567.170312 C897.80834,568.803654 898.858329,570.670302 899.675,572.770312 C900.491671,574.870323 900.9,577.1453 900.9,579.595312 C900.9,582.395326 900.375005,585.0203 899.325,587.470312 C898.274995,589.920325 896.612511,592.078636 894.3375,593.945312 C892.062489,595.811988 889.087518,597.299474 885.4125,598.407812 C881.737482,599.516151 877.333359,600.070312 872.2,600.070312 L818.475,600.070312 L818.475,596.920312 C819.408338,596.920312 820.312496,596.716148 821.1875,596.307812 C822.062504,595.899477 822.5,595.22865 822.5,594.295312 L822.5,528.845312 Z M936.95,573.295312 C936.95,573.761981 936.920834,574.25781 936.8625,574.782812 C936.804166,575.307815 936.775,575.861976 936.775,576.445312 C936.775,578.195321 937.883322,579.799472 940.1,581.257812 C942.316678,582.716153 944.970818,583.941141 948.0625,584.932812 C951.154182,585.924484 954.245818,586.711976 957.3375,587.295312 C960.429182,587.878649 962.849991,588.170312 964.6,588.170312 C966.233342,588.170312 968.245821,588.053647 970.6375,587.820312 C973.029179,587.586978 975.391655,587.09115 977.725,586.332812 C980.058345,585.574475 982.041659,584.524486 983.675,583.182812 C985.308342,581.841139 986.125,580.06199 986.125,577.845312 C986.125,575.278633 984.695848,573.411985 981.8375,572.245312 C978.979152,571.07864 975.391688,570.174482 971.075,569.532812 C966.758312,568.891143 962.091692,568.249482 957.075,567.607812 C952.058308,566.966143 947.391688,565.916153 943.075,564.457812 C938.758312,562.999472 935.170848,560.899493 932.3125,558.157812 C929.454152,555.416132 928.025,551.537004 928.025,546.520312 C928.025,539.053608 931.116636,533.103668 937.3,528.670312 C943.483364,524.236957 952.174944,522.020312 963.375,522.020312 C968.858361,522.020312 973.554147,522.457808 977.4625,523.332812 C981.370853,524.207817 984.666653,525.170307 987.35,526.220312 C990.033347,527.270318 992.220825,528.232808 993.9125,529.107812 C995.604175,529.982817 996.858329,530.420312 997.675,530.420312 C998.608338,530.420312 999.308331,530.274481 999.775,529.982812 C1000.24167,529.691144 1000.825,529.370314 1001.525,529.020312 L1003.45,530.945312 L994.7,547.395312 L991.55,546.345312 L991.2,544.245312 C991.083333,543.545309 990.558338,542.845316 989.625,542.145312 C987.291655,540.161969 983.675025,538.470319 978.775,537.070312 C973.874976,535.670305 968.391697,534.970312 962.325,534.970312 C959.991655,534.970312 957.775011,535.116144 955.675,535.407812 C953.57499,535.699481 951.708342,536.195309 950.075,536.895312 C948.441659,537.595316 947.158338,538.499474 946.225,539.607812 C945.291662,540.716151 944.825,542.086971 944.825,543.720312 C944.825,546.286992 946.254152,548.124474 949.1125,549.232812 C951.970848,550.341151 955.558312,551.216143 959.875,551.857812 C964.191688,552.499482 968.858308,553.141143 973.875,553.782812 C978.891692,554.424482 983.558312,555.503638 987.875,557.020312 C992.191688,558.536987 995.779152,560.753631 998.6375,563.670312 C1001.49585,566.586994 1002.925,570.611953 1002.925,575.745312 C1002.925,580.878671 1001.67085,585.078629 999.1625,588.345312 C996.654154,591.611995 993.533352,594.178636 989.8,596.045312 C986.066648,597.911988 981.954189,599.136976 977.4625,599.720312 C972.970811,600.303649 968.741687,600.595312 964.775,600.595312 C960.808314,600.595312 956.870853,600.21615 952.9625,599.457812 C949.054147,598.699475 945.495849,597.824484 942.2875,596.832812 C939.079151,595.841141 936.366678,594.907817 934.15,594.032812 C931.933322,593.157808 930.591669,592.720312 930.125,592.720312 C929.308329,592.720312 928.608336,593.070309 928.025,593.770312 L925.575,592.020312 L933.625,572.420312 L936.95,573.295312 Z" id="UrkelLabs" fill="#D5D5D5" fill-rule="nonzero"></path>
        </g>
    </g>
</svg>
