<svg width="37px" height="33px" viewBox="0 0 40 36" version="1.1" xmlns="http://www.w3.org/2000/svg" xmlns:xlink="http://www.w3.org/1999/xlink">
    <g stroke="none" stroke-width="1" fill="none" fill-rule="evenodd">
        <g transform="translate(1.696203, 1.160094)" stroke="#000000" stroke-width="2">
            <polygon points="8.25731669 4.19747207 8.25731669 0 0 0 0 32.7533518 4.56711892 32.7533518 4.56711892 24.6762379 8.25731669 24.6762379 8.25731669 32.7533518 12.4501682 32.7533518 12.4501682 24.6762379 16.590543 24.6762379 16.590543 32.7533518 20.5998912 32.7533518 20.5998912 24.6762379 24.7198035 24.6762379 24.7198035 32.7533518 28.8459865 32.7533518 28.8459865 24.6762379 33.1543526 24.6762379 33.1543526 20.6286049 36.8953768 20.6286049 36.8953768 8.10681761 33.1543526 8.10681761 33.1543526 0 28.8459865 0 28.8459865 4.19747207 20.5998912 4.19747207 20.5998912 0 16.590543 0 16.590543 8.10681761 12.4501682 8.10681761 12.4501682 12.2551134 4.56711892 12.2551134 4.56711892 4.19747207"></polygon>
            <polygon points="24.6204609 16.3766759 24.6204609 12.4214545 20.6025316 12.4214545 20.6025316 16.3766759"></polygon>
            <polygon points="32.921563 16.4147886 32.921563 12.6889822 28.9036337 12.6889822 28.9036337 16.4147886"></polygon>
        </g>
    </g>
</svg>