<?xml version="1.0" standalone="no"?>
<!DOCTYPE svg PUBLIC "-//W3C//DTD SVG 20010904//EN"
 "http://www.w3.org/TR/2001/REC-SVG-20010904/DTD/svg10.dtd">
<svg version="1.0" xmlns="http://www.w3.org/2000/svg"
 width="513.000000pt" height="513.000000pt" viewBox="0 0 513.000000 513.000000"
 preserveAspectRatio="xMidYMid meet">
<metadata>
Created by potrace 1.11, written by Peter Selinger 2001-2013
</metadata>
<g transform="translate(0.000000,513.000000) scale(0.100000,-0.100000)"
fill="#000000" stroke="none">
<path d="M1444 4653 c-20 -38 -43 -78 -50 -90 -7 -11 -26 -45 -42 -75 -16 -29
-116 -208 -222 -398 -106 -190 -206 -370 -223 -400 -27 -50 -135 -242 -184
-330 -11 -19 -35 -62 -53 -95 -18 -33 -87 -157 -153 -275 -130 -233 -148 -265
-197 -355 -18 -33 -49 -89 -70 -125 -56 -98 -90 -160 -90 -165 0 -3 108 -5
239 -5 l239 0 149 281 c127 242 152 283 178 293 23 9 248 12 908 11 482 0 877
3 877 6 0 4 -51 97 -113 206 l-114 198 -620 0 c-596 0 -622 1 -642 19 -12 11
-21 31 -21 47 0 17 71 153 186 361 103 183 260 464 349 623 89 160 167 300
174 313 l12 22 -240 0 -240 0 -37 -67z"/>
<path d="M2005 4518 c-151 -272 -364 -654 -470 -844 l-112 -202 235 2 236 1
26 45 c14 25 44 79 67 120 22 41 103 188 180 325 77 138 142 258 146 268 5 13
-27 75 -109 213 -64 107 -120 194 -123 194 -4 0 -38 -55 -76 -122z"/>
<path d="M3014 3909 c-2 -4 47 -97 109 -207 l112 -201 243 -1 c133 0 242 2
242 5 0 2 -54 94 -121 205 -75 123 -127 200 -138 201 -64 5 -444 3 -447 -2z"/>
<path d="M2795 3687 c-49 -89 -103 -189 -121 -222 l-32 -61 113 -199 c63 -110
118 -201 122 -202 5 -2 46 68 93 154 46 87 99 184 117 216 l32 58 -116 207
c-64 114 -117 208 -118 209 -1 2 -41 -70 -90 -160z"/>
<path d="M3249 3362 c-8 -1 -81 -127 -163 -278 -84 -155 -159 -280 -170 -286
-14 -8 -293 -11 -913 -11 l-893 0 19 -31 c10 -17 62 -107 116 -201 53 -93 101
-174 106 -179 5 -5 265 -9 620 -8 667 2 649 4 663 -54 7 -26 -19 -78 -181
-364 -11 -19 -113 -204 -228 -410 -115 -206 -216 -388 -226 -405 -47 -80 -78
-144 -71 -148 6 -4 446 -2 464 2 4 0 21 27 38 58 17 32 39 71 48 87 9 16 52
93 95 170 44 78 91 164 107 191 15 28 84 151 152 275 69 124 137 245 150 270
50 89 422 756 451 810 17 30 50 90 74 133 24 42 55 97 68 122 38 68 69 123
108 193 30 52 33 62 19 63 -43 3 -440 4 -453 1z"/>
<path d="M3787 3257 c-9 -15 -17 -28 -17 -30 0 -2 -42 -79 -93 -171 l-94 -169
69 -166 c39 -91 110 -262 159 -380 50 -117 87 -216 84 -219 -3 -4 -59 -7 -124
-8 -238 -4 -614 -14 -617 -16 -1 -2 -47 -85 -102 -185 l-101 -183 561 -2 561
-3 59 -140 c32 -77 65 -153 72 -170 13 -28 165 -387 244 -575 19 -47 37 -87
39 -90 3 -3 112 -5 244 -5 170 -1 239 2 239 10 0 7 -39 94 -86 196 -47 101
-95 204 -106 229 -11 25 -35 78 -54 118 -19 39 -46 98 -60 130 -15 31 -44 95
-66 142 -36 76 -429 925 -498 1075 -116 251 -221 478 -270 584 l-26 54 -17
-26z"/>
<path d="M3489 2687 c-30 -51 -54 -97 -54 -103 0 -6 42 -100 94 -208 l95 -196
97 0 98 0 -18 43 c-10 23 -27 62 -39 87 -11 25 -50 113 -87 195 -36 83 -75
169 -86 192 -10 24 -19 47 -19 52 0 5 -6 13 -13 19 -10 9 -25 -9 -68 -81z"/>
<path d="M947 2628 c-58 -107 -94 -174 -147 -275 l-43 -82 33 -58 c44 -77 61
-107 99 -177 18 -32 46 -81 62 -108 16 -27 29 -53 29 -58 0 -25 18 -5 48 53
38 74 132 251 173 326 l30 54 -117 204 c-64 111 -118 203 -119 203 -2 0 -24
-37 -48 -82z"/>
<path d="M2131 2230 l-153 -5 -209 -375 c-114 -206 -208 -383 -209 -392 0 -18
223 -391 236 -395 5 -1 16 12 25 30 8 18 47 88 85 157 39 69 86 152 104 185
18 33 52 94 75 135 23 41 57 102 75 135 134 243 274 492 283 503 5 7 7 15 5
18 -8 8 -146 10 -317 4z"/>
<path d="M179 2202 c-26 -3 -25 -5 65 -153 50 -83 103 -171 117 -196 14 -24
32 -49 40 -54 8 -5 117 -9 242 -9 l229 0 -33 58 c-63 110 -112 197 -147 262
-19 36 -40 71 -47 78 -10 11 -62 14 -226 15 -118 1 -226 1 -240 -1z"/>
<path d="M2902 1635 c-48 -72 -128 -221 -122 -225 6 -4 893 -5 960 -1 13 1
135 196 143 228 3 13 -973 11 -981 -2z"/>
<path d="M3968 1580 c-48 -78 -88 -149 -88 -156 0 -5 -9 -20 -18 -32 -18 -24
-17 -26 65 -220 47 -109 88 -206 94 -217 5 -11 56 -130 113 -264 100 -235 104
-243 118 -220 9 13 42 72 75 130 l60 106 -148 329 c-82 181 -160 357 -175 391
-15 34 -39 88 -54 120 l-27 57 -15 -24z"/>
<path d="M4510 670 c-4 -3 -19 -25 -33 -50 -56 -102 -107 -200 -107 -205 0 -3
100 -5 223 -5 l223 0 72 126 c40 70 70 130 67 133 -7 7 -434 8 -445 1z"/>
</g>
</svg>
