<!-- HA Logo -->
<svg xmlns="http://www.w3.org/2000/svg" width="100%" height="100%" viewBox="0 0 262 234">
  <path fill="#fff" d="M212.662994,162.364009 L151.941113,162.364009 L163.009232,142.22522 L203.708618,141.337377 L203.737718,141.337377 C203.721852,141.299999 203.705986,141.262621 203.69012,141.225243 C199.750169,131.9433 193.930359,118.027891 186.23069,99.479015 L198.169803,77.9494999 L261.988919,215.850348 L235.354174,215.821078 C227.820106,198.071927 220.25638,180.252904 212.662994,162.364009 Z M122.311579,201.785987 C121.721311,202.845601 120.954681,202.845601 120.706336,202.845601 L110.743754,202.845601 C105.470927,202.841984 99.388281,202.838368 95.7674863,202.838368 L134.512864,133.175062 C135.15712,132.017805 135.142723,130.607396 134.473272,129.464604 C133.803821,128.321812 132.587292,127.620225 131.269985,127.620225 L131.266386,127.620225 L65.2318821,127.707019 L52.1020043,104.937971 L148.283399,104.937971 C148.290597,104.937971 148.297796,104.934355 148.308593,104.934355 C148.319391,104.934355 148.326589,104.937971 148.333788,104.937971 C148.387776,104.937971 148.438164,104.919889 148.492152,104.916272 C148.708104,104.901807 148.924056,104.880108 149.129211,104.829478 C149.287575,104.793314 149.442341,104.742684 149.597107,104.684821 C149.679888,104.652273 149.75907,104.619725 149.838253,104.583561 C150.558093,104.261698 151.195151,103.733699 151.60186,102.985099 L167.456332,73.6305301 L193.629707,73.6305301 L122.311579,201.785987 Z M89.3141226,199.138759 C88.4719101,197.75005 87.3777538,195.945451 86.1864188,193.981729 C82.1805103,187.360044 77.0480528,178.88313 76.4685817,177.953708 C76.2742246,177.639078 76.1842448,176.872395 76.5909543,176.141876 C77.5195474,174.471085 95.0548452,142.838165 99.327094,135.127935 L124.931796,135.095387 L89.3141226,199.138759 Z M45.6486406,155.542686 L32.9218731,132.896597 L45.7494182,108.814785 L58.6165546,131.124546 C54.6178447,138.664804 48.3768335,150.425437 45.6486406,155.542686 Z M28.5668423,159.068706 C22.0882841,159.068706 15.645718,159.06509 14.6991286,159.06509 L14.6955294,159.06509 C14.0620704,159.06509 13.295441,158.620269 12.9463188,158.048873 L8.8036407,151.210203 C5.85229756,146.335254 2.08753541,140.118609 0,136.679384 L26.5116997,136.679384 L39.0944993,159.072323 C36.3483105,159.072323 32.4611756,159.068706 28.5668423,159.068706 Z M71.6132622,1.06323064 C72.2035306,0 72.9665611,0 73.2149055,0 L98.261731,0.00361643 L59.4119774,69.6669219 C59.3795847,69.7247847 59.3615889,69.7862642 59.3327953,69.8477436 C59.2752079,69.9634692 59.2248193,70.0828115 59.1780295,70.20577 C59.1384383,70.3251123 59.1024467,70.4408383 59.0700535,70.5601801 C59.0412599,70.6722899 59.0160657,70.7843992 58.9980699,70.8965085 C58.9764744,71.0375492 58.9620778,71.1749736 58.9584786,71.3123981 C58.9548794,71.3738771 58.9404824,71.4317403 58.9404824,71.4968361 C58.9404824,71.5438496 58.9512801,71.5872465 58.9548794,71.6342601 C58.9584786,71.7716845 58.9728751,71.9054927 58.9944706,72.0393005 C59.0088672,72.1514098 59.0268634,72.2635191 59.0556569,72.3756284 C59.0844505,72.4949706 59.1240417,72.60708 59.163633,72.722806 C59.2032242,72.8349153 59.2428151,72.9506408 59.2932041,73.0591339 C59.3435926,73.1676269 59.4011801,73.268887 59.4623664,73.3737634 C59.5235527,73.4750235 59.5811398,73.5762836 59.6531238,73.673927 C59.7215086,73.7715708 59.8006912,73.8619817 59.8834725,73.9560088 C59.962655,74.042803 60.0418376,74.1332139 60.1282182,74.2163918 C60.2145987,74.2959534 60.304579,74.3646654 60.3981581,74.4369941 C60.5025349,74.5201721 60.6069117,74.596117 60.718487,74.664829 C60.7616771,74.6901442 60.7940699,74.7226922 60.8372604,74.7480069 C60.8804509,74.7733221 60.9272402,74.780555 60.97403,74.8022535 C61.1647874,74.8998973 61.3663425,74.9830752 61.5786954,75.048171 C61.6542787,75.0698694 61.7262627,75.0988008 61.8054448,75.116883 C62.0753847,75.1819787 62.3525232,75.2217598 62.6440581,75.2217598 C62.6476574,75.2217598 62.6476574,75.225376 62.6512566,75.225376 L62.6548559,75.225376 L62.6584551,75.225376 L64.303289,75.2217598 C64.3104875,75.2217598 64.317686,75.225376 64.324884,75.225376 L64.3284833,75.225376 L128.703756,75.1385818 C130.406178,78.104055 133.587869,83.6842076 136.298066,88.4361977 C138.378403,92.0887927 140.09882,95.1012794 141.452119,97.470041 L45.6558391,97.470041 C45.6126486,97.470041 45.5730573,97.484507 45.5334665,97.488123 C44.2305562,97.509822 42.9744359,98.20056 42.3121832,99.440996 L26.4541125,129.211454 L0.29873352,129.211454 C11.7153927,108.691826 70.8502321,2.43024146 71.6132622,1.06323064 Z M167.413141,66.1662168 L154.826742,43.7732779 L179.211316,43.7805108 C179.862771,43.7805108 180.622202,44.2144822 180.978523,44.8003443 C181.367236,45.4404525 183.346795,48.7097055 185.725866,52.6371494 C188.572832,57.3385096 191.977675,62.9584428 193.924841,66.1662168 L167.413141,66.1662168 Z M104.664706,3.79363585 L106.989789,7.6270525 C111.07488,14.3753122 116.844396,23.9009908 117.456259,24.8918928 C117.650617,25.2065223 117.740596,25.9695892 117.330288,26.7037246 L94.5941475,67.7176659 L69.0002439,67.7502135 L104.664706,3.79363585 Z M148.265403,47.2775992 L160.999369,69.9345378 L148.017058,93.96572 C146.469403,91.2606298 144.54743,87.8901166 142.744232,84.7257395 C139.181025,78.4729306 136.582403,73.9198445 135.117529,71.3738771 C137.885313,66.300025 145.202484,52.8758339 148.265403,47.2775992 Z M236.343542,219.654556 L261.178979,219.69539 L253.115921,234.000007 L228.631955,233.959752 L236.343542,219.654556 Z M149.565759,166.872982 L202.921354,166.872982 L195.434042,179.863094 L141.944987,179.863094 L149.565759,166.872982 Z M184.383898,104.938874 L199.016915,137.821349 L188.519989,137.875828 L177.837681,116.057141 L184.383898,104.938874 Z M200.42157,182.077707 L207.923869,169.02495 L229.798256,217.904631 L221.76409,232.074171 L200.42157,182.077707 Z" />
</svg>
