<?xml version="1.0" encoding="UTF-8"?>
<svg width="1013px" height="1129px" viewBox="0 0 1013 1129" version="1.1" xmlns="http://www.w3.org/2000/svg" xmlns:xlink="http://www.w3.org/1999/xlink">
    <!-- Generator: Sketch 52.2 (67145) - http://www.bohemiancoding.com/sketch -->
    <title>Mars</title>
    <desc>Created with Sketch.</desc>
    <defs>
        <linearGradient x1="50%" y1="-3.69678442%" x2="50%" y2="100%" id="linearGradient-1">
            <stop stop-color="#7C331D" offset="0%"></stop>
            <stop stop-color="#9D4329" offset="100%"></stop>
        </linearGradient>
        <linearGradient x1="50%" y1="0%" x2="50%" y2="100%" id="linearGradient-2">
            <stop stop-color="#E4EEDC" offset="0%"></stop>
            <stop stop-color="#C5D8B7" offset="100%"></stop>
        </linearGradient>
    </defs>
    <g id="Main-Website" stroke="none" stroke-width="1" fill="none" fill-rule="evenodd">
        <g id="H.A.-Landing-Page" transform="translate(-214.000000, -428.000000)">
            <g id="Mars" transform="translate(215.000000, 413.000000)">
                <g id="astronaut-and-flag" opacity="0.595447359" transform="translate(604.862051, 121.843017) rotate(5.000000) translate(-604.862051, -121.843017) translate(469.862051, 12.343017)" fill="#FFFFFF">
                    <path d="M82.59426,82.7262785 C95.7887318,82.7262785 106.523565,72.3944873 106.523565,59.6949301 C106.523565,48.0852191 97.3545776,40.8728754 82.59426,40.8728754 C67.8345636,40.8728754 58.6655764,48.0846066 58.6655764,59.6949301 C58.6649554,72.3938748 69.3997884,82.7262785 82.59426,82.7262785 Z M82.59426,45.7738141 C99.7067624,45.7738141 101.554597,55.5095285 101.554597,59.6949301 C101.554597,69.6916197 93.0489673,77.8253398 82.59426,77.8253398 C72.1395526,77.8253398 63.6345439,69.6922322 63.6345439,59.6949301 C63.6339226,55.5095285 65.4817575,45.7738141 82.59426,45.7738141 Z" id="Shape" fill-rule="nonzero"></path>
                    <path d="M84.4383946,52.3192753 C85.4111246,52.3192753 86.3715139,52.3694094 87.2927039,52.4689514 C87.3986878,52.4805768 87.5039458,52.4856629 87.6077521,52.4856629 C89.0719287,52.4856629 90.3299444,51.3805289 90.4910981,49.8917591 C90.6631407,48.2954544 89.509657,46.8619048 87.9155412,46.6904308 C86.7881907,46.5683648 85.6180111,46.5066053 84.4383946,46.5066053 C82.8348418,46.5066053 81.5347227,47.8079167 81.5347227,49.4129403 C81.5347227,51.0179636 82.8348418,52.3192753 84.4383946,52.3192753 Z" id="Path"></path>
                    <path d="M92.075435,52.6936441 C94.1878391,53.9293419 95.4496332,56.0968071 95.4501979,58.4910056 C95.4501979,59.6835164 96.4617797,60.6498335 97.7094536,60.6498335 C97.7094536,60.6498335 97.7100183,60.6498335 97.7100183,60.6498335 C98.9576922,60.6492935 99.9692737,59.6824366 99.9687089,58.4899261 C99.9675795,54.5803913 97.8986661,51.0363295 94.4346624,49.0092233 C93.3699885,48.3873256 91.9794166,48.706912 91.3281864,49.7239739 C90.6763911,50.7410361 91.0113255,52.0706664 92.075435,52.6936441 Z" id="Path"></path>
                    <path d="M266.957232,0.630575127 L163.606874,0.630575127 C162.239877,0.630575127 161.13155,1.74843894 161.13155,3.12720006 L161.13155,77.3674629 C160.353061,77.2326454 159.555388,77.1577466 158.742863,77.1577466 L109.603963,77.1577466 C113.465469,71.8973577 115.753906,65.3948982 115.753906,58.36253 C115.753906,40.9073766 101.67488,26.7065742 84.3686505,26.7065742 C67.0630399,26.7065742 52.9833953,40.9073766 52.9833953,58.36253 C52.9833953,65.3955224 55.2718327,71.8979819 59.1333386,77.1577466 L55.3238146,77.1577466 C49.7561912,77.1577466 44.3049085,79.4352925 40.3679052,83.4061745 L4.27643973,119.801973 C-1.11667301,125.249608 -1.11605418,134.107009 4.2776774,139.547155 C6.89595165,142.18796 10.3725446,143.642868 14.0669661,143.642868 C17.7681946,143.642868 21.2454064,142.18796 23.8556359,139.547779 L45.3364997,117.887061 L45.3364997,194.827424 C39.4353268,195.587022 34.8596898,200.683882 34.8596898,206.838062 L34.8596898,216.369552 C34.8596898,217.748313 35.9680165,218.866177 37.3350141,218.866177 L78.2645008,218.866177 C79.5826112,218.866177 80.6692786,217.824461 80.7367311,216.49688 L83.2714631,166.437054 L86.1911081,166.437054 L88.7258401,216.49688 C88.7926738,217.824461 89.87996,218.866177 91.1980704,218.866177 L131.397336,218.866177 C132.764334,218.866177 133.872661,217.748313 133.872661,216.369552 L133.872661,206.838062 C133.872661,201.017806 129.781568,196.143145 124.34885,194.989081 L124.34885,105.082496 L159.015767,105.082496 C159.731755,105.082496 160.438459,105.028195 161.132169,104.921464 L161.132169,216.369552 C161.132169,217.748313 162.240496,218.866177 163.607493,218.866177 C164.974491,218.866177 166.082818,217.748313 166.082818,216.369552 L166.082818,103.129511 C167.131118,102.49849 168.105776,101.724536 168.978947,100.811395 C171.609598,98.0594904 172.982784,94.4368876 172.844785,90.6145547 C172.678319,85.8303974 169.987642,81.6242084 166.082818,79.237435 L166.082818,76.0099233 L266.957851,76.0099233 C268.324849,76.0099233 269.433175,74.8920593 269.433175,73.5132981 L269.433175,3.12720006 C269.432556,1.74843894 268.32423,0.630575127 266.957232,0.630575127 Z M156.266919,100.089247 L137.701987,100.089247 L137.701987,82.1509963 L156.266919,82.1509963 L156.266919,100.089247 Z M93.9122632,103.605118 C93.5712873,102.637676 92.6647,101.941118 91.5885527,101.941118 L77.1493672,101.941118 C75.7823696,101.941118 74.6740432,103.058982 74.6740432,104.437743 L74.6740432,107.142212 L64.7028182,107.142212 C61.5003674,107.142212 58.8950886,104.514514 58.8950886,101.284506 L58.8950886,82.1509963 L63.6965989,82.1509963 C69.2227602,87.0425088 76.4556576,90.0178615 84.3686505,90.0178615 C90.2048463,90.0178615 95.6703623,88.3981761 100.356151,85.5876005 L100.356151,97.9465182 C100.356151,101.066675 97.8393653,103.605118 94.7458288,103.605118 L93.9122632,103.605118 Z M91.7581123,178.501994 L119.397583,178.501994 L119.397583,182.662619 L91.9691338,182.662619 L91.7581123,178.501994 Z M119.397583,140.215002 C115.141263,140.137607 111.701181,136.626728 111.701181,132.316305 C111.701181,125.203421 105.963998,119.417492 98.9117994,119.417492 L94.0632581,119.417492 L94.0632581,116.525152 L119.396964,116.525152 L119.396964,140.215002 L119.397583,140.215002 Z M89.1132284,106.934368 L89.1132284,124.82643 L79.6246916,124.82643 L79.6246916,106.934368 L89.1132284,106.934368 Z M84.3686505,31.699824 C98.9445977,31.699824 110.803257,43.66053 110.803257,58.36253 C110.803257,73.0639059 98.9445977,85.0246115 84.3686505,85.0246115 C69.7927037,85.0246115 57.934044,73.0639059 57.934044,58.36253 C57.934044,43.66053 69.7927037,31.699824 84.3686505,31.699824 Z M22.1049628,134.251814 L9.52845901,121.566462 L23.3562392,107.622188 L35.9333619,120.307539 L22.1049628,134.251814 Z M7.77840473,136.016927 C4.92126172,133.134574 4.42681569,128.761735 6.28145239,125.353842 L18.3573218,137.533627 C17.0583954,138.259521 15.5936223,138.649619 14.0663472,138.649619 C11.6943677,138.649619 9.46100641,137.714632 7.77840473,136.016927 Z M39.4340891,116.777312 L26.8569665,104.09196 L43.8686327,86.9370262 C46.5574536,84.2244432 50.1695706,82.5479597 53.94444,82.2159085 L53.94444,101.28513 C53.94444,107.268291 58.7707036,112.136086 64.7028182,112.136086 L74.6740432,112.136086 L74.6740432,127.32368 C74.6740432,128.702441 75.7823696,129.820304 77.1493672,129.820304 L91.5885527,129.820304 C92.9555506,129.820304 94.063877,128.702441 94.063877,127.32368 L94.063877,124.411366 L98.9124182,124.411366 C103.234334,124.411366 106.751151,127.957822 106.751151,132.316929 C106.751151,139.38113 112.412218,145.130857 119.398202,145.208876 L119.398202,149.377616 L50.2865295,149.377616 L50.2865295,122.746742 L51.2624263,122.746742 C55.1301204,122.746742 58.2756388,125.919952 58.2756388,129.820304 C58.2756388,136.474434 63.6427605,141.887741 70.2394996,141.887741 L77.3758596,141.887741 C78.3987873,144.79194 81.1426841,146.880991 84.3686505,146.880991 C88.4634557,146.880991 91.7946235,143.521158 91.7946235,139.391116 C91.7946235,135.261074 88.4634557,131.901241 84.3686505,131.901241 C81.1426841,131.901241 78.3987873,133.990292 77.3758596,136.894491 L70.2394996,136.894491 C66.3724243,136.894491 63.2262871,133.721281 63.2262871,129.820304 C63.2262871,123.166799 57.8591654,117.753492 51.2624263,117.753492 L50.2865295,117.753492 L50.2865295,111.861457 C50.2865295,110.851572 49.6831692,109.941553 48.7586357,109.5552 C47.8341019,109.168847 46.7690939,109.382309 46.061151,110.095719 L39.4340891,116.777312 Z M77.4921997,182.662619 L50.2865295,182.662619 L50.2865295,178.501994 L77.7026023,178.501994 L77.4921997,182.662619 Z M81.8933262,139.390492 C81.8933262,138.013603 83.0035092,136.893867 84.3686505,136.893867 C85.7337919,136.893867 86.8439748,138.013603 86.8439748,139.390492 C86.8439748,140.76738 85.7337919,141.887117 84.3686505,141.887117 C83.0035092,141.887117 81.8933262,140.76738 81.8933262,139.390492 Z M46.8285015,199.725178 L60.5442734,199.725178 C61.911271,199.725178 63.0195977,198.607314 63.0195977,197.228553 C63.0195977,195.849792 61.911271,194.731928 60.5442734,194.731928 L50.2865295,194.731928 L50.2865295,187.655869 L77.239098,187.655869 L76.312089,205.964868 L39.8685086,205.964868 C40.2961209,202.4646 43.248564,199.743903 46.8285015,199.725178 Z M55.1196001,210.958118 L55.1196001,213.872927 L49.1379791,213.872927 L49.1379791,210.958118 L55.1196001,210.958118 Z M60.0702487,210.958118 L66.0524886,210.958118 L66.0524886,213.872927 L60.0702487,213.872927 L60.0702487,210.958118 Z M39.8097196,210.958118 L44.1873307,210.958118 L44.1873307,213.872927 L39.8097196,213.872927 L39.8097196,210.958118 Z M71.0031372,213.872927 L71.0031372,210.958118 L76.0596058,210.958118 L75.9117052,213.872927 L71.0031372,213.872927 Z M80.9186675,161.443804 C79.6005574,161.443804 78.51389,162.485521 78.4464372,163.813101 L77.9557043,173.508744 L50.2865295,173.508744 L50.2865295,154.370241 L119.397583,154.370241 L119.397583,173.508744 L91.5056291,173.508744 L91.0148963,163.813101 C90.9480626,162.485521 89.8607764,161.443804 88.542666,161.443804 L80.9186675,161.443804 Z M93.4017276,210.958118 L97.818944,210.958118 L97.818944,213.872927 L93.5496283,213.872927 L93.4017276,210.958118 Z M119.684721,210.958118 L119.684721,213.872927 L113.702481,213.872927 L113.702481,210.958118 L119.684721,210.958118 Z M108.751832,213.872927 L102.769592,213.872927 L102.769592,210.958118 L108.751832,210.958118 L108.751832,213.872927 Z M124.635369,213.872927 L124.635369,210.958118 L128.921393,210.958118 L128.921393,213.872927 L124.635369,213.872927 Z M128.862604,205.964868 L93.1492447,205.964868 L92.2222355,187.655869 L119.398202,187.655869 L119.398202,194.731928 L107.92198,194.731928 C106.554982,194.731928 105.446656,195.849792 105.446656,197.228553 C105.446656,198.607314 106.554982,199.725178 107.92198,199.725178 L121.909418,199.725178 C125.485643,199.743903 128.435611,202.4646 128.862604,205.964868 Z M121.872908,100.089247 C120.50591,100.089247 119.397583,101.20711 119.397583,102.585871 L119.397583,111.531903 L94.063877,111.531903 L94.063877,108.598368 L94.7458288,108.598368 C100.569648,108.598368 105.3068,103.819828 105.3068,97.9465182 L105.3068,82.1509963 L132.751339,82.1509963 L132.751339,100.089247 L121.872908,100.089247 Z M165.41448,97.3454555 C164.247365,98.5663052 162.799919,99.3983054 161.217568,99.803383 L161.217568,82.4986513 C164.939837,83.5428647 167.760469,86.8621275 167.89723,90.7936876 C167.985104,93.2509909 167.103889,95.5784694 165.41448,97.3454555 Z M264.481908,71.0166733 L166.082199,71.0166733 L166.082199,5.62382498 L264.481908,5.62382498 L264.481908,71.0166733 Z" id="Shape" fill-rule="nonzero"></path>
                </g>
                <g id="Group-2" transform="translate(95.000000, 213.000000)">
                    <ellipse id="Oval" fill="url(#linearGradient-1)" cx="413" cy="412.5" rx="413" ry="412.5"></ellipse>
                    <ellipse id="Oval" fill="url(#linearGradient-2)" opacity="0.294201079" cx="453.402174" cy="101.630435" rx="40.4021739" ry="41.8478261"></ellipse>
                    <ellipse id="Oval" fill="url(#linearGradient-2)" opacity="0.294201079" cx="573.112319" cy="260.054348" rx="40.4021739" ry="41.8478261"></ellipse>
                </g>
                <ellipse id="Oval" stroke="#979797" fill="#D8D8D8" opacity="0.0366210938" cx="505.5" cy="642.5" rx="505.5" ry="500.5"></ellipse>
                <g id="Handshake-Logo" transform="translate(668.000000, 35.000000)" fill="#A6ABAF" fill-rule="nonzero">
                    <path d="M38.8479955,15.3309324 L35.9273385,10.142414 L41.5857461,10.1440899 C41.7369154,10.1440899 41.9131403,10.2446425 41.9958241,10.3803887 C42.0860245,10.5287039 42.5453786,11.2862007 43.0974388,12.1962025 C43.7580735,13.2855233 44.5481626,14.5876805 45,15.3309324 L38.8479955,15.3309324 Z M28.3822383,46.7544839 C28.2452673,47 28.0673719,47 28.0097439,47 L25.6979399,47 C24.4743875,46.9991621 23.0629176,46.9983241 22.2227171,46.9983241 L31.2135301,30.8571047 C31.363029,30.5889642 31.3596882,30.2621679 31.204343,29.9973792 C31.0489978,29.7325905 30.7667038,29.5700303 30.4610245,29.5700303 L30.4601893,29.5700303 L15.136971,29.5901408 L12.0902004,24.3144767 L34.4089644,24.3144767 C34.4106347,24.3144767 34.4123051,24.3136388 34.4148107,24.3136388 C34.4173163,24.3136388 34.4189866,24.3144767 34.420657,24.3144767 C34.4331849,24.3144767 34.4448775,24.310287 34.4574053,24.3094491 C34.5075167,24.3060973 34.5576281,24.3010697 34.6052339,24.2893386 C34.6419822,24.2809592 34.6778953,24.269228 34.7138085,24.255821 C34.7330178,24.2482796 34.751392,24.2407381 34.7697661,24.2323587 C34.936804,24.1577821 35.0846325,24.035443 35.1790089,23.8619897 L38.8580178,17.0604386 L44.9315145,17.0604386 L28.3822383,46.7544839 Z M20.7252227,46.1411125 C20.5297884,45.8193439 20.2758909,45.4012123 19.9994432,44.9462114 C19.0698775,43.4119451 17.8788976,41.447816 17.7444321,41.2324657 C17.6993318,41.159565 17.6784521,40.9819219 17.7728285,40.8126582 C17.9883073,40.4255304 22.0573497,33.0960777 23.0487194,31.3095917 L28.9902561,31.3020503 L20.7252227,46.1411125 Z M10.592706,36.0397575 L7.63947661,30.7925833 L10.6160913,25.2127474 L13.6018931,30.3819932 C12.6739978,32.1290961 11.2257795,34.8540738 10.592706,36.0397575 Z M6.62889755,36.8567481 C5.12555679,36.8567481 3.63056793,36.8559101 3.41091314,36.8559101 L3.41007795,36.8559101 C3.26308463,36.8559101 3.08518931,36.7528436 3.00417595,36.6204493 L2.04287305,35.0359066 C1.35801782,33.9063648 0.4844098,32.4659476 0,31.6690676 L6.15200445,31.6690676 L9.07182628,36.857586 C8.43457684,36.857586 7.53257238,36.8567481 6.62889755,36.8567481 Z M16.6177617,0.246354074 C16.7547327,0 16.9317929,0 16.9894209,0 L22.8015033,0.000837939027 L13.7864699,16.1420574 C13.7789532,16.1554644 13.7747773,16.1697094 13.7680958,16.1839544 C13.7547327,16.2107684 13.7430401,16.2384204 13.7321826,16.2669103 C13.7229955,16.2945623 13.7146437,16.3213764 13.7071269,16.3490283 C13.7004454,16.3750045 13.6945991,16.4009806 13.6904232,16.4269567 C13.685412,16.4596363 13.6820713,16.491478 13.6812361,16.5233197 C13.6804009,16.5375646 13.6770601,16.5509717 13.6770601,16.5660546 C13.6770601,16.5769478 13.6795657,16.587003 13.6804009,16.5978962 C13.6812361,16.6297379 13.6845768,16.6607417 13.689588,16.6917454 C13.6929287,16.7177215 13.6971047,16.7436976 13.7037862,16.7696737 C13.7104677,16.7973257 13.7196548,16.8233018 13.7288419,16.8501159 C13.738029,16.876092 13.747216,16.902906 13.7589087,16.9280442 C13.7706013,16.9531824 13.7839644,16.9766447 13.7981626,17.0009449 C13.8123608,17.0244072 13.8257238,17.0478695 13.8424276,17.0704938 C13.8582962,17.0931182 13.8766704,17.1140667 13.8958797,17.1358531 C13.9142539,17.1559636 13.9326281,17.1769121 13.9526726,17.1961847 C13.9727171,17.2146194 13.9935969,17.2305402 14.0153118,17.247299 C14.0395323,17.2665716 14.0637528,17.2841683 14.0896437,17.3000891 C14.0996659,17.3059547 14.1071826,17.3134962 14.1172049,17.3193617 C14.1272272,17.3252273 14.1380846,17.3269032 14.1489421,17.3319308 C14.1932071,17.3545552 14.2399777,17.3738278 14.2892539,17.3889107 C14.3067929,17.3939383 14.3234967,17.4006418 14.3418708,17.4048315 C14.40451,17.4199144 14.4688196,17.4291318 14.5364699,17.4291318 C14.5373051,17.4291318 14.5373051,17.4299697 14.5381403,17.4299697 L14.5389755,17.4299697 L14.5398107,17.4299697 L14.9214922,17.4291318 C14.9231626,17.4291318 14.924833,17.4299697 14.9265033,17.4299697 L14.9273385,17.4299697 L29.8655345,17.4098592 C30.2605791,18.0969692 30.9988864,19.3899091 31.627784,20.490961 C32.1105234,21.3372794 32.5097439,22.0352826 32.8237751,22.5841326 L10.5943764,22.5841326 C10.5843541,22.5841326 10.575167,22.5874844 10.56598,22.5883223 C10.2636414,22.59335 9.97216036,22.7533963 9.81848552,23.0408094 L6.13864143,29.9387235 L0.0693207127,29.9387235 C2.7185412,25.1842574 16.4407016,0.563095026 16.6177617,0.246354074 Z M24.2873051,0.878998039 L24.8268374,1.76721341 C25.7747773,3.33080763 27.1135857,5.53793903 27.2555679,5.76753432 C27.3006682,5.84043502 27.3215479,6.01724015 27.2263363,6.18734177 L21.9504454,15.6904083 L16.0114143,15.6979497 L24.2873051,0.878998039 Z M34.4047884,10.9543769 L37.3596882,16.2040649 L34.3471604,21.7721697 C33.988029,21.1453913 33.5420379,20.3644322 33.123608,19.6312355 C32.2967706,18.1824389 31.6937639,17.1274737 31.3538419,16.5375646 C31.9961024,15.3619362 33.6940423,12.2515065 34.4047884,10.9543769 Z" id="Fill-1"></path>
                </g>
            </g>
        </g>
    </g>
</svg>