<?xml version="1.0" encoding="UTF-8"?>
<svg width="406px" height="452px" viewBox="0 0 406 452" version="1.1" xmlns="http://www.w3.org/2000/svg" xmlns:xlink="http://www.w3.org/1999/xlink">
    <!-- Generator: Sketch 52.2 (67145) - http://www.bohemiancoding.com/sketch -->
    <title>Group 4</title>
    <desc>Created with Sketch.</desc>
    <defs>
        <linearGradient x1="50%" y1="-3.69678442%" x2="50%" y2="100%" id="linearGradient-1">
            <stop stop-color="#7C331D" offset="0%"></stop>
            <stop stop-color="#9D4329" offset="100%"></stop>
        </linearGradient>
        <linearGradient x1="50%" y1="0%" x2="50%" y2="100%" id="linearGradient-2">
            <stop stop-color="#E4EEDC" offset="0%"></stop>
            <stop stop-color="#C5D8B7" offset="100%"></stop>
        </linearGradient>
    </defs>
    <g id="Handshakealliance.org" stroke="none" stroke-width="1" fill="none" fill-rule="evenodd">
        <g id="Desktop-HD-Copy-4" transform="translate(-817.000000, -184.000000)">
            <g id="Group-4" transform="translate(818.000000, 178.000000)">
                <g id="Group-3">
                    <g id="astronaut-and-flag" opacity="0.595447359" transform="translate(241.734571, 49.532834) rotate(5.000000) translate(-241.734571, -49.532834) translate(187.734571, 5.532834)" fill="#FFFFFF">
                        <g id="logo-dark" transform="translate(76.072395, 6.400352)" fill-rule="nonzero">
                            <path d="M15.2876737,6 L14,4 L16.4947068,4.000646 C16.5613551,4.000646 16.63905,4.03940566 16.675504,4.09173127 C16.715272,4.14890181 16.9177943,4.44089145 17.1611894,4.79166665 C17.4524533,5.21156332 17.8007917,5.7135013 18,6 L15.2876737,6 Z M10.9451706,18.9015953 C10.886781,19 10.8109455,19 10.7863791,19 L9.80087485,19 C9.27928386,18.9996642 8.67758508,18.9993283 8.31941406,18.9993283 L12.1521286,12.5298069 C12.2158588,12.4223342 12.2144347,12.2913518 12.1482122,12.1852225 C12.0819897,12.0790932 11.96165,12.0139379 11.8313412,12.0139379 L11.8309852,12.0139379 L5.29881491,12.0219983 L4,9.90747269 L13.5143177,9.90747269 C13.5150297,9.90747269 13.5157418,9.90713686 13.5168099,9.90713686 C13.517878,9.90713686 13.5185901,9.90747269 13.5193022,9.90747269 C13.5246427,9.90747269 13.5296272,9.90579343 13.5349677,9.90545759 C13.5563298,9.90411417 13.5776919,9.90209907 13.5979859,9.89739715 C13.6136514,9.89403863 13.6289609,9.88933668 13.6442704,9.88396305 C13.6524592,9.8809404 13.660292,9.87791771 13.6681247,9.87455918 C13.7393317,9.84466833 13.8023498,9.7956339 13.8425818,9.72611252 L15.410915,7 L18,7 L10.9451706,18.9015953 Z M8.33770958,19 C8.25111137,18.8698967 8.13860772,18.7008301 8.01611194,18.5168558 C7.60421529,17.8964933 7.0764843,17.1023208 7.01690175,17.0152465 C6.99691751,16.9857699 6.98766558,16.9139421 7.02948438,16.8455023 C7.12496445,16.6889717 8.92798378,13.7253938 9.36726619,13.0030493 L12,13 L8.33770958,19 Z M4.48592239,15 L3,12.5768129 L4.49768874,10 L6,12.3871991 C5.5331279,13.1940252 4.8044544,14.4524418 4.48592239,15 Z M2.9228503,14.999677 C2.25998895,14.999677 1.60081016,14.999354 1.50395876,14.999354 L1.5035905,14.999354 C1.43877739,14.999354 1.3603388,14.9596253 1.32461794,14.9085917 L0.900754925,14.2978036 C0.598784755,13.8624031 0.213588658,13.3071705 0,13 L2.71257595,13 L4,15 C3.71902044,15 3.32130363,14.999677 2.9228503,14.999677 Z M7.07318068,0.0987433178 C7.1317252,0 7.20740476,0 7.23203628,0 L9.71625271,0.000335861625 L5.86302206,6.47003834 C5.85980925,6.47541211 5.85802438,6.48112178 5.85516855,6.48683144 C5.84945686,6.49757899 5.84445917,6.50866243 5.83981843,6.52008171 C5.83589165,6.53116515 5.83232191,6.54191274 5.82910905,6.55299614 C5.82625323,6.56340789 5.82375439,6.5738196 5.82196951,6.5842313 C5.81982761,6.5973299 5.81839972,6.61009264 5.81804274,6.62285539 C5.81768575,6.62856502 5.81625782,6.63393883 5.81625782,6.63998434 C5.81625782,6.64435054 5.81732877,6.64838085 5.81768575,6.65274705 C5.81804274,6.6655098 5.81947063,6.6779367 5.82161253,6.69036356 C5.82304042,6.70077527 5.82482534,6.71118697 5.82768116,6.72159868 C5.83053699,6.73268212 5.83446376,6.74309383 5.83839054,6.75384142 C5.84231732,6.76425313 5.84624405,6.77500068 5.85124177,6.78507654 C5.85623946,6.7951524 5.86195115,6.80455653 5.86801979,6.8142965 C5.87408842,6.82370063 5.87980007,6.83310476 5.88693966,6.842173 C5.89372226,6.85124128 5.90157581,6.85963783 5.9097863,6.86837023 C5.91763985,6.87643089 5.9254934,6.88482744 5.93406088,6.89255226 C5.94262836,6.89994123 5.95155286,6.90632259 5.9608343,6.91303983 C5.97118669,6.92076465 5.98153909,6.92781773 5.99260545,6.93419909 C5.99688917,6.93655013 6.00010197,6.9395729 6.00438573,6.94192391 C6.00866949,6.94427495 6.01331019,6.94494668 6.01795094,6.94696184 C6.0368708,6.95603012 6.05686162,6.96375494 6.0779234,6.96980045 C6.08541996,6.9718156 6.09255955,6.97450249 6.10041306,6.9761818 C6.12718648,6.98222731 6.15467387,6.98592181 6.18358915,6.98592181 C6.18394613,6.98592181 6.18394613,6.98625766 6.18430311,6.98625766 L6.1846601,6.98625766 L6.18501708,6.98625766 L6.34815645,6.98592181 C6.34887042,6.98592181 6.34958438,6.98625766 6.35029831,6.98625766 L6.35065529,6.98625766 L12.7355806,6.978197 C12.9044316,7.25360353 13.220001,7.77183801 13.4888062,8.21316019 C13.69514,8.55238042 13.8657759,8.83215315 14,9.05214249 L4.49864858,9.05214249 C4.49436482,9.05214249 4.49043804,9.05348596 4.48651131,9.0538218 C4.3572849,9.055837 4.23269927,9.11998655 4.16701514,9.23518709 L2.59416594,12 L0,12 C1.13233719,10.0943211 6.99750116,0.225699012 7.07318068,0.0987433178 Z M9.66767544,0 L9.90678316,0.359626804 C10.3268873,0.992705684 10.9202149,1.88634436 10.983138,1.9793045 C11.0031254,2.00882104 11.0123788,2.08040713 10.9701833,2.14927905 L8.63203552,5.99694659 L6,6 L9.66767544,0 Z M13.5239883,4 L15,6.42641364 L13.4952023,9 C13.3158114,8.71030209 13.093033,8.34934162 12.8840217,8.01045701 C12.4710054,7.34082106 12.1697956,6.85321457 12,6.5805577 C12.3208177,6.0371805 13.1689612,4.59953524 13.5239883,4 Z" id="Fill-1"></path>
                        </g>
                        <path d="M33.0050258,33.0325595 C38.2775941,33.0325595 42.56728,28.9070807 42.56728,23.8361542 C42.56728,19.2004027 38.9033129,16.3205177 33.0050258,16.3205177 C27.1069868,16.3205177 23.4430197,19.2001581 23.4430197,23.8361542 C23.4427715,28.9068361 27.7324574,33.0325595 33.0050258,33.0325595 Z M33.0050258,18.2774599 C39.8432562,18.2774599 40.581659,22.1649256 40.581659,23.8361542 C40.581659,27.8278271 37.1827723,31.0756173 33.0050258,31.0756173 C28.8272792,31.0756173 25.4286407,27.8280717 25.4286407,23.8361542 C25.4283925,22.1649256 26.1667953,18.2774599 33.0050258,18.2774599 Z" id="Shape" fill-rule="nonzero"></path>
                        <path d="M33.7419499,20.8910591 C34.1306571,20.8910591 34.5144329,20.9110777 34.8825443,20.9508247 C34.924896,20.9554667 34.9669576,20.9574976 35.008439,20.9574976 C35.5935303,20.9574976 36.0962389,20.5162182 36.1606367,19.9217531 C36.2293856,19.2843496 35.7684485,18.7119339 35.1314329,18.6434646 C34.6809388,18.5947236 34.2133299,18.5700631 33.7419499,18.5700631 C33.1011633,18.5700631 32.5816301,19.089676 32.5816301,19.7305611 C32.5816301,20.3714461 33.1011633,20.8910591 33.7419499,20.8910591 Z" id="Path"></path>
                        <path d="M36.7937446,21.0405444 C37.6378704,21.5339579 38.1420888,22.3994256 38.1423145,23.3554279 C38.1423145,23.8315967 38.5465469,24.2174466 39.0451228,24.2174466 C39.0451228,24.2174466 39.0453486,24.2174466 39.0453486,24.2174466 C39.5439245,24.217231 39.9481569,23.8311656 39.9479312,23.3549967 C39.9474798,21.7939216 39.120733,20.3787796 37.7365022,19.5693571 C37.3110537,19.3210336 36.7553752,19.4486443 36.4951407,19.8547567 C36.2346805,20.260869 36.3685218,20.7917898 36.7937446,21.0405444 Z" id="Path"></path>
                        <path d="M106.677272,0.251788317 L65.3780191,0.251788317 C64.8317608,0.251788317 64.3888688,0.698150749 64.3888688,1.24868934 L64.3888688,30.8927873 C64.077781,30.8389547 63.7590273,30.8090476 63.4343387,30.8090476 L43.7982205,30.8090476 C45.341295,28.7085772 46.2557645,26.1121485 46.2557645,23.3041275 C46.2557645,16.334294 40.6297246,10.663921 33.71408,10.663921 C26.7986826,10.663921 21.1723954,16.334294 21.1723954,23.3041275 C21.1723954,26.1123977 22.0868649,28.7088264 23.6299394,30.8090476 L22.107637,30.8090476 C19.8827906,30.8090476 17.7044342,31.7184706 16.1311906,33.3040417 L1.70888393,47.8368647 C-0.446227396,50.0121028 -0.445980108,53.5488584 1.70937851,55.7211057 C2.75565229,56.7755777 4.14491396,57.3565218 5.62122085,57.3565218 C7.10024792,57.3565218 8.48975687,56.7755777 9.53281592,55.7213549 L18.1166627,47.0722417 L18.1166627,77.7944881 C15.7585282,78.0977952 13.9300838,80.1329687 13.9300838,82.5903297 L13.9300838,86.3962486 C13.9300838,86.9467871 14.3729759,87.3931496 14.9192341,87.3931496 L31.2748352,87.3931496 C31.8015578,87.3931496 32.2357948,86.9771926 32.2627491,86.4470905 L33.2756391,66.4582281 L34.4423419,66.4582281 L35.4552319,86.4470905 C35.4819389,86.9771926 35.9164232,87.3931496 36.4431458,87.3931496 L52.5069475,87.3931496 C53.0532057,87.3931496 53.4960978,86.9467871 53.4960978,86.3962486 L53.4960978,82.5903297 C53.4960978,80.2663042 51.8612796,78.3198549 49.6903418,77.8590374 L49.6903418,41.9593855 L63.5433925,41.9593855 C63.8295042,41.9593855 64.1119067,41.937703 64.3891161,41.8950854 L64.3891161,86.3962486 C64.3891161,86.9467871 64.8320081,87.3931496 65.3782664,87.3931496 C65.9245247,87.3931496 66.3674168,86.9467871 66.3674168,86.3962486 L66.3674168,41.1795597 C66.7863219,40.927593 67.1757999,40.6185537 67.5247227,40.2539371 C68.5759422,39.155103 69.1246734,37.7085996 69.0695282,36.1823441 C69.0030079,34.2720326 67.9278014,32.5925036 66.3674168,31.6394662 L66.3674168,30.3507224 L106.677519,30.3507224 C107.223777,30.3507224 107.666669,29.90436 107.666669,29.3538214 L107.666669,1.24868934 C107.666422,0.698150749 107.22353,0.251788317 106.677272,0.251788317 Z M62.444941,39.9655835 L55.0263134,39.9655835 L55.0263134,32.8028497 L62.444941,32.8028497 L62.444941,39.9655835 Z M37.5277491,41.3694694 C37.3914937,40.9831702 37.0292174,40.7050348 36.5991842,40.7050348 L30.829223,40.7050348 C30.2829647,40.7050348 29.8400726,41.1513973 29.8400726,41.7019359 L29.8400726,42.7818289 L25.8555277,42.7818289 C24.5758144,42.7818289 23.5347337,41.7325906 23.5347337,40.4428499 L23.5347337,32.8028497 L25.4534381,32.8028497 C27.6617163,34.756028 30.5520136,35.9440848 33.71408,35.9440848 C36.0462492,35.9440848 38.2302932,35.2973453 40.1027548,34.1750839 L40.1027548,39.1099932 C40.1027548,40.3558703 39.0970362,41.3694694 37.8608455,41.3694694 L37.5277491,41.3694694 Z M36.666941,71.2757523 L47.7117939,71.2757523 L47.7117939,72.9370879 L36.7512661,72.9370879 L36.666941,71.2757523 Z M47.7117939,55.9877767 C46.0109498,55.9568728 44.6362781,54.5549807 44.6362781,52.8338311 C44.6362781,49.9936601 42.3436749,47.683342 39.5255856,47.683342 L37.5880873,47.683342 L37.5880873,46.5284322 L47.7115466,46.5284322 L47.7115466,55.9877767 L47.7117939,55.9877767 Z M35.6100339,42.6988369 L35.6100339,49.843128 L31.8183733,49.843128 L31.8183733,42.6988369 L35.6100339,42.6988369 Z M33.71408,12.6577231 C39.5386918,12.6577231 44.2774638,17.4336266 44.2774638,23.3041275 C44.2774638,29.1743792 39.5386918,33.9502827 33.71408,33.9502827 C27.8894681,33.9502827 23.1506961,29.1743792 23.1506961,23.3041275 C23.1506961,17.4336266 27.8894681,12.6577231 33.71408,12.6577231 Z M8.83323933,53.6066786 L3.80761369,48.5414245 L9.33325483,42.9734831 L14.3591278,48.0387372 L8.83323933,53.6066786 Z M3.10828439,54.3114876 C1.9665576,53.1605654 1.76897481,51.4144933 2.51009571,50.0537234 L7.3356657,54.917105 C6.81660905,55.206954 6.23127933,55.3627198 5.62097357,55.3627198 C4.67312024,55.3627198 3.78065934,54.9893803 3.10828439,54.3114876 Z M15.7580336,46.6291192 L10.7321607,41.5638651 L17.5300965,34.7139089 C18.6045611,33.630776 20.0479787,32.9613569 21.556433,32.8287691 L21.556433,40.4430991 C21.556433,42.8321724 23.4850289,44.7758802 25.8555277,44.7758802 L29.8400726,44.7758802 L29.8400726,50.8402783 C29.8400726,51.3908169 30.2829647,51.8371793 30.829223,51.8371793 L36.5991842,51.8371793 C37.1454425,51.8371793 37.5883346,51.3908169 37.5883346,50.8402783 L37.5883346,49.6773933 L39.5258328,49.6773933 C41.2528894,49.6773933 42.6582247,51.0934912 42.6582247,52.8340803 C42.6582247,55.6548118 44.9204116,57.9506748 47.7120411,57.981828 L47.7120411,59.6464035 L20.0947161,59.6464035 L20.0947161,49.0127095 L20.4846886,49.0127095 C22.030236,49.0127095 23.2871988,50.2797707 23.2871988,51.8371793 C23.2871988,54.4941698 25.4319241,56.6557004 28.0680098,56.6557004 L30.9197302,56.6557004 C31.3284966,57.8153455 32.4249698,58.6495024 33.71408,58.6495024 C35.3503819,58.6495024 36.681531,57.3079229 36.681531,55.6587994 C36.681531,54.0096759 35.3503819,52.6680963 33.71408,52.6680963 C32.4249698,52.6680963 31.3284966,53.5022532 30.9197302,54.6618984 L28.0680098,54.6618984 C26.5227096,54.6618984 25.2654995,53.3948372 25.2654995,51.8371793 C25.2654995,49.1804381 23.1207743,47.0189075 20.4846886,47.0189075 L20.0947161,47.0189075 L20.0947161,44.666221 C20.0947161,44.2629746 19.8536107,43.8996042 19.484163,43.7453337 C19.1147154,43.5910633 18.6891334,43.6762983 18.4062364,43.9611628 L15.7580336,46.6291192 Z M30.9662203,72.9370879 L20.0947161,72.9370879 L20.0947161,71.2757523 L31.0502981,71.2757523 L30.9662203,72.9370879 Z M32.7249296,55.6585502 C32.7249296,55.1087592 33.1685635,54.6616491 33.71408,54.6616491 C34.2595964,54.6616491 34.7032303,55.1087592 34.7032303,55.6585502 C34.7032303,56.2083411 34.2595964,56.6554512 33.71408,56.6554512 C33.1685635,56.6554512 32.7249296,56.2083411 32.7249296,55.6585502 Z M18.712873,79.7501587 L24.1937551,79.7501587 C24.7400134,79.7501587 25.1829055,79.3037962 25.1829055,78.7532577 C25.1829055,78.2027191 24.7400134,77.7563566 24.1937551,77.7563566 L20.0947161,77.7563566 L20.0947161,74.9308899 L30.8650797,74.9308899 L30.4946429,82.2416635 L15.9316295,82.2416635 C16.1025053,80.8440083 17.2823143,79.7576354 18.712873,79.7501587 Z M22.0260321,84.2354656 L22.0260321,85.3993475 L19.6357503,85.3993475 L19.6357503,84.2354656 L22.0260321,84.2354656 Z M24.0043328,84.2354656 L26.3948619,84.2354656 L26.3948619,85.3993475 L24.0043328,85.3993475 L24.0043328,84.2354656 Z M15.9081372,84.2354656 L17.6574496,84.2354656 L17.6574496,85.3993475 L15.9081372,85.3993475 L15.9081372,84.2354656 Z M28.3731626,85.3993475 L28.3731626,84.2354656 L30.3937495,84.2354656 L30.3346478,85.3993475 L28.3731626,85.3993475 Z M32.3354517,64.4644261 C31.8087291,64.4644261 31.3744921,64.880383 31.3475377,65.4104852 L31.1514387,69.2819503 L20.0947161,69.2819503 L20.0947161,61.6399563 L47.7117939,61.6399563 L47.7117939,69.2819503 L36.5660477,69.2819503 L36.3699486,65.4104852 C36.3432416,64.880383 35.9087573,64.4644261 35.3820347,64.4644261 L32.3354517,64.4644261 Z M37.3237369,84.2354656 L39.0888757,84.2354656 L39.0888757,85.3993475 L37.3828386,85.3993475 L37.3237369,84.2354656 Z M47.8265353,84.2354656 L47.8265353,85.3993475 L45.4360062,85.3993475 L45.4360062,84.2354656 L47.8265353,84.2354656 Z M43.4577055,85.3993475 L41.0671764,85.3993475 L41.0671764,84.2354656 L43.4577055,84.2354656 L43.4577055,85.3993475 Z M49.804836,85.3993475 L49.804836,84.2354656 L51.5175498,84.2354656 L51.5175498,85.3993475 L49.804836,85.3993475 Z M51.4940575,82.2416635 L37.2228435,82.2416635 L36.8524067,74.9308899 L47.7120411,74.9308899 L47.7120411,77.7563566 L43.1260928,77.7563566 C42.5798345,77.7563566 42.1369425,78.2027191 42.1369425,78.7532577 C42.1369425,79.3037962 42.5798345,79.7501587 43.1260928,79.7501587 L48.7155342,79.7501587 C50.1446091,79.7576354 51.3234291,80.8440083 51.4940575,82.2416635 Z M48.7009442,39.9655835 C48.1546859,39.9655835 47.7117939,40.4119459 47.7117939,40.9624845 L47.7117939,44.5346301 L37.5883346,44.5346301 L37.5883346,43.3632714 L37.8608455,43.3632714 C40.188069,43.3632714 42.0810555,41.4552029 42.0810555,39.1099932 L42.0810555,32.8028497 L53.0480127,32.8028497 L53.0480127,39.9655835 L48.7009442,39.9655835 Z M66.1003462,38.8699893 C65.6339618,39.3574739 65.0555561,39.6896912 64.4232417,39.8514383 L64.4232417,32.9416681 C65.9106766,33.358622 67.0378134,34.6840019 67.092464,36.2538718 C67.1275788,37.2350716 66.7754413,38.1644326 66.1003462,38.8699893 Z M105.688121,28.3569203 L66.3671695,28.3569203 L66.3671695,2.24559036 L105.688121,2.24559036 L105.688121,28.3569203 Z" id="Shape" fill-rule="nonzero"></path>
                    </g>
                    <g id="Group-2" transform="translate(38.000000, 86.000000)" fill-rule="nonzero">
                        <ellipse id="Oval" fill="url(#linearGradient-1)" cx="165" cy="164.5" rx="165" ry="164.5"></ellipse>
                        <ellipse id="Oval" fill="url(#linearGradient-2)" opacity="0.294201079" cx="181.141304" cy="40.5289855" rx="16.1413043" ry="16.6884058"></ellipse>
                        <ellipse id="Oval" fill="url(#linearGradient-2)" opacity="0.294201079" cx="228.967391" cy="103.706522" rx="16.1413043" ry="16.6884058"></ellipse>
                    </g>
                    <ellipse id="Oval" stroke="#979797" fill="#D8D8D8" fill-rule="nonzero" opacity="0.0366210938" cx="202" cy="257" rx="202" ry="200"></ellipse>
                </g>
                <path d="M180.481352,247.586153 C177.353406,247.586153 174.878419,247.03902 173.056314,245.944738 C171.23421,244.850456 169.93598,243.172088 169.161586,240.909586 C168.387191,238.647083 168,235.652639 168,231.926164 C168,228.229265 168.394783,225.220033 169.184362,222.89838 C169.97394,220.576727 171.279762,218.846604 173.101867,217.707959 C174.923971,216.569314 177.368591,216 180.4358,216 C183.503009,216 185.947629,216.569314 187.769733,217.707959 C189.591837,218.846604 190.905251,220.576727 191.710014,222.89838 C192.514777,225.220033 192.917152,228.258839 192.917152,232.014889 C192.917152,235.77094 192.529961,238.772777 191.755566,241.020492 C190.981172,243.268207 189.690534,244.924393 187.883614,245.9891 C186.076694,247.053808 183.609298,247.586153 180.481352,247.586153 Z M180.481352,244.569498 C182.789351,244.569498 184.573468,244.155452 185.833757,243.327346 C187.094046,242.49924 187.982308,241.190558 188.498571,239.401258 C189.014834,237.611959 189.272962,235.14986 189.272962,232.014889 C189.272962,228.879919 189.007242,226.380852 188.475795,224.517614 C187.944348,222.654377 187.040901,221.271757 185.765428,220.369714 C184.489955,219.46767 182.71343,219.016655 180.4358,219.016655 C178.158169,219.016655 176.381644,219.460276 175.106171,220.347532 C173.830698,221.234788 172.927252,222.610014 172.395805,224.473252 C171.864358,226.336489 171.598638,228.820769 171.598638,231.926164 C171.598638,235.03156 171.856766,237.493658 172.373029,239.312533 C172.889291,241.131408 173.792738,242.462272 175.083395,243.305165 C176.374052,244.148058 178.173353,244.569498 180.481352,244.569498 Z M206.330576,247.586153 C204.386998,247.586153 202.891377,247.23865 201.843667,246.543633 C200.795957,245.848616 200.059534,244.717381 199.634376,243.149896 C199.209219,241.58241 198.996643,239.379091 198.996643,236.539872 L198.996643,224.96124 L202.413072,224.96124 L202.413072,236.495509 C202.413072,238.713649 202.534543,240.384623 202.777491,241.50848 C203.020438,242.632338 203.460773,243.430856 204.09851,243.904059 C204.736246,244.377263 205.723204,244.613861 207.059414,244.613861 C209.124466,244.613861 211.250222,244.066728 213.436748,242.972445 L213.436748,224.96124 L216.853176,224.96124 L216.853176,247.142527 L213.436748,247.142527 L213.436748,245.589837 C212.191643,246.299642 211.037661,246.809807 209.974767,247.120346 C208.911872,247.430886 207.697154,247.586153 206.330576,247.586153 Z M223.889267,224.96124 L227.260143,224.96124 L227.260143,227.977895 C229.871826,226.232958 232.650493,225.064756 235.596229,224.473252 L235.596229,227.844807 C234.411861,228.081409 233.128815,228.4437 231.747053,228.931691 C230.36529,229.419681 229.264452,229.870696 228.444505,230.284749 L227.305695,230.861463 L227.305695,247.142527 L223.889267,247.142527 L223.889267,224.96124 Z" id="Our" fill="#FFFFFF"></path>
                <path d="M160.520095,263.354901 L160.520095,294.053802 L157.012562,294.053802 L157.012562,266.992632 L156.374828,266.992632 L147.2188,292.944738 L143.301295,292.944738 L134.145267,266.992632 L133.507533,266.992632 L133.507533,294.053802 L130,294.053802 L130,263.354901 L136.331781,263.354901 L145.260047,289.351369 L154.188314,263.354901 L160.520095,263.354901 Z M168.148367,271.872515 L171.519243,271.872515 L171.519243,294.053802 L168.148367,294.053802 L168.148367,271.872515 Z M168.148367,263 L171.519243,263 L171.519243,266.859544 L168.148367,266.859544 L168.148367,263 Z M185.707057,294.497428 C183.884953,294.497428 181.652909,294.290405 179.010857,293.876352 L177.644286,293.654539 L177.826496,290.770972 C181.379599,291.27375 183.991243,291.525136 185.661505,291.525136 C187.483609,291.525136 188.842575,291.236782 189.738443,290.660065 C190.634311,290.083349 191.082238,289.159138 191.082238,287.887404 C191.082238,286.970573 190.862071,286.275567 190.421729,285.802363 C189.981387,285.32916 189.41958,284.989051 188.736291,284.782024 C188.053002,284.574998 187.088819,284.382762 185.843715,284.205311 L184.704905,284.02786 C182.882801,283.732108 181.455507,283.377211 180.422981,282.963159 C179.390455,282.549106 178.616073,281.965004 178.09981,281.210837 C177.583547,280.456669 177.325419,279.414159 177.325419,278.083275 C177.325419,275.687684 178.069434,273.987136 179.557486,272.981579 C181.045538,271.976023 183.15611,271.473252 185.889267,271.473252 C188.045424,271.473252 190.2471,271.665488 192.494362,272.049965 L193.769829,272.271778 L193.678724,275.110983 C190.398936,274.63778 187.832844,274.401182 185.980372,274.401182 C184.219004,274.401182 182.90559,274.667354 182.040091,275.199708 C181.174591,275.732062 180.741848,276.560155 180.741848,277.684012 C180.741848,278.482543 180.954424,279.096219 181.379581,279.525059 C181.804739,279.953899 182.358954,280.264434 183.042243,280.456673 C183.725532,280.648912 184.689715,280.848542 185.934819,281.055568 L187.073629,281.277381 C188.95647,281.602708 190.414132,281.979786 191.446657,282.408626 C192.479183,282.837467 193.245974,283.451143 193.747053,284.249673 C194.248131,285.048204 194.498667,286.157257 194.498667,287.576866 C194.498667,289.972457 193.777428,291.724762 192.334929,292.833831 C190.89243,293.942901 188.683161,294.497428 185.707057,294.497428 Z M207.365462,294.497428 C205.543358,294.497428 203.311314,294.290405 200.669262,293.876352 L199.302691,293.654539 L199.484901,290.770972 C203.038004,291.27375 205.649648,291.525136 207.31991,291.525136 C209.142014,291.525136 210.50098,291.236782 211.396848,290.660065 C212.292716,290.083349 212.740643,289.159138 212.740643,287.887404 C212.740643,286.970573 212.520476,286.275567 212.080134,285.802363 C211.639792,285.32916 211.077985,284.989051 210.394696,284.782024 C209.711407,284.574998 208.747224,284.382762 207.50212,284.205311 L206.36331,284.02786 C204.541206,283.732108 203.113912,283.377211 202.081386,282.963159 C201.04886,282.549106 200.274478,281.965004 199.758215,281.210837 C199.241952,280.456669 198.983824,279.414159 198.983824,278.083275 C198.983824,275.687684 199.727839,273.987136 201.215891,272.981579 C202.703943,271.976023 204.814515,271.473252 207.547672,271.473252 C209.703829,271.473252 211.905505,271.665488 214.152767,272.049965 L215.428234,272.271778 L215.337129,275.110983 C212.057341,274.63778 209.491249,274.401182 207.638777,274.401182 C205.877409,274.401182 204.563995,274.667354 203.698496,275.199708 C202.832996,275.732062 202.400253,276.560155 202.400253,277.684012 C202.400253,278.482543 202.612829,279.096219 203.037986,279.525059 C203.463144,279.953899 204.017359,280.264434 204.700648,280.456673 C205.383937,280.648912 206.34812,280.848542 207.593224,281.055568 L208.732034,281.277381 C210.614875,281.602708 212.072537,281.979786 213.105062,282.408626 C214.137588,282.837467 214.904379,283.451143 215.405458,284.249673 C215.906536,285.048204 216.157072,286.157257 216.157072,287.576866 C216.157072,289.972457 215.435833,291.724762 213.993334,292.833831 C212.550834,293.942901 210.341566,294.497428 207.365462,294.497428 Z M221.872144,271.872515 L225.24302,271.872515 L225.24302,294.053802 L221.872144,294.053802 L221.872144,271.872515 Z M221.872144,263 L225.24302,263 L225.24302,266.859544 L221.872144,266.859544 L221.872144,263 Z M240.751853,294.497428 C238.322381,294.497428 236.394016,294.105563 234.966701,293.32182 C233.539386,292.538077 232.52206,291.318118 231.914692,289.661907 C231.307323,288.005696 231.003644,285.817165 231.003644,283.096246 C231.003644,280.286603 231.322507,278.031528 231.960244,276.330954 C232.59798,274.63038 233.630491,273.38824 235.057806,272.604497 C236.485121,271.820755 238.383118,271.428889 240.751853,271.428889 C243.150957,271.428889 245.056546,271.828148 246.468677,272.626679 C247.880808,273.425209 248.905726,274.667349 249.543463,276.353135 C250.181199,278.038921 250.500063,280.286603 250.500063,283.096246 C250.500063,285.817165 250.196383,288.005696 249.589015,289.661907 C248.981647,291.318118 247.971913,292.538077 246.559782,293.32182 C245.147651,294.105563 243.211694,294.497428 240.751853,294.497428 Z M240.797406,291.613861 C242.467668,291.613861 243.743122,291.340294 244.623806,290.793153 C245.504489,290.246012 246.11944,289.373557 246.468677,288.175761 C246.817914,286.977966 246.992529,285.284811 246.992529,283.096246 C246.992529,280.789381 246.810322,279.014896 246.445901,277.772737 C246.08148,276.530579 245.458937,275.643336 244.578253,275.110983 C243.69757,274.578629 242.4373,274.312457 240.797406,274.312457 C239.157512,274.312457 237.88965,274.578629 236.993782,275.110983 C236.097914,275.643336 235.460187,276.530579 235.080582,277.772737 C234.700977,279.014896 234.511177,280.789381 234.511177,283.096246 C234.511177,285.255236 234.685793,286.940997 235.03503,288.15358 C235.384266,289.366163 236.006809,290.246012 236.902677,290.793153 C237.798545,291.340294 239.096775,291.613861 240.797406,291.613861 Z M256.534001,271.872515 L259.904877,271.872515 L259.904877,273.425205 C261.271456,272.685825 262.524134,272.168267 263.662949,271.872515 C264.801764,271.576763 265.993706,271.428889 267.238811,271.428889 C269.182389,271.428889 270.685602,271.783786 271.748496,272.493591 C272.811391,273.203396 273.562997,274.33463 274.003339,275.887328 C274.443681,277.440026 274.663849,279.591589 274.663849,282.342083 L274.663849,294.053802 L271.292973,294.053802 L271.292973,282.430808 C271.292973,280.330969 271.163909,278.719145 270.905777,277.595287 C270.647646,276.47143 270.184535,275.658124 269.51643,275.155345 C268.848325,274.652567 267.87655,274.401182 266.601077,274.401182 C265.568552,274.401182 264.513265,274.526874 263.435187,274.778264 C262.357108,275.029653 261.48403,275.318007 260.815925,275.643334 L259.95043,276.042597 L259.95043,294.053802 L256.534001,294.053802 L256.534001,271.872515 Z" id="Mission" fill="#FFFFFF"></path>
            </g>
        </g>
    </g>
</svg>
