<?xml version="1.0" encoding="UTF-8"?>
<svg width="1218px" height="653px" viewBox="0 0 1218 653" version="1.1" xmlns="http://www.w3.org/2000/svg" xmlns:xlink="http://www.w3.org/1999/xlink">
    <!-- Generator: Sketch 52.2 (67145) - http://www.bohemiancoding.com/sketch -->
    <title>Star Background</title>
    <desc>Created with Sketch.</desc>
    <g id="Main-Website" stroke="none" stroke-width="1" fill="none" fill-rule="evenodd">
        <g id="H.A.-Landing-Page" transform="translate(-119.000000, -86.000000)" fill="#FFFFFF" fill-rule="nonzero">
            <g id="Background">
                <g id="Star-Background" transform="translate(119.000000, 86.000000)">
                    <circle id="Oval" cx="812.5" cy="202.5" r="2.5"></circle>
                    <circle id="Oval" cx="647.5" cy="271.5" r="2.5"></circle>
                    <circle id="Oval-Copy" cx="863.5" cy="406.5" r="2.5"></circle>
                    <circle id="Oval-Copy-2" cx="997.5" cy="276.5" r="2.5"></circle>
                    <circle id="Oval-Copy-3" cx="1215.5" cy="525.5" r="2.5"></circle>
                    <circle id="Oval-Copy-11" cx="1195.5" cy="152.5" r="2.5"></circle>
                    <circle id="Oval-Copy-12" cx="749.5" cy="102.5" r="2.5"></circle>
                    <circle id="Oval-Copy-4" cx="1007.5" cy="650.5" r="2.5"></circle>
                    <circle id="Oval-Copy-5" cx="652.5" cy="500.5" r="2.5"></circle>
                    <circle id="Oval-Copy-6" cx="453.5" cy="585.5" r="2.5"></circle>
                    <circle id="Oval-Copy-8" cx="53.5" cy="625.5" r="2.5"></circle>
                    <circle id="Oval-Copy-9" cx="145.5" cy="473.5" r="2.5"></circle>
                    <circle id="Oval-Copy-7" cx="448.5" cy="337.5" r="2.5"></circle>
                    <circle id="Oval" cx="276.5" cy="454.5" r="2.5"></circle>
                    <circle id="Oval" cx="212.5" cy="2.5" r="2.5"></circle>
                    <circle id="Oval" cx="509.5" cy="63.5" r="2.5"></circle>
                    <circle id="Oval" cx="271.5" cy="197.5" r="2.5"></circle>
                    <circle id="Oval" cx="2.5" cy="368.5" r="2.5"></circle>
                    <circle id="Oval-Copy-10" cx="7.5" cy="53.5" r="2.5"></circle>
                    <circle id="Oval" cx="1002.5" cy="58.5" r="2.5"></circle>
                </g>
            </g>
        </g>
    </g>
</svg>