<?xml version="1.0" encoding="UTF-8"?>
<svg width="168px" height="444px" viewBox="0 0 168 444" version="1.1" xmlns="http://www.w3.org/2000/svg" xmlns:xlink="http://www.w3.org/1999/xlink">
    <!-- Generator: Sketch 52.2 (67145) - http://www.bohemiancoding.com/sketch -->
    <title>Group</title>
    <desc>Created with Sketch.</desc>
    <defs>
        <filter x="0.0%" y="0.0%" width="100.0%" height="100.0%" filterUnits="objectBoundingBox" id="filter-1">
            <feGaussianBlur stdDeviation="0" in="SourceGraphic"></feGaussianBlur>
        </filter>
        <filter x="0.0%" y="0.0%" width="100.0%" height="100.0%" filterUnits="objectBoundingBox" id="filter-2">
            <feGaussianBlur stdDeviation="0" in="SourceGraphic"></feGaussianBlur>
        </filter>
        <filter x="0.0%" y="0.0%" width="100.0%" height="100.0%" filterUnits="objectBoundingBox" id="filter-3">
            <feGaussianBlur stdDeviation="0" in="SourceGraphic"></feGaussianBlur>
        </filter>
        <filter x="0.0%" y="0.0%" width="100.0%" height="100.0%" filterUnits="objectBoundingBox" id="filter-4">
            <feGaussianBlur stdDeviation="0" in="SourceGraphic"></feGaussianBlur>
        </filter>
    </defs>
    <g id="HA-Branding" stroke="none" stroke-width="1" fill="none" fill-rule="evenodd">
        <g id="Desktop-HD-Copy" transform="translate(-1043.000000, -277.000000)" fill-rule="nonzero">
            <g id="Group" transform="translate(1043.000000, 277.000000)">
                <polygon id="Path-142" fill="#5D3826" filter="url(#filter-1)" points="21 65.8671185 21 10 28 10 28 2 139 2 139 10 148 10 148 65.8671185 155 65.8671185 155 107 148 107 148 157 127 157 127 172.261076 148 172.261076 148 183 161 183 161 289 168 289 168 311 133 311 133 381 139 381 139 395 133 395 133 423 148 423 148 444 91 444 91 423 91 395 91 381 91 353.487595 77 353.487595 77 381 77 395 77 423 77 444 21 444 21 423 35 423 35 395 28 395 28 381 35 381 35 311 4.6629367e-15 311 0 289 6 289 6 183 21 183 21 172.261076 41 172.261076 41 157 21 157 21 107 14 107 14 65.8671185"></polygon>
                <rect id="Rectangle" fill="#161D24" x="35" y="274.468474" width="98" height="79"></rect>
                <rect id="Rectangle" fill="#161D24" x="35" y="353" width="42" height="28"></rect>
                <rect id="Rectangle" fill="#161D24" x="91" y="353" width="42" height="28"></rect>
                <rect id="Rectangle" fill="#100E14" x="35" y="268" width="98" height="7"></rect>
                <rect id="Rectangle" fill="#890117" x="35" y="196" width="98" height="72"></rect>
                <rect id="Rectangle" fill="#CC1115" x="21" y="172" width="127" height="14"></rect>
                <rect id="Rectangle" fill="#000000" x="21" y="423" width="56" height="21"></rect>
                <rect id="Rectangle" fill="#000000" x="91" y="423" width="58" height="21"></rect>
                <rect id="Rectangle" fill="#0C000A" x="39" y="172" width="14" height="96"></rect>
                <rect id="Rectangle" fill="#0C000A" x="115" y="172" width="14" height="96"></rect>
                <rect id="Rectangle" fill="#000108" filter="url(#filter-2)" x="19" y="8" width="16" height="22"></rect>
                <rect id="Rectangle" fill="#000108" filter="url(#filter-3)" x="134" y="8" width="16" height="22"></rect>
                <rect id="Rectangle" fill="#331F15" x="63" y="130" width="42" height="7"></rect>
                <rect id="Rectangle" fill="#000000" x="27" y="0" width="115" height="24"></rect>
                <g id="Glasses" transform="translate(21.000000, 61.000000)">
                    <polygon id="Path-143" fill="#2685BF" filter="url(#filter-4)" points="0 1.0658141e-14 0 6.86711854 7 6.86711854 7 43 14 43 14 49 51 49 51 43 58 43 58 36 70 36 70 43 76 43 76 49 114 49 114 43 122 43 122 6.86711854 127 6.86711854 127 1.0658141e-14 70 1.0658141e-14 70 6.86711854 60 6.86711854 60 1.0658141e-14"></polygon>
                    <polygon id="Path-144" fill="#FCFAF3" points="18 6 18 40.1328815 53 40.1328815 53 34.1328815 60 34.1328815 60 6"></polygon>
                    <polygon id="Path-144" fill="#FCFAF3" transform="translate(91.000000, 23.066441) scale(-1, 1) translate(-91.000000, -23.066441) " points="70 6 70 40.1328815 105 40.1328815 105 34.1328815 112 34.1328815 112 6"></polygon>
                    <rect id="Rectangle" fill="#000209" x="77" y="6" width="14" height="28"></rect>
                    <rect id="Rectangle" fill="#000209" x="41" y="6" width="14" height="28"></rect>
                </g>
                <rect id="Rectangle" fill="#331F15" x="55" y="123" width="8" height="7"></rect>
                <rect id="Rectangle" fill="#331F15" x="105" y="123" width="8" height="7"></rect>
                <rect id="Rectangle" fill="#128CD4" x="129" y="183" width="32" height="15"></rect>
                <rect id="Rectangle" fill="#128CD4" x="6" y="183" width="33" height="15"></rect>
                <rect id="Rectangle" fill="#CC1115" x="53" y="172" width="62" height="96"></rect>
                <rect id="Rectangle" fill="#128CD4" x="53" y="205.867119" width="62" height="14"></rect>
                <rect id="Rectangle" fill="#128CD4" x="53" y="239.734237" width="62" height="14"></rect>
                <rect id="Rectangle" fill="#FFE7F9" x="82" y="176.132881" width="7" height="7"></rect>
                <rect id="Rectangle" fill="#FFE7F9" x="82" y="189" width="7" height="7"></rect>
                <rect id="Rectangle" fill="#F8F8FF" x="39" y="213" width="14" height="7"></rect>
                <rect id="Rectangle" fill="#7C8584" x="39" y="268" width="14" height="7"></rect>
                <rect id="Rectangle" fill="#7C8584" x="115" y="268" width="14" height="7"></rect>
                <rect id="Rectangle" fill="#2D3549" x="28" y="381" width="49" height="14"></rect>
                <rect id="Rectangle" fill="#2D3549" x="91" y="381" width="49" height="14"></rect>
                <rect id="Rectangle" fill="#F8F8FF" x="115" y="213" width="14" height="7"></rect>
                <rect id="Rectangle" fill="#CF0F0C" x="6" y="198" width="29" height="15"></rect>
                <rect id="Rectangle" fill="#CF0F0C" x="133" y="198" width="28" height="15"></rect>
                <rect id="Rectangle" fill="#1287D4" x="6" y="213" width="29" height="10"></rect>
                <rect id="Rectangle" fill="#1287D4" x="133" y="213" width="28" height="10"></rect>
                <rect id="Rectangle" stroke="#E7E7E7" fill="#FFFFFF" x="35.5" y="395.5" width="41" height="27"></rect>
                <rect id="Rectangle" stroke="#E7E7E7" fill="#FFFFFF" x="91.5" y="395.5" width="41" height="27"></rect>
            </g>
        </g>
    </g>
</svg>